<?xml version="1.0" encoding="utf-8"?>
<!-- Generator: Adobe Illustrator 21.0.0, SVG Export Plug-In . SVG Version: 6.00 Build 0)  -->
<svg version="1.1" id="Capa_1" xmlns="http://www.w3.org/2000/svg" xmlns:xlink="http://www.w3.org/1999/xlink" x="0px" y="0px"
	 viewBox="0 0 468 384" style="enable-background:new 0 0 468 384;" xml:space="preserve">
<style type="text/css">
	.st0{fill:#F8FAFB;}
	.st1{fill:#CCDAE1;}
	.st2{fill:#FFFFFF;}
	.st3{fill:#E1EAEE;}
	.st4{fill:#9EB9C8;}
	.st5{fill:#B5C9D4;}
	.st6{fill:#4E7E97;}
	.st7{fill:#5F5FF6;}
	.st8{fill:#0161CD;}
	.st9{fill:#E3E9ED;}
	.st10{fill:#FFA68F;}
	.st11{fill:#FB5252;}
	.st12{fill:#D53232;}
	.st13{fill:#CFD9E0;}
	.st14{fill:#ABFFAD;}
	.st15{fill:#4AD295;}
	.st16{fill:#5EB2FC;}
	.st17{fill:#1273EB;}
	.st18{fill:#00AF80;}
	.st19{fill:#FCD250;}
	.st20{fill:#C7FFC7;}
	.st21{fill:#69E781;}
	.st22{fill:#FCBD24;}
	.st23{fill:#FCDB7E;}
	.st24{fill:#EB7D16;}
	.st25{fill:#FF8578;}
	.st26{fill:#C12020;}
	.st27{fill:#3636CC;}
	.st28{fill:#2D2DB0;}
	.st29{fill:#EC3A3B;}
	.st30{fill:#C7EBFF;}
	.st31{fill:#92CDFA;}
	.st32{fill:#FFEEB6;}
	.st33{fill:#8080F1;}
	.st34{fill:#B3B3FC;}
</style>
<title>Group 2</title>
<desc>Created with Sketch.</desc>
<g id="Page-1">
	<g id="rediseño" transform="translate(-768.000000, -1039.000000)">
		<g id="Group-2" transform="translate(768.000000, 1039.000000)">
			<g id="Group">
				<path id="Fill-1" class="st0" d="M0,177.6c1-38,1.3-76.1,1.3-114.1c0-20.9-0.2-42.1-0.7-62.9c0-1.1,39.2-0.2,41.1-0.2
					c58,0.5,116.1,1,174.1,1.5c19.7,0.2,39.5,0.1,59.2,0.4c0,25.5,0.1,50.9,0.2,76.4c0.2,34-0.9,68.3,0.8,102.3
					c-34.6-0.5-69.3-0.4-103.9-0.5c-23.6-0.1-47.1-0.2-70.7-0.3C92.9,180,0,178.5,0,177.6"/>
				<path id="Fill-3" class="st1" d="M13,73.3c0-12.1,0.2-24.3,0.3-36.4c0.1-5.9,0.2-11.9,0.3-17.8c0-2.9-1.2-9,0.9-12.1
					c1.1,0,2.1,0.1,3.2,0.1c31.9,1,63.8,1.4,95.7,1.5c31.4,0.1,63.4-1.3,94.7,0.5c16.6,0.9,33.4,0.3,49.9-0.6c2.3,0.2,4.6,0.2,6.8,0
					c0.4,23.5-0.2,47.2-0.2,70.7c0,15.5,0,31-0.1,46.5c0,9.9,0.2,19.9,0,29.8c-0.4,5-0.5,9.9-1.2,14.9c-0.1,0.4-0.1,0.9-0.2,1.3
					c-0.9,0.2-1.8,0.4-2.7,0.6c-63.4,2.2-127-0.6-190.3-2.7c-18.4-0.6-36.7-2.4-55.1-3.1c0-1.8-0.1-3.5-0.1-5.3
					C14.5,131.8,13,102.5,13,73.3"/>
				<path id="Fill-5" class="st2" d="M25.4,157.4c0.1-2.8,0.1-5.7,0.1-8.6c-0.1-6.3-0.3-12.6-0.6-18.8c0.1-7.7,0.1-15.3,0.1-22.8
					c0.1-25.5,0.4-50.9,0.4-76.4c0.1-4.3,0.2-8.6,0.3-12.8c18.1,0.2,36.1,0.4,54.2,0.6c15.5,0.1,31.2,0.6,46.8,0.5
					c3.5,0.1,6.9,0.2,10.3,0.4c0-0.2,0-0.4,0-0.6c0.5,0,1.1,0,1.6,0c0.1,0.2,0.1,0.5,0.2,0.7c0.5,0,0.9,0,1.4,0.1
					c1.3,0.1,1.3,1.7,0,1.8c-0.3,0-0.6,0-0.9,0c2.5,10.6,3.1,22.1,3.7,32.8c0.7,13.6,0.5,27.1-0.3,40.7c-0.8,13-0.7,25.7,0.9,38.7
					c1,8.4,3.4,22.2-2.8,29.8c0.7,0.1,1.3,0.2,2,0.3c0.8,0.1,0.5,1.1-0.2,1.2c-0.7,0.1-1.3,0.1-2,0.1c-8-0.2-16-0.3-24.1-0.5
					c-3-0.1-6-0.1-9-0.2c-2.9-0.2-5.9-0.3-8.8-0.5c-15-0.6-30-1.3-44.9-2.1c-8.3-0.4-16.5-0.9-24.8-1.4c0,0,0,0,0,0
					c-1.1-0.1-2.3-0.1-3.4-0.2C25.7,159.2,25.6,158.3,25.4,157.4"/>
				<path id="Fill-7" class="st0" d="M140.9,162.4c0.7,0.1,1.3,0.2,2,0.3c0.8,0.1,0.5,1.1-0.2,1.2c-0.7,0.1-1.3,0.1-2,0.1
					c-8-0.2-16-0.3-24.1-0.5c-3-0.1-6-0.1-9-0.2c-2.9-0.2-5.9-0.3-8.8-0.5c-15-0.6-30-1.3-44.9-2.1c-8.3-0.4-16.5-0.9-24.8-1.4
					c0,0,0,0,0,0c-1.1-0.1-2.3-0.1-3.4-0.2c-0.1-0.9-0.1-1.8-0.3-2.7c0.1-2.8,0.1-5.7,0.1-8.5c-0.1-6.2-0.3-12.5-0.6-18.7
					c0.1-7.6,0.1-15.2,0.1-22.7c0-9.7,0.1-19.3,0.2-29h11.2V99h8.5v-9.1h5.8v6h7.6V90h7.6v13h9.9V85.2H85v11.7h5.3V75h9.9v11.2h13.4
					V103h8.1v-6.7h17.4v15.3h3.3c0.1,7,0.5,14.1,1.3,21.2C144.7,141.1,147.1,154.9,140.9,162.4"/>
				<path id="Fill-9" class="st3" d="M130.5,94.3c0.2-19.8-1.3-39.8,0-59.7c0.6-8.6,0.1-17.5,0-26.4c24.5-0.3,51-0.7,75.3,0.6
					c17.2,0.9,34.7,0.3,51.9-0.6c2.4,0.2,4.8,0.2,7.1,0c0.4,23.4-0.2,46.9-0.2,70.3c0,15.4,0,30.9-0.1,46.3c0,9.8,0.2,19.8,0,29.6
					c-0.4,5-0.5,9.9-1.2,14.8c-0.1,0.4-0.2,0.9-0.2,1.3c-0.9,0.2-1.9,0.4-2.9,0.6c-43.7,1.5-85.9,0.7-129.7-0.6
					C131.1,145.2,130.3,119.8,130.5,94.3"/>
				<path id="Fill-11" class="st2" d="M141,37.7c0.1-6.3,0.2-12.6,0.1-18.9c10.5,0.2,20.9,0.3,31.3,0.2c14,0,28-0.3,42-0.6
					c7-0.1,14-0.3,21-0.5c3.7-0.1,10.8,0.9,15.4,0.4c0,0,0,0.1,0,0.1c1.2,21.2,2.3,42.4,2.3,63.6c0,6.4-0.3,74.1-0.5,80.7
					c-0.1,0.2-0.1,0.5-0.1,0.8c0,0.3,0,0.5,0,0.8c-0.5,0-1,0-1.5,0c-1.2,0-2.4,0-3.6-0.1c-8.4-0.1-104.5,1-104.5,0.4
					c0,0.1,0,0.1,0,0.2c-0.3,0-0.5,0-0.8,0C142.2,150.8,142.4,74,141,37.7"/>
				<path id="Fill-13" class="st0" d="M252.7,162.9c-0.1,0.2-0.1,0.5-0.1,0.7c0,0.3,0,0.5,0,0.8c-0.5,0-1,0-1.5,0
					c-1.2,0-2.4,0-3.6-0.1c-8.4-0.1-104.6,1-104.6,0.4c0,0.1,0,0.1,0,0.2c-0.3,0-0.5,0-0.8,0c0.1-6.9,0.2-28.4,0.1-53h12V97.3h11.6
					v6.2h7.6v4.8h9.3v-8.9h8.7v8.9h5.7V88.2h14.2v15.3h7.5V77h10.5v31.3h10.5v-14h8.2V112h5.1C252.9,133.4,252.8,159,252.7,162.9"/>
			</g>
			<g id="Reunion-iconos-03" transform="translate(45.000000, 44.000000)">
				
					<g id="planta" transform="translate(372.562456, 186.403988) rotate(3.000000) translate(-372.562456, -186.403988) translate(324.062456, 88.403988)">
					<path id="Fill-1_1_" class="st4" d="M55.4,157.9c0-0.1-0.1-0.1-0.1-0.2c-0.1,0.4-0.3,0.7-0.4,0.9c0,0,0,0,0,0v37
						c0.3,0.1,0.7,0.2,1,0.3v-13.8c0-8.1,0-16.1,0-24.2C55.8,158.2,55.5,158.2,55.4,157.9"/>
					<path id="Fill-3_1_" class="st4" d="M64.6,139.9c-5.3,2.8-7.9,8.7-9.1,14.3c0-1.7,0-3.4,0.1-5.1c0.2-3.1,0.6-6.3,1.2-9.4
						c0.6-3,1.5-6,2-9.1c0.1-0.3-0.4-0.6-0.6-0.3c-2.4,5-3.2,11-3.7,16.5c0,0.3,0,0.5-0.1,0.8c0.1-4.9,0.2-9.8,0-14.7
						c0-0.4-0.5-0.3-0.5,0c-0.8,6.1-0.8,12.2-0.8,18.3c0,2.9,0,5.8,0,8.8c-0.4-2.1-1-4.1-1.6-6.1c-2.4-7.1-6.2-13.9-11.6-19.1
						c-0.2-0.2-0.4,0.1-0.3,0.3c4.6,5.9,8.3,12.3,10.6,19.5c1.1,3.5,1.9,7.1,2.3,10.7c0.2,1.8,0.3,3.6,0.3,5.4c0,0.4,0,0.7,0,1.1
						c-0.2-0.7-0.4-1.4-0.6-2.1c-1.8-5-5.9-10.5-11.7-10.4c-0.2,0-0.2,0.4,0,0.4c6,0,9.8,7.4,11.1,12.4c0.8,3,1,6.1,1.1,9.2
						c0.1,2.9-0.2,6.2,0.5,9.1c0.1,0.2,0.5,0.3,0.5,0c0.3-1.6,0.2-3.3,0.2-4.9c0-1.9,0.1-3.9,0-5.8c-0.1-1.1-0.1-2.1-0.2-3.2
						c0.1-0.1,0.2-0.2,0.2-0.3c0.5-1.9,0.5-4,0.4-6.2c0.1-0.1,0.2-0.3,0.2-0.5c0-1.9-0.1-3.8-0.1-5.8c0.1-0.1,0.1-0.2,0.2-0.4
						c0,1.5-0.1,3-0.1,4.6c0,4.4-0.2,8.9,0.2,13.3c0,0.6,0.8,0.6,0.9,0c1.2-14.1-2.5-30.5,9.2-41.2C64.9,140,64.8,139.8,64.6,139.9"
						/>
					<path id="Fill-5_1_" class="st3" d="M40.6,87c-0.4,0-0.4,0.7,0,0.7S41,87,40.6,87"/>
					<path id="Fill-7_1_" class="st3" d="M38.2,143.9c-2.8-5.3-11.2-7.6-17.1-10.6c-5.9-3-4.7-0.3-7.6-4.9c-2.9-4.6-6-7.7-10.3-10.1
						c-4.3-2.4-5.5-13.7,5.1-8.5c10.5,5.2,28.5,20.4,29.9,30C38.3,141.9,38.2,143.9,38.2,143.9"/>
					<path id="Fill-9_1_" class="st1" d="M31.2,130.8c0-0.1-0.1-0.2-0.3-0.3c-1.9-1.9-4-3.6-5.9-5.2c-0.1-0.1-0.2-0.2-0.3-0.2
						c-0.5-0.4-0.9-0.8-1.4-1.2c-3.3-2.9-6.5-5.9-10.2-8.3c-1.2-0.8-2.5-1.5-3.8-2.2c0,0,0,0,0,0c-2.6-1.3-5.3-2.4-8-3.4
						c-0.2-0.1-0.3,0.2-0.1,0.3c2.4,1.1,4.8,2.1,7.1,3.3c-0.7,0.3-1.3,0.7-1.9,1c-1.2,0.5-2.6,0.6-3.9,0.5c0,0,0,0,0,0.1
						c1.3,0.5,2.5,0.6,3.9,0.4c1-0.1,2.4-0.5,2.9-1.4c1,0.6,2,1.1,3,1.8c1.3,0.9,2.6,1.9,3.9,2.9c0,0-0.1,0-0.1,0
						c-0.9,0.2-1.7,0.7-2.7,0.9c-1.2,0.3-2.3,0.3-3.5,0c-0.1,0-0.2,0.2-0.1,0.2c2,0.6,4.9,1.1,6.5-0.6c0.1-0.1,0.1-0.2,0.1-0.4
						c0.9,0.7,1.8,1.5,2.7,2.3c-0.4,0.9-0.2,2.1-0.5,3.1c-0.4,1.4-1,2.8-2,3.9c-0.1,0.1,0,0.3,0.1,0.2c1.3-0.9,2.2-1.9,2.8-3.4
						c0.3-0.8,0.6-2,0.4-3c0.8,0.7,1.5,1.3,2.3,2c0.6,0.5,1.2,1,1.8,1.5c0,0,0,0,0,0.1c0.5,2.4-0.2,4.8-1.5,6.8
						c-0.1,0.2,0.1,0.3,0.3,0.2c1.9-1.5,2.6-3.8,2.4-6.1c1.7,1.5,3.4,3,5,4.6c0,1.8-0.5,3.3-1.4,4.8c-0.1,0.2,0.1,0.3,0.3,0.2
						c1.2-1,1.8-2.6,2-4.1c2.4,2.7,3.9,5.5,4.8,9c0.1,0.2,0.4,0.2,0.4-0.1C36.4,137.2,34.1,133.8,31.2,130.8"/>
					<path id="Fill-11_1_" class="st1" d="M41.6,137.7c-15.1-5.9-11.9-8.3-16.5-11.6c-4.5-3.3-9.6-7.6-8.8-15.7c0.8-8.1,6-6,9.6-6
						c3.7,0,6.2-11,10.1-10.8c3.9,0.2,6.4,11.9,7.3,18.5c0.9,6.6,2.7,5.8,0.1,15.2C40.9,136.6,41.6,137.7,41.6,137.7"/>
					<path id="Fill-13_1_" class="st5" d="M41.7,123.4c0.1-0.1-0.1-0.3-0.2-0.2c-0.9,1.1-1.7,2.1-2.5,3.3c-0.6,0.8-1.3,1.7-1.8,2.6
						c-0.6-1.5-1.3-2.9-1.9-4.4c1.1-2.7,2.6-5.4,4.7-7.5c0.1-0.1-0.1-0.2-0.2-0.2c-2,1.9-3.8,3.9-5.1,6.3c-0.4-1.1-0.9-2.2-1.2-3.4
						c-0.1-0.2-0.1-0.3-0.1-0.5c1.2-1.2,2-2.8,2.7-4.2c1.1-2,2.3-3.9,3.6-5.8c0.1-0.1-0.1-0.2-0.2-0.2c-1.6,1.3-2.7,3.2-3.8,4.8
						c-0.9,1.3-1.9,2.5-2.8,3.8c-0.8-3.3-1.1-6.4-1.1-9.7c0.4-0.6,0.7-1.2,1.1-1.8c1.1-1.6,2.8-4.5,4.8-5c0.1,0,0.1-0.2,0-0.2
						c-1.4-0.4-2.4,0.8-3.2,1.7c-0.9,1-1.8,2.1-2.6,3.2c0.1-1.2,0.2-2.4,0.4-3.7c0.1-0.3-0.4-0.5-0.5-0.1c-0.6,1.8-0.9,3.7-1.1,5.6
						c-0.9,1.6-1.8,3.4-3.4,4.3c-1.8,1-4.1,0.9-6,1.6c-0.6,0.2-0.3,1.1,0.2,0.9c3.1-1.2,6.4-0.6,8.5-3.7c0.2-0.3,0.4-0.7,0.7-1
						c0.1,2.9,0.5,5.9,1.2,8.6c-2.4,1.5-5.3,0.8-8.1,1c-0.1,0-0.2,0.2,0,0.2c2,0.3,4.2,0.6,6.3,0.5c0.7,0,1.3-0.2,1.8-0.5
						c0.1,0.1,0.3,0.2,0.5,0.2c0.4,1.4,0.8,2.9,1.3,4.3c-0.8,0-1.5,0.2-2.3,0.2c-1.5-0.1-2.8-0.5-4.1-1.3c-0.2-0.1-0.3,0.2-0.2,0.3
						c1.3,0.9,2.6,1.5,4.1,1.7c0.9,0.1,1.9,0.3,2.7,0c0.5,1.5,1.2,3,1.9,4.4c-1.4-0.1-2.8-0.3-4.1-0.9c-0.1,0-0.2,0.1-0.1,0.2
						c1.4,0.9,3,1.7,4.7,1.7c0.8,1.6,1.8,3.2,2.8,4.7c0.1,0.2,0.5,0.1,0.4-0.2c-0.5-1.7-1.2-3.4-1.9-5.1c0.8-0.9,1.2-2.2,1.8-3.2
						C40.2,125.8,41,124.6,41.7,123.4"/>
					<path id="Fill-15" class="st1" d="M34.4,111.4c-0.8-17.9,1.4-21.1-10.2-29C12.6,74.5,6.5,58.9,11.9,56.5
						c5.4-2.4,6.3,12.8,11.9,16c5.5,3.2,14.3-1.7,15.8,4.5c1.5,6.1,7.6,1.7,8.9,8.8c1.3,7.1-7.9,9.3-8,17.6
						C40.4,111.6,37.4,119.3,34.4,111.4"/>
					<path id="Fill-17" class="st5" d="M43.5,90.3c-0.4-2.2-2-4.3-3-6.3c-1-2.1-2-4.3-3.9-5.7c-3.7-2.7-8.6-0.7-12.4-3
						c-2.2-1.3-3.6-3.8-4.8-6c-1.5-2.8-3-5.6-4.2-8.5c0-0.1-0.2-0.1-0.2,0.1c0.4,1.3,0.9,2.6,1.4,3.9c-0.7-0.2-1.5-0.2-2.2-0.6
						c-0.9-0.4-1.7-1-2.4-1.7c-0.1-0.1-0.3,0-0.2,0.1c1.1,1.5,3.1,2.9,5,2.8c0.5,1.3,1.1,2.7,1.8,4c0,0-0.1,0-0.1,0
						c-0.6-0.1-1.1,0.1-1.7,0c-0.6,0-1.3-0.1-1.9-0.2c-0.1,0-0.2,0.1-0.1,0.2c1.1,0.5,2.6,1,3.7,0.6c0.1,0,0.2-0.1,0.2-0.2
						c0.9,1.7,1.9,3.3,3.1,4.7c0.4,0.5,0.9,0.9,1.4,1.3c-0.7,0-1.4,0.2-2.2,0.2c-0.9,0-1.7-0.2-2.5-0.7c-0.1,0-0.2,0.1-0.1,0.1
						c1.2,1.1,3.6,2,5,0.6c0.1-0.1,0.1-0.1,0-0.2c2.5,1.7,5.6,1.7,8.6,2.2c-2.5,1.6-5.2,2.3-8.2,2.1c-0.1,0-0.1,0.1,0,0.1
						c3.1,1.2,6.7,0.4,9-2c0,0,0-0.1,0.1-0.1c0.2,0,0.4,0.1,0.6,0.1c1.9,0.5,3.2,1.7,4.2,3.1c-2.4,1-4.6,2.2-7.3,2.5
						c-0.2,0-0.2,0.3,0,0.3c2.7,0.2,5.7-0.2,7.8-2.1c0.3,0.5,0.6,1,0.8,1.5c0.7,1.3,1.4,2.6,2.1,3.8c0.2,0.5,0.5,0.9,0.7,1.3
						c0,0-0.1,0-0.1,0c-1,0.4-1.7,1-2.8,1.1c-1.2,0.2-2.3-0.1-3.3-0.8c-0.2-0.1-0.4,0.2-0.2,0.3c1.8,1.4,5.2,1.9,6.8-0.1
						c0.4,0.9,0.6,1.9,0.3,3c-1.2,4.2-4.4,8.4-2.3,12.8c0.1,0.2,0.4,0.1,0.4-0.2c-1-3.1-0.2-6,1.1-8.8
						C42.3,94.4,43.9,92.3,43.5,90.3"/>
					<path id="Fill-19" class="st5" d="M48.6,112.7c-7.9-4-12.6-0.8-11.6-9.1c0.9-8.3,2.1-4.6-0.9-10.3c-3.1-5.7-6-5.1-2.3-9.7
						c3.8-4.5,1-3.8,3-7.1c2-3.3,1.4-1.8,6.8-3.3c5.4-1.5,8.1-4.4,8.1-4.4s4.3,3.3,6.1,7.2c1.8,3.8,6.3,6.5,3.8,11.7
						c-2.4,5.2,2.2,10,1.3,12.6c-0.9,2.6-1.2,2.4-3.2,4.5c-1.9,2.1-3.2,4.2-3.7,6.1S48.6,112.7,48.6,112.7"/>
					<path id="Fill-21" class="st4" d="M52.6,102.3c-0.1-3.2-0.4-6.4-1.3-9.6c-0.8-2.7-2.2-5.2-3.8-7.5c2.1-3,1.6-6.8,1.3-10.2
						c0-0.1-0.2-0.1-0.2,0c0.1,3.2-0.2,6.5-1.8,9.3c-1.6-2.1-3.3-3.9-5.2-5.7c-0.2-0.2-0.5,0.1-0.3,0.3c1.5,1.6,2.9,3.4,4.2,5.2
						c-2.8,0.5-5,3.3-7.9,3c-0.2,0-0.2,0.3,0,0.3c1.6,0.4,2.9-0.1,4.3-0.7c1.3-0.5,3-1,4.1-1.9c1.3,1.9,2.4,3.9,3.3,6.1
						c-0.4,0.5-0.7,1-1.2,1.4c-0.9,0.7-2,1-3.1,1.1c-1.7,0.2-3.4,0-5.1,0.1c-0.2,0-0.3,0.4-0.1,0.4c2.3,0.3,4.8,0.9,7.1,0.3
						c1.1-0.3,2.3-0.9,2.9-1.9c0.2,0.7,0.5,1.4,0.6,2.2c0.3,1.4,0.6,2.8,0.8,4.2c-0.1,0-0.1,0-0.2,0c-1.7,0.7-2.9,1.6-4.8,1.7
						c-2,0.1-3.9-0.4-5.8-0.6c-0.2,0-0.2,0.2-0.1,0.3c2,1,4.4,1.7,6.7,1.4c1.5-0.1,3.4-0.6,4.3-2c0.2,1.6,0.4,3.2,0.5,4.8
						c0.1,0.8,0.1,1.6,0.2,2.4c-0.2-0.1-0.4-0.2-0.6-0.1c-2.8,1.3-7.7,0.3-10-1.6c-0.1-0.1-0.3,0.1-0.2,0.2c1.6,1.5,3.5,2.1,5.7,2.7
						c1.7,0.4,3.8,0.9,5.2-0.4c0,0,0,0,0-0.1c0.2,1.9,0.6,3.8,1.4,5.6c0.1,0.2,0.4,0,0.3-0.1C53.4,109.3,52.8,105.9,52.6,102.3"/>
					<path id="Fill-23" class="st1" d="M54.4,111c-5.9-2.6-1.8-7.3-0.7-11.8c1.1-4.5-1.1-7.2-0.4-11.7C53.9,82.9,58.6,75,64,74
						c5.4-1,7.5-5.9,10.3-10.1c2.7-4.2,20.1-5.3,21.6-2.1c1.5,3.2,0,1.8-4.3,7.1c-4.2,5.3-13.5,17.9-21.5,22.5
						C62.1,96.1,60.2,112.4,54.4,111"/>
					<path id="Fill-25" class="st5" d="M91.8,62.1c-2.5,0.4-5,1.1-7.4,2c0-0.3,0-0.6,0.1-0.9c0.3-0.8,0.6-1.6,1.1-2.3
						c0.1-0.1-0.1-0.2-0.1-0.1c-0.6,0.7-1.1,1.3-1.4,2.2c-0.2,0.5-0.5,1-0.6,1.5c-0.9,0.4-1.9,0.9-2.8,1.3c-1.5,0.8-2.9,1.7-4,3
						c-0.3,0.4-0.5,0.7-0.8,1.1c0-0.7,0.1-1.4,0.2-2c0.3-1.4,0.9-2.7,1.5-4c0.1-0.2-0.1-0.4-0.3-0.2c-1.6,1.9-3.2,5.5-2.2,8
						c0,0,0,0,0,0c-0.2,0.5-0.4,1.1-0.5,1.6c-0.4,1.1-0.9,2-1.4,2.9c-0.5-0.4-0.9-0.6-1.1-1.3c-0.2-0.7-0.1-1.5-0.1-2.2
						c0-1.3,0.2-2.5,0.3-3.8c0-0.1-0.2-0.1-0.2,0c-0.6,1.7-1.2,4.3-0.9,6.1c0.1,0.8,0.7,1.7,1.5,1.8c-1.3,1.7-3.1,3-5.2,3.9
						c-0.4-0.6,0.1-1.9,0.2-2.4c0.2-0.9,0.7-2,1.6-2.5c0.2-0.1,0-0.4-0.2-0.3c-1.4,0.6-2.1,1.6-2.5,3.1c-0.1,0.6-0.4,1.8-0.1,2.5
						c-1.4,0.5-2.9,1.1-4.1,2c0-0.7-0.1-1.4-0.1-2.1c0-1.2,0-2.4-0.1-3.6c0-0.1-0.1-0.1-0.1,0c-0.5,1.8-0.9,4.5-0.5,6.4
						c-0.4,0.4-0.7,0.9-0.9,1.6c0,0.2,0.2,0.3,0.3,0.2c0.3-0.3,0.6-0.6,0.9-0.9c1.1,3.1,5.6,4.2,8.4,3.5c0.2,0,0.1-0.3-0.1-0.3
						c-1.6,0.3-3.4-0.1-4.8-1c-1.2-0.8-1.9-1.8-2.7-2.9c1.4-1,2.9-1.6,4.5-2.2c0,0,0,0,0,0c0.2,0,0.4,0,0.5-0.2
						c0.2-0.1,0.4-0.1,0.5-0.2c0,0,0,0,0,0c1.5,2.2,3.5,3.6,6.1,4.2c0.1,0,0.1-0.1,0-0.1c-2.2-0.8-4.2-2.4-5.5-4.4
						c2-1,3.7-2.4,5-4.2c1.9,1.5,4.2,2.5,6.6,2.4c0.2,0,0.2-0.2,0-0.3c-2.3-0.5-4.4-1.2-6.2-2.7c0.1-0.2,0.2-0.4,0.4-0.6
						c0.6-1.2,1-2.5,1.5-3.7c2.9,1.3,6.2,1.2,9.1-0.2c0.2-0.1,0.1-0.4-0.1-0.3c-2.9,1-5.9,0.9-8.7-0.2c0-0.1,0.1-0.2,0.1-0.3
						c0.9-1.9,2.6-3,4.3-4c0.6-0.4,1.3-0.8,2-1.1c2.2,1.4,5.7,0.8,8,0.2c0.1,0,0.1-0.2-0.1-0.2c-1.5,0.3-3.1,0.3-4.6,0.1
						c-0.8-0.1-1.6-0.3-2.4-0.5c0,0,0.1,0,0.1-0.1c0,0,0,0,0,0c2.5-1.2,5.1-2.1,7.8-2.8C92.2,62.3,92.1,62,91.8,62.1"/>
					<path id="Fill-27" class="st3" d="M56.5,78.3c-3.7-2.2-2.9-6.9-1.1-12.4c1.8-5.5-3.3-16.8,1.4-17.8c4.7-1,8,1.5,11.3-1.4
						c3.4-2.9,11.8-9.3,15.9-7.2c4,2.2,6.7,1.8-0.7,5.1c-7.4,3.3-8.5,10.5-11.8,13.1c-3.3,2.5-5.4,7.8-8.6,12.8
						C59.9,75.5,58.3,79.4,56.5,78.3"/>
					<path id="Fill-29" class="st1" d="M83.9,41.4C83.9,41.4,83.9,41.4,83.9,41.4C83.9,41.3,83.9,41.3,83.9,41.4
						c0-0.1-0.1-0.1-0.1-0.1c-1.2-1-4,0.9-5.1,1.5c-2.5,1.3-4.8,2.9-7,4.7c-2.4,1.9-4.7,4.2-6.6,6.8c-0.1,0-0.1,0.1-0.1,0.2
						c-1.4,1.8-2.6,3.8-3.4,5.8c-0.5,0.1-0.6,0.8-0.1,0.9c1.7,0.3,3.3,0.1,4.9-0.2c0.8-0.2,2-0.4,2-1.4c0-0.2-0.2-0.2-0.3-0.1
						c-0.5,1-2.2,0.8-3.2,0.9c-0.9,0.1-1.8,0.1-2.6,0c1.2-1.7,2.4-3.4,3.7-5.1c2.1,0.9,5,0.4,6.8-0.8c0.1-0.1,0.1-0.3-0.1-0.3
						c-1.2,0.4-2.4,0.7-3.6,0.7c-0.9,0-1.7-0.2-2.5-0.4c1.3-1.6,2.6-3.1,4.1-4.5c1.5,1,3.9,0.7,5.2-0.2c0.1-0.1,0-0.2-0.1-0.2
						c-0.9,0.2-1.9,0.4-2.9,0.3c-0.6-0.1-1.1-0.3-1.7-0.5c1.4-1.3,2.9-2.5,4.5-3.6c0,0,0,0,0.1,0c2.3,0.1,4.6-0.5,6.3-2.2
						c0.1-0.1,0-0.2-0.1-0.1c-1.6,0.9-3.3,1.5-5.2,1.6c1-0.7,2-1.3,3.1-1.8c0.7-0.4,3.1-2.1,3.8-1.5c0,0,0.1,0.1,0.1,0.1
						c0,0,0,0,0,0c0,0.1,0.1,0.1,0.1,0c0,0,0-0.1,0-0.1C84,41.6,84,41.5,83.9,41.4"/>
					<path id="Fill-31" class="st3" d="M48.8,76.4c-7.1-3.4-8.3-4.3-7.7-15.7c0.6-11.3-2.5-17.4-11.7-21.6
						c-9.2-4.2-21.5-18.4-17-25.5s6.5,4.4,6.5,4.4c1.5-5.9,11.4-1.6,15.5,10.6c4.1,12.2,16.7,10.5,17.8,24.6
						C53.4,67.3,51.5,77.8,48.8,76.4"/>
					<path id="Fill-33" class="st1" d="M47.4,43.4c0-0.1-0.2-0.2-0.2,0c-0.2,0.6-1.3,0.5-1.7,0.4c-0.4-0.1-0.9-0.2-1.3-0.3
						c-0.8-0.3-1.6-0.6-2.3-1c-1.5-0.8-2.9-1.9-4.1-3.2c-2.4-2.6-4-5.9-5.5-9.1c-1-2.2-2-4.5-4.4-5.5c-1.5-0.6-3.1-0.6-4.6-1.2
						c-2.3-0.9-3.7-2.7-3.3-5.2c0-0.2-0.2-0.3-0.3-0.1c-0.8,1.4-0.6,2.8,0.2,3.9c-1-0.4-2-0.7-2.9-1.6c-1.3-1.3-2-3-2-4.7
						c0-0.1-0.2-0.1-0.2,0c-0.1,1.9,0.4,3.6,1.6,5.1c1,1.2,2.8,2.7,4.5,2.4c0,0,0,0,0,0c0.9,0.8,1.9,1.3,2.9,1.7
						c1.3,0.4,2.6,0.6,3.7,1.1c-0.6,0.1-1.3,0.3-1.8,0.4c-2.5,0.5-5,1.1-7.2-0.6c-0.1-0.1-0.3,0-0.2,0.2c0.9,1.3,2.3,1.8,3.8,1.9
						c0.9,0.1,1.8-0.1,2.7-0.2c0.9-0.1,3.2-0.9,4.3-0.5c0.2,0.2,0.4,0.4,0.5,0.7c0.9,1.3,1.5,2.8,2.1,4.2c-0.4-0.2-0.8-0.3-1.1-0.5
						c-2.7-0.8-5.6,0.7-8.2-0.3c-0.2-0.1-0.3,0.2-0.1,0.3c1.7,1.1,3.4,0.9,5.3,0.8c2-0.1,3.7,0.3,5,1.4c1,1.9,2.3,3.7,3.8,5.3
						c-1.7-0.8-3.7-0.9-5.6-0.8c-0.1,0-0.1,0.2,0,0.2c2.7,0.1,5.3,1.3,7.7,2.6c0.6,0.5,1.2,1,1.9,1.4C41.2,42.9,47.6,46.1,47.4,43.4
						"/>
					<path id="Fill-35" class="st3" d="M52.6,65.2c-7.2-2.1-15.5-6.8-10.9-21.7s1-17-0.6-24.4s3.8-20.3,8.3-19
						c4.5,1.3,2.1,4.1,2.1,4.1C64,4,68.5,16.3,66.1,29.1c-2.4,12.8,6.2,11.9,0.4,22.7C60.6,62.6,52.6,65.2,52.6,65.2"/>
					<path id="Fill-37" class="st1" d="M63.4,37.1c-1.3,1.6-3.4,2.1-5.3,2.1c-1.6,0.1-3.1-0.4-4.7-0.6c0-1.8,0.1-3.7,0.2-5.5
						c1,0.7,2.5,1,3.5,0.8c2.3-0.2,3.5-2,4.4-3.9c0-0.1-0.1-0.1-0.1-0.1c-1.1,1.5-2.6,2.9-4.6,3c-1.3,0-2.2-0.6-3.2-1.1
						c0.1-2.4,0-4.7-0.7-6.9c3.6,1,8.4,0.5,9.7-3.5c0-0.1-0.1-0.2-0.2-0.1c-1.9,3.5-6.4,3.4-9.8,2.8c-0.8-2.2-1.9-4.2-2.5-6.4
						c1.7,1.2,3.7,2.1,5.7,1.5c1.9-0.6,2.9-2.1,3.1-4c0-0.2-0.3-0.2-0.3,0c-0.4,1.8-2,3.3-3.9,3.4c-1.8,0.1-3.3-0.9-4.8-1.7
						c0-0.1-0.1-0.2-0.1-0.3c-0.3-1.7-0.4-3.4-0.4-5c1.8,0.7,3.8,1.1,5.6,0.3c1.5-0.7,2.8-2,3-3.6c0-0.1-0.1-0.1-0.2,0
						c-1.7,3.1-5.2,3.3-8.3,2.7c0.1-1.3,0.3-2.6,0.5-4c0.1-0.3-0.4-0.5-0.5-0.1c-0.4,1.1-0.6,2.4-0.7,3.6c-0.5-0.4-0.9-0.8-1.2-1.3
						c-0.4-0.7-0.6-1.5-0.7-2.3c0-0.1-0.2-0.1-0.2,0c-0.4,1.4,0.4,3.3,1.7,4.1c-0.1,0.1-0.1,0.2,0.1,0.3c0.1,0,0.2,0.1,0.3,0.1
						c-0.1,1.4,0,2.9,0.2,4.2c0.1,0.4,0.1,0.7,0.2,1.1c0,0-0.1-0.1-0.1-0.1c-2-0.9-4.3-1.7-4.6-4.2c0-0.2-0.2-0.2-0.2,0
						c-0.3,2.7,2.4,4.1,4.6,4.9c0.2,0.1,0.3,0,0.4-0.2c0,0,0,0,0,0c0,0,0,0,0.1,0.1c0.6,2.3,1.5,4.4,2.3,6.7
						c0.1,0.2,0.1,0.4,0.2,0.5c0,0,0,0.1,0,0.1c0,0,0,0.1,0,0.1c0,0,0,0,0,0c0,0-0.1-0.1-0.1-0.1c-0.9-0.5-2-0.5-2.9-0.8
						c-1.3-0.4-2.4-1.2-3.2-2.2c-0.1-0.1-0.3,0-0.2,0.2c1.1,1.7,3.9,4.2,6.1,3.4c0.2,0,0.3,0,0.5,0c0.5,2.1,0.5,4.3,0.5,6.5
						c-0.3,0.1-0.6,0.1-0.9,0.1c-0.6,0-1.3-0.3-1.9-0.5c-1.3-0.4-2.6-1.4-3.2-2.6c0-0.1-0.2,0-0.2,0.1c0.4,1.6,1.2,2.7,2.8,3.4
						c1,0.4,2.3,0.6,3.4,0.2c-0.1,2-0.1,4.1,0.1,6.1c0,0,0,0-0.1,0c-0.3,0-0.4,0.2-0.3,0.5C51,39,50.2,39,49.3,38.6
						c-1.1-0.4-2-1.1-2.7-2c-0.1-0.1-0.3,0-0.3,0.2c0.5,2.5,4,4.3,6.2,2.7c0.1,0.9,0.4,1.8,0.7,2.7c0.1,0.3,0.5,0.2,0.4-0.1
						c-0.1-0.8-0.2-1.6-0.2-2.4c1.8,0.6,4,0.6,5.7,0.4c2-0.3,3.6-1.1,4.6-2.8C63.8,37.1,63.5,36.9,63.4,37.1"/>
					<path id="Fill-39" class="st5" d="M58,143.1c-3.5,4.7-9.2,0.3-7.3-6.2c0.8-2.9-1.5-2-3.4-0.7c-1.8,1.3-4-4.9-3.1-11.9
						c0.8-7-8.4-9.5-7.2-13.3c1.2-3.7,3.2-5.7,9,0.1c5.8,5.8,10.3,16.1,11.2,22.2C58.1,139.3,59.1,141.6,58,143.1"/>
					<path id="Fill-41" class="st4" d="M49.1,123c-0.5-0.2-1.1,0.1-1.6,0.3c-0.6,0.2-1.3,0.3-1.9,0.5c-0.2,0.1-0.1,0.3,0,0.3
						c0.6,0.1,1.3,0,1.9-0.2c0.5-0.1,1.2-0.2,1.6-0.6C49.3,123.2,49.2,123.1,49.1,123"/>
					<path id="Fill-43" class="st4" d="M57.5,139.3c-2.9,1.2-2.9-5.1-3.5-6.6c-0.5-1.3-1.5-2.3-2.7-3c0-0.8,0-1.6-0.1-2.4
						c0.5,0,1.1,0.1,1.6,0.3c0.9,0.4,1.5,1.1,2.1,1.8c0.1,0.2,0.4,0,0.3-0.2c-0.4-1.5-2.5-3.1-4.2-2.9c-0.1-0.6-0.3-1.2-0.6-1.8
						c-1-2.4-2.1-4.8-3.4-7.1c0.2-0.1,0.3-0.4,0-0.5c-0.1,0-0.3-0.1-0.4-0.1c-0.1-0.1-0.1-0.2-0.2-0.3c0-0.1-0.1,0-0.1,0.1
						c0,0.1,0.1,0.2,0.1,0.2c-1.1-0.3-2.2-0.1-3.4,0.1c-0.1,0-0.1,0.1,0,0.1c1.2-0.1,2.5,0.2,3.7,0.5c0.3,0.7,0.6,1.5,1,2.2
						c-1,0-1.9,0.3-2.7,0.8c-0.1,0.1,0,0.3,0.1,0.2c0.8-0.4,1.7-0.6,2.6-0.5c0.1,0,0.1,0,0.1,0c0.7,1.5,1.3,3,1.8,4.6
						c0.2,0.6,0.3,1.2,0.5,1.8c-0.1,0-0.2,0.1-0.3,0.1c0,0-0.1,0.1-0.1,0.1c-0.4,0.1-0.9,0.2-1.3,0.2c-0.9,0.1-1.7,0-2.5-0.2
						c-0.1,0-0.2,0.1-0.1,0.2c1.2,0.7,3.1,1.1,4.4,0.5c0.1,0.7,0.1,1.3,0.2,2c-0.2,0.1-0.2,0.3,0,0.4c0,0,0,0,0,0c0,0.3,0,0.5,0,0.8
						c0,0-0.1,0-0.1,0.1c-1.2,2.1-2.9,1.3-4.7,0.7c-0.1,0-0.1,0.1-0.1,0.1c0.9,0.7,2.2,1.4,3.4,1.1c0.6-0.1,1.1-0.4,1.5-0.8
						c0,0.6,0.1,1.1,0.1,1.7c0,0.3,0.4,0.3,0.4,0c0-1.1,0-2.2,0.1-3.3c1.2,0.9,2,2,2.4,3.6c0.4,1.4,0.3,2.9,0.9,4.3
						c0.5,1.3,1.8,2.5,3.1,1.3C57.7,139.5,57.6,139.3,57.5,139.3"/>
					<path id="Fill-45" class="st3" d="M41.3,111.9c3.8,1.8,6.1,5.5,8.1,8.4c3.2,4.5,5.8,7.8,7.8,12.9c-0.9-6.1-5.5-16.3-11.2-22.1
						c-5.8-5.8-7.7-3.8-9-0.1c-0.2,0.5-0.1,1,0.1,1.6C37.1,110.7,38.9,110.8,41.3,111.9"/>
					<path id="Fill-47" class="st1" d="M46.5,112.2c-1.1-1.3-2.3-3.5-4-4.1c-0.7-0.4-1.6-0.5-2.2-0.1c-1,0.6-1.1,2.3-0.9,3.4
						c0,0.1,0.2,0.1,0.2,0c0.2-1,0.1-1.8,1-2.6c0.3-0.3,0.7-0.4,1-0.3c0,0,0,0,0.1,0c0.3,0,0.7,0.2,1,0.3c1.5,0.8,2.7,2.8,3.6,3.9
						c1.3,1.7,2.3,3.3,3,5.3c0,0.1,0.2,0.1,0.2,0C49.5,115.8,47.9,113.9,46.5,112.2"/>
					<path id="Fill-49" class="st1" d="M56.1,133.1c-4.7-4.1-1.2-16.3,3.2-21.8c4.4-5.5,4.8-19.7,12.8-18.3c8.1,1.4,4.5,6.6,4.5,6.6
						s8.6-6.5,12-0.2c3.4,6.3,0.2,11.7-3.3,9.1c-3.5-2.7-10.8,6.4-14,12.6C68,127.3,58.8,135.5,56.1,133.1"/>
					<path id="Fill-51" class="st5" d="M81.7,99c-1.3-0.1-2.6,0.3-3.8,0.6c-1.7,0.4-3.2,0.6-4.9,0.6c0.2-1.2,0.2-2.7-0.2-3.7
						c-0.3-0.9-1.1-1.6-2-1.1c-0.1,0.1-0.1,0.3,0.1,0.3c2.2,0,1.2,3.9,1,5.4c-0.5,0.3-0.9,0.7-1.2,1c-0.4,0.4-0.8,0.8-1.1,1.3
						c0.2-0.8-0.1-1.8-0.4-2.5c-0.5-1.1-1.2-1.9-2.2-2.5c-0.1,0-0.2,0.1-0.1,0.1c0.8,0.7,1.4,1.6,1.8,2.6c0.3,0.9,0.2,1.8,0.4,2.7
						c0,0.1,0.1,0.1,0.1,0.1c-0.8,1.1-1.5,2.2-2.2,3.4c-0.1-1.3-0.8-2.6-2.1-3c-0.2-0.1-0.3,0.2-0.1,0.3c1.6,0.8,1.6,2.3,1.6,3.8
						c-0.3,0.5-0.5,0.9-0.8,1.4c-1.5,2.6-2.7,5.4-3.8,8.2c-1.2,3.1-2.3,6.2-5,8.2c-0.1,0.1,0,0.3,0.1,0.2c0.3-0.2,0.6-0.5,1-0.8
						c0.1,0.3,0.5,0.6,0.8,0.6c1.3,0.3,2.8-0.2,4.2-0.2c0.1,0,0.1-0.2,0-0.2c-0.7,0-1.4-0.1-2.1-0.1c-0.3,0-2.4,0-2.3-0.4
						c0-0.1,0-0.2-0.1-0.2c1-1,1.7-2.1,2.4-3.3c0,0,0,0.1,0.1,0.1c1,1.2,3.2,0.3,4.4-0.1c1.4-0.5,2.5-1.2,3-2.6
						c0-0.1-0.1-0.1-0.1-0.1c-1.3,2.3-4.7,2.7-7,2.3c-0.1,0-0.1,0-0.1,0c1.1-1.9,1.9-4,2.8-6c1.7,0.5,3.2,0.7,4.9,0.1
						c1.5-0.5,2.9-1.5,4.1-2.5c0.1-0.1,0-0.2-0.1-0.2c-1.3,0.6-2.5,1.4-3.9,1.8c-1.6,0.4-3.1,0.3-4.6,0c0.1-0.3,0.3-0.5,0.4-0.8
						c0.8-1.5,1.6-3,2.5-4.4c1.7,0.7,3.6,1.3,5.4,1c2.1-0.4,3.9-1.5,5.5-2.9c0.1-0.1-0.1-0.3-0.2-0.2c-2.6,2.2-7.2,2.8-10.3,1.6
						c0.5-0.9,1.1-1.8,1.7-2.6c0.8-1.2,1.6-2.6,2.7-3.7c1,1.2,2.6,2,4.1,2.4c2.4,0.6,4.8-0.1,7.2-0.3c0.2,0,0.2-0.3,0-0.3
						c-2.1-0.2-4.3,0.3-6.4-0.2c-1.7-0.4-2.9-1.3-4.2-2.2c0.5-0.4,1-0.8,1.5-1c4.2,0.5,8.6-3.4,12.1,0.6c0.1,0.1,0.3,0,0.2-0.1
						C85.3,99.8,83.4,99.1,81.7,99"/>
					<path id="Fill-53" class="st3" d="M59.7,145.3c1.3-13.6,10.2-18.8,13.1-19.8c2.9-1,3.8-4,5.9-3.2s1.1,3,3.4,1.7
						c2.3-1.3,7.2-4.6,11.7-1.8c2.2,1.1-6.5,9.2-8.4,9.7c-1.9,0.5-9.4-0.4-14.3,5.8c-4.8,6.2-2.8,0.5-5.2,2.9
						c-2.4,2.4-3,3.2-4.5,4.5C59.9,146.3,59.4,148.2,59.7,145.3"/>
					<path id="Fill-55" class="st1" d="M91.1,121.6c-3.3,0.5-6.6,1.9-9.5,3.4c-1.5,0.7-2.8,1.6-4.1,2.6c-0.2,0.1-0.4,0.3-0.7,0.4
						c-0.1,0.1-0.2,0.2-0.2,0.2c0,0,0,0,0,0c-0.5-0.6,0.5-2.9,0.6-3.5c0-0.2-0.2-0.3-0.3-0.1c-0.3,0.5-0.5,1.1-0.7,1.7
						c-0.2,0.6-0.7,1.3-0.7,1.9c0,0.3,0.1,0.5,0.3,0.7c-0.9,0.8-1.7,1.6-2.5,2.6c-0.3,0.3-0.6,0.7-0.9,1c-0.3-0.3-0.1-2.5,0-2.7
						c0.2-0.9,0.5-1.8,0.9-2.7c0-0.1-0.1-0.2-0.1-0.1c-0.9,1.5-1.7,3.3-1.8,5.1c0,0.4,0.2,0.9,0.4,1.2c-0.6,0.7-1.3,1.4-2.1,2
						c-2.9,0.6-0.8-5-0.3-6.1c0-0.1-0.1-0.2-0.2-0.1c-0.9,1.4-2.1,3.5-1.8,5.2c0.1,0.8,0.6,1.4,1.3,1.7c-1,0.7-1.9,1.3-2.9,1.9
						c-0.2,0.1-0.4,0.3-0.6,0.4c-1.3-0.9-0.8-3.7-0.4-4.9c0.1-0.1-0.2-0.2-0.2-0.1c-0.7,1.4-1.3,2.9-0.8,4.5c0.1,0.4,0.3,0.8,0.6,1
						c-1.5,1.2-2.9,2.7-3.4,4.6c0,0.2,0.2,0.3,0.3,0.1c0.9-2,2.4-3.3,4.1-4.4c0.1,0,0.2-0.1,0.3-0.2c0,0,0-0.1,0.1-0.1
						c0.5-0.3,1-0.7,1.6-1c0.9-0.6,1.8-1.2,2.6-1.8c0,0,0,0,0,0c0.1-0.1,0.2-0.1,0.3-0.2c1.1-0.9,2.1-1.8,3.1-2.9
						c2.9-2.3,6.3-4.2,10.2-2.6c0.1,0,0.2-0.1,0.1-0.2c-2.5-1.2-5.2-1-7.6,0.1c1-1,2.1-1.8,3.3-2.6c1.2-0.5,2.3-1,3.6-1.3
						c2.1-0.5,4.1-0.5,6.2-0.4c0.2,0,0.2-0.3,0-0.3c-2-0.3-4.3-0.3-6.5,0.1c2.8-1.3,5.9-2.1,8.6-3.5
						C91.8,122.1,91.5,121.6,91.1,121.6"/>
					<path id="Fill-57" class="st3" d="M47.3,162.9c-0.8-8-2.5-5.8,2.3-11.2c4.8-5.5-2.5-10.4-6.2-12.1c-3.7-1.7-16.2-17.8-22.8-3.5
						c-3-4.5-14.2-6.7-10.9,5.4c3.3,12.1,6.3,4.6,8.2,8.8c2,4.3,10.2,3.7,13.1,6.6c2.8,2.9,3.5,8.3,8.5,6.2
						C44.5,161,47.3,162.9,47.3,162.9"/>
					<path id="Fill-59" class="st1" d="M46.2,150.1c-2.2-0.3-4.7-0.4-6.2,1.6c-0.7,0.8-0.8,1.8-0.6,2.6c-1.5-1.6-3-3.1-4.6-4.6
						c0-0.8-0.2-1.5-0.2-2.2c-0.1-1.3,0.5-2.4,1.6-3.2c1.8-1.2,4-1.2,6.1-0.8c0.2,0,0.3-0.2,0.1-0.3c-2.9-1.1-8.1-0.5-8.8,3.2
						c-0.1,0.4,0,0.7,0,1.2c0,0.4,0,0.7,0,0.9c-1.7-1.5-3.5-2.9-5.4-4.3c-0.3-1.2-0.6-2.3,0-3.7c0.8-1.7,2.5-2.8,4.3-2.9
						c0.3,0,0.3-0.4,0-0.4c-2-0.1-4,0.8-5.1,2.7c-0.5,0.9-0.8,2.2-0.6,3.4c-1.7-1.1-3.4-2.2-5.2-3.2c-0.2-0.1-0.3,0.2-0.1,0.3
						c2,1.1,3.8,2.4,5.6,3.8c0,0.1,0.1,0.2,0.1,0.2c-4.1-0.9-8.3-1.6-12.4-2.5c-0.2,0-0.2,0.2-0.1,0.3c4.3,1,8.6,2.1,12.9,3
						c0.1,0.1,0.1,0.1,0.2,0.2c0.2,0.2,0.5,0.1,0.5-0.1c0,0,0,0,0,0c1.5,1.3,3,2.6,4.5,4c-0.2,0-0.4,0-0.6,0c-1.3,0-2.7,0-4,0
						c-2.9,0-5.8,0-8.7,0.1c-0.1,0-0.1,0.2,0,0.2c2.4,0.1,4.7,0.2,7.1,0.3c2.4,0.1,5-0.1,7.4,0.4c0.1,0.1,0.1,0.1,0.2,0.2
						c1.8,1.8,3.5,3.6,5.3,5.4c0.1,0.1,0.2,0.3,0.3,0.4c-1.7,0.3-3.8-0.5-5.3-0.8c-2.1-0.4-4.2-0.8-6.4-1.2c-0.1,0-0.1,0.1,0,0.2
						c2.7,0.7,5.4,1.4,8.1,2.1c1.4,0.4,2.9,0.9,4.3,0.5c1.5,1.6,2.9,3.3,4.5,4.7c0.3,0.3,0.9-0.1,0.7-0.5c-1.2-1.7-2.6-3.3-4.1-4.8
						c0.1-0.2,0.1-0.4-0.1-0.6c-1.7-1.6-1.7-3.7,0.5-4.8c1.3-0.7,2.9-0.6,4.4-0.7C46.4,150.4,46.4,150.1,46.2,150.1"/>
					<path id="Fill-61" class="st1" d="M49.6,76.4c-7.4,1.2-10.4-7.1-11.3-11.7c-0.9-4.6-6.4-7-3.6-16.3c2.8-9.3,6-10.8,13-7.8
						c7,3,3.5-6.8,7.9-6.3C60,34.8,70,48.2,68.2,53.8c-1.8,5.6-7,12.4-7.5,16.2C60.2,73.8,59.9,83.6,49.6,76.4"/>
					<path id="Fill-63" class="st5" d="M59.5,51.1c-1,0.3-1.8,1.2-2.6,1.8c-1.3,1.1-2.8,1.7-4.4,2.1c0-0.2,0.1-0.4,0.1-0.6
						c0.1-1,0.1-2-0.1-3c1.2-0.2,2.1-1.8,2.5-2.7c1.1-2.3,2.3-6.5,5.8-5.1c0.1,0,0.2-0.1,0.1-0.2c-1.8-1.2-3.9-0.3-5.2,1.3
						c-0.7,0.9-1.1,2.1-1.6,3.1c-0.3,0.7-0.6,1.4-1.2,1.9c-0.2,0.2-0.4,0.3-0.7,0.5C52,49.1,51.5,48,50.7,47
						c-0.2-0.3-0.7,0.1-0.5,0.4c0.8,1.2,1.2,2.5,1.4,3.8c-0.6,0-1.2-0.1-1.7-0.2c-1.2-0.3-1.8-1.2-2.4-2.1c-0.7-0.9-1.5-1.8-2.5-2.3
						c-1.9-1-4.2-0.8-5.7,0.8c-0.1,0.1,0.1,0.3,0.2,0.2c3.2-2.6,5.9,0.7,7.7,3c1.2,1.5,2.7,1.9,4.5,1.5c0.1,1.4-0.2,2.9-0.6,4.4
						c-1.1,0.2-2.2,0.3-3.4-0.1c-1.5-0.5-2.5-1.9-4-2.4c-1.9-0.6-3.8,0.6-4.3,2.5c0,0.2,0.2,0.3,0.3,0.1c0.8-1.4,2.7-2.1,4.2-1.4
						c1.1,0.6,1.9,1.6,3.2,2c1.2,0.4,2.6,0.5,3.9,0.3c-0.5,1.6-1.7,3.8-0.9,5.4c-1.8,0.4-3.2,0-5.1-0.3c-1.3-0.2-2.7-0.3-3.8,0.5
						c0,0,0,0.1,0,0.1c2.7-0.7,6.5,2.1,9.1,0.7c-0.6,0.5-1.1,1-1.5,1.6c-0.7,0.9-1,2.3-2.1,2.8c-1.4,0.7-2.2-0.6-3.5-0.7
						c-0.6,0-1,0.1-1.3,0.7c-0.1,0.1,0.1,0.2,0.2,0.2c1.7-1.1,3.8,2.6,5.7,1c0.7-0.6,0.8-1.8,1.2-2.5c0.5-1,1.3-1.9,2.2-2.6
						c1.3,1.5,2,3.2,2.2,5.3c0,0.3,0.2,0.4,0.4,0.5c2,0.7,4.1-0.2,5-2.1c0.1-0.1-0.1-0.3-0.2-0.2c-0.8,0.9-1.9,1.5-3.2,1.4
						c-1.2,0-1.1-0.8-1.5-1.7c-0.6-1.3-1.4-2.5-2.4-3.5c0.1-0.1,0.1-0.1,0.2-0.2c0,0,0,0,0,0c1.3,0.6,2.9,0.7,4.1,0.6
						c1.9-0.2,3.7-0.9,5.2-2.2c0.1-0.1,0-0.4-0.2-0.3c-1.6,1-3.4,1.5-5.3,1.4c-1.7-0.1-2.9-0.8-4.4-1.3c0-0.9,0.4-1.8,0.7-2.7
						c2.9,0.9,6.6-2.7,9.1-0.3c0.2,0.2,0.5-0.1,0.3-0.3c-0.9-1.1-2.1-1.4-3.5-1.3c-2,0.2-3.7,1.1-5.7,1c0.2-0.5,0.3-1.1,0.5-1.6
						c0.2-0.1,0.4-0.3,0.7-0.4c0.2-0.2,0-0.5-0.3-0.5c-0.1,0-0.1,0-0.2,0c0,0,0-0.1,0-0.1c1.5-0.1,2.9-0.7,4.1-1.4
						c0.6-0.4,1.2-0.9,1.8-1.4c0.8-0.7,3.7-2.6,3.8,0c0,0.2,0.3,0.2,0.3,0C62.9,51.7,60.9,50.6,59.5,51.1"/>
					<path id="Fill-65" class="st3" d="M51.9,123.8c-4.2-3.4-8.1-19.2-5-26c3.1-6.8,1.2-13.9-0.3-19.3c-1.5-5.4,1.5-23.9,5.4-17.7
						c4,6.2,4.5,14.1,7.2,18c2.7,4,10.3,13.1,7.6,23C63.4,114.1,57,126.6,51.9,123.8"/>
					<path id="Fill-67" class="st1" d="M63.2,94.5c0-0.2-0.3-0.1-0.3,0.1c0.6,3.9-2.7,6.5-4.5,9.5c-0.8,1.2-1.1,2.6-1.4,4
						c0.5-3.6,0.3-7.2-0.3-10.8c0.1-0.3,0.1-0.6,0.2-1c0.4-1.6,1.1-3.1,1.8-4.6c1-2.4,1.1-4.7,0.5-7.3c0-0.1-0.2-0.1-0.2,0.1
						c0.8,3.6-1.3,6.1-2.4,9.3c-0.1,0.4-0.2,0.7-0.3,1.1c-0.7-3.2-1.7-6.4-2.6-9.5c0.2-0.9,0.6-1.5,1.3-2.3c0.4-0.5,0.9-1,1.2-1.6
						c0.4-1,0.5-2.2-0.4-2.9c-0.2-0.2-0.4,0-0.3,0.2c1.1,1.9-1.3,3.2-2.1,4.7c0,0.1-0.1,0.1-0.1,0.2c-0.5-1.8-1-3.5-1.5-5.3
						c0,0,0-0.1,0-0.1c-0.2-1.1-0.3-1.9,0.6-2.7c0.4-0.4,0.8-0.6,1.1-1.1c0.5-1-0.2-2.6-0.5-3.6c-0.1-0.1-0.3-0.1-0.3,0
						c0.1,0.9,0.7,2.6,0.1,3.4c-0.4,0.5-1.1,0.7-1.5,1.3c0,0,0,0.1-0.1,0.1c-0.6-3.1-1-6.3-0.8-9.6c0-0.3-0.5-0.4-0.5-0.1
						c-0.5,3-0.4,5.9,0,8.8c-1.3-1.1-2.3-2.5-2.8-4.3c0-0.1-0.2-0.1-0.2,0.1c0.4,2,1.5,3.9,3.1,5.2c0.4,2.5,1,5,1.8,7.5
						c-0.4-0.5-0.9-0.9-1.3-1.3c-1.2-1.2-2.4-2.4-2.5-4.2c0-0.3-0.5-0.3-0.5,0c0,1.3,0.5,2.4,1.4,3.5c0.5,0.6,1.1,1.2,1.6,1.7
						c0.6,0.6,1,1.4,1.6,1.9c0.1,0.1,0.2,0.1,0.3,0c1,3.3,2.1,6.6,2.9,9.9c0,0,0,0,0,0c-1.6-2.4-4-3.7-4.8-6.7
						c0-0.1-0.3-0.1-0.2,0.1c0.5,2.3,1.6,3.9,3.2,5.6c1.4,1.5,2.1,3.2,2.6,5c0,0.9,0.1,1.8,0.3,2.7c0,0.1,0.2,0.1,0.2,0
						c0.4,3.2,0.5,6.5-0.2,9.7c0,0,0,0,0,0c-0.5-4.8-6.3-8.1-6.1-13.2c0-0.1-0.2-0.1-0.2,0c-0.7,5.7,5.3,9,6,14.3
						c-0.1,0.2-0.2,0.4-0.3,0.6c0,0,0,0.1,0.1,0c0.1-0.1,0.1-0.2,0.2-0.2c-0.7,1.9-1.7,3.6-2.7,5.4c-1,1.6-1.9,3.3-1.2,5.2
						c0.1,0.2,0.4,0.1,0.3-0.1c-0.7-3,1.6-5.3,2.9-7.8c0.4-0.7,0.7-1.5,0.9-2.3c0,0.1,0,0.1,0,0.2c0,0.1,0.2,0.1,0.2,0
						c0.1-0.4,0.1-0.8,0.1-1.2c0,0,0,0,0-0.1c0.2-0.3,0.5-0.7,0.6-1c0.4-0.8,0.4-1.7,0.6-2.6c0.5-1.9,1.8-3.5,2.9-5.1
						C62.2,100.7,64,97.9,63.2,94.5"/>
					<path id="Fill-69" class="st1" d="M48.5,105.3c0-0.1-0.1-0.1-0.2,0c-1.2,5,5.6,7.4,4.4,12.4c0,0.2,0.2,0.3,0.3,0.1
						C55.7,112.9,47.5,110.1,48.5,105.3"/>
					<path id="Fill-71" class="st1" d="M61.8,108.9c-1,2.3-2.2,4.8-4.4,6.3c-1.5,1.1-3.5,1.9-4.4,3.6c-0.1,0.1,0.1,0.3,0.2,0.2
						c1.7-1.8,4.2-2.2,5.9-4c1.6-1.7,2.2-3.8,3-5.9C62.2,108.8,61.9,108.7,61.8,108.9"/>
					<path id="Fill-75" class="st6" d="M63.8,32.3c0,0.1,0,0.2,0,0.2c0,0,0,0,0,0C63.9,32.5,63.9,32.4,63.8,32.3
						C63.9,32.3,63.8,32.3,63.8,32.3"/>
					<path id="Fill-73" class="st6" d="M83.4,62.6c-0.1,0-0.1,0-0.2,0c0,0,0,0,0,0.1c0.1,0,0.1,0,0.2,0
						C83.5,62.7,83.5,62.6,83.4,62.6"/>
				</g>
				<g id="_Grupo_2" transform="translate(159.000000, 99.000000)">
					<g id="_Grupo_6" transform="translate(51.000000, 0.000000)">
						<path id="Shape_2_" class="st7" d="M1,50.2c-2.2-16.7,6.1-33,20.9-41C36.6,1.4,57.3-1.7,80.8,3.3c44.6,9.6,39.9,97.7,42,136
							c2.1,38.3-110.3-2.8-110.3-2.8L1,50.2z"/>
					</g>
				</g>
				<g id="_Grupo_7" transform="translate(133.000000, 0.000000)">
					<g id="_Grupo_8" transform="translate(0.000000, 227.000000)">
						<g id="_Grupo_9">
							<path id="Shape_3_" class="st8" d="M75.4,0.5c-1.2,7.7-35.1,34.4-48.8,44.7S3.3,63.6,1.2,69.9c-2.1,6.3,8.3,33.6,41.2,30.5
								c32.8-3.2,80.1-50,80.1-50l-8.7-32.1L75.4,0.5z"/>
						</g>
					</g>
					<g id="_Grupo_12" transform="translate(131.000000, 0.000000)">
						<g id="_Grupo_13" transform="translate(0.000000, 29.000000)">
							<g id="_Grupo_14">
								<g id="_Grupo_15">
									<path id="Shape_5_" class="st9" d="M31.9,32.2c-9.8-4.8-31.3-7.8-31-12.9s3.1-18,6.2-18.4S47,15.6,50,17.3s3,7.1,1.3,12.9
										C49.7,35.9,47.4,38.6,31.9,32.2z"/>
								</g>
								<g id="_Grupo_16" transform="translate(0.000000, 2.000000)">
									<path id="Shape_6_" class="st0" d="M25.6,21.5c-4.2-4.4-8.7-8.6-13.1-12.9C10.4,6.6,7.7,3.9,5.1,1C2.9,5,1.3,13.4,1,17.3
										c-0.4,5.1,21.1,8.1,31,12.9c1.6,0.6,3,1.2,4.3,1.7C32.5,28.6,28.9,25.2,25.6,21.5z"/>
								</g>
								<g id="_Grupo_17" transform="translate(4.000000, 5.000000)">
									<path id="Shape_7_" class="st10" d="M4.5,0.2c-1.9,0.5-4.2,12-3.7,12.5s7.2,2.3,8,2.3c0.8-0.1,4.9-10.9,4-11.8
										S4.5,0.2,4.5,0.2z"/>
								</g>
								<g id="_Grupo_18" transform="translate(17.000000, 9.000000)">
									<path id="Shape_8_" class="st11" d="M4.3,0.9c-1.9,0.5-4.2,12-3.7,12.5s7.2,2.3,8,2.3c0.8-0.1,4.9-10.9,4-11.8
										S4.3,0.9,4.3,0.9z"/>
								</g>
								<g id="_Grupo_19" transform="translate(29.000000, 14.000000)">
									<path id="Shape_9_" class="st12" d="M4.2,0.6C2.3,1.1,0,12.6,0.5,13.1s7.2,2.3,8,2.3s4.9-10.9,4-11.8S4.2,0.6,4.2,0.6z"/>
								</g>
							</g>
							<g id="_Grupo_20" transform="translate(0.000000, 3.000000)">
								<path id="Shape_10_" class="st13" d="M18.3,25.2h-0.2C6.6,22.4-0.4,19.7,0.4,14.5c0.7-4.2,2.9-12.7,3-13.1
									c0.1-0.3,0.3-0.5,0.5-0.5s0.5,0,0.7,0.2s0.3,0.5,0.2,0.7c0,0.1-2.3,8.9-3,13c-0.6,3.5,4.2,6.1,16.6,9.1
									c0.4,0,0.7,0.4,0.7,0.8C19,25,18.7,25.3,18.3,25.2L18.3,25.2z"/>
							</g>
						</g>
						<g id="_Grupo_21" transform="translate(5.000000, 9.000000)">
							<g id="_Grupo_22" transform="translate(1.000000, 0.000000)">
								<g id="_Grupo_23">
									<path id="Shape_11_" class="st0" d="M42.8,33.2C33.9,23,22.2-0.7,17.1,0.8S0.2,7.9,0.9,11.5s31.1,42,33.9,45
										c2.8,3,8.5,2,13.7-1.1S55.6,49.4,42.8,33.2z"/>
								</g>
								<g id="_Grupo_24" transform="translate(20.000000, 6.000000)">
									<path id="Shape_12_" class="st9" d="M22.8,27.2C16.8,20.4,9.6,7.5,4,0.2C3.1,10.6,1,20.9,0.2,31.4c0,0.3,0,0.5,0,0.8
										c7,9,13.4,17,14.7,18.3c2.8,3,8.5,2,13.7-1.1C33.8,46.4,35.6,43.4,22.8,27.2z"/>
								</g>
								<g id="_Grupo_25" transform="translate(5.000000, 5.000000)">
									<path id="Shape_13_" class="st14" d="M0.9,7.1C0.6,4.8,11.4-0.1,12.1,0.4c0.7,0.5,5.3,7.7,5.5,8.6s-9.1,7.8-10.5,6.8
										S0.9,7.1,0.9,7.1z"/>
								</g>
								<g id="_Grupo_26" transform="translate(15.000000, 18.000000)">
									<path id="Shape_14_" class="st15" d="M0.8,7.6C0.6,5.4,11.4,0.5,12.1,1c0.7,0.5,5.3,7.7,5.5,8.6c0.2,0.9-9.1,7.8-10.5,6.8
										S0.8,7.6,0.8,7.6z"/>
								</g>
							</g>
							<g id="_Grupo_27">
								<path id="Shape_15_" class="st13" d="M21.2,38.9c-0.2,0-0.5-0.1-0.6-0.3c-2.5-3.3-5-6.5-7.2-9.4C3.1,16.1-0.4,11.4,1.4,9.6
									C3.2,7.6,12.2,2,15,1c0.4-0.1,0.8,0.1,1,0.5c0.1,0.4-0.1,0.8-0.5,1C12.7,3.5,4,8.9,2.4,10.6C1.9,12,8.3,20.3,14.6,28.3
									c2.2,2.9,4.7,6,7.2,9.4c0.2,0.2,0.2,0.5,0.1,0.8C21.8,38.8,21.5,38.9,21.2,38.9L21.2,38.9z"/>
							</g>
						</g>
						<g id="_Grupo_28" transform="translate(33.000000, 0.000000)">
							<g id="_Grupo_29" transform="translate(0.000000, 1.000000)">
								<path id="Shape_16_" class="st13" d="M6,0.7C0.2,4.2,0.3,4,0.6,16.4c0.9,40.6-3,43.2,4.5,47.6c2.7,1.5,11.7,2.2,11.7,2.2
									L5.7,31.1L6,0.7z"/>
							</g>
							<g id="_Grupo_30" transform="translate(1.000000, 1.000000)">
								<g id="_Grupo_31">
									<path id="Shape_17_" class="st9" d="M21.8,45.1c-0.7-13.5,4.8-39.3,0-41.3S4.1-1.2,2.5,2.2S0.8,54.4,1.1,58.6
										s5.4,6.8,11.4,7.6C18.5,67,21.8,65.8,21.8,45.1z"/>
								</g>
								<g id="_Grupo_32" transform="translate(1.000000, 0.000000)">
									<path id="Shape_18_" class="st0" d="M6.2,28.6c5.7,0.8,10.5,3.6,14.9,7.1C22,22.1,24.7,5.4,20.8,3.8
										c-4.8-2-17.8-5-19.4-1.7C0.7,3.8,0.3,16.1,0.1,28.9C2.1,28.4,4.1,28.3,6.2,28.6z"/>
								</g>
								<g id="_Grupo_33" transform="translate(5.000000, 5.000000)">
									<path id="Shape_19_" class="st16" d="M1,0.7c1.2-1.9,12.7,1,13,1.8s-0.6,9.3-1,10.2C12.6,13.6,1,13.1,0.6,11.5S1,0.7,1,0.7
										z"/>
								</g>
								<g id="_Grupo_34" transform="translate(4.000000, 21.000000)">
									<path id="Shape_20_" class="st17" d="M1.4,1.5c1.2-1.9,12.7,1,13,1.8s-0.6,9.3-1,10.2C13,14.4,1.4,13.9,0.9,12.4
										S1.4,1.5,1.4,1.5z"/>
								</g>
							</g>
							<g id="_Grupo_35">
								<path id="Shape_21_" class="st13" d="M0.9,29.7c-0.2,0-0.4-0.1-0.5-0.2c-0.1-0.1-0.2-0.3-0.2-0.5c0-3.2,0.1-6,0.1-8.6
									C0.4,9.3,0.5,4.8,2,3.3l0.5-0.4c1.9-1.9,3.9-3,13.4-1c0.4,0.1,0.7,0.5,0.6,0.9S16,3.5,15.6,3.4C6.1,1.4,4.9,2.6,3.5,3.9
									L3,4.4c-1.1,1-1.2,7.2-1.2,15.9c0,2.6,0,5.5-0.1,8.6c0,0.2,0,0.4-0.2,0.6S1.2,29.7,0.9,29.7z"/>
							</g>
						</g>
					</g>
					<g id="_Grupo_36" transform="translate(8.000000, 20.000000)">
						<g id="_Grupo_37" transform="translate(0.000000, 12.000000)">
							<g id="_Grupo_38" transform="translate(0.000000, 106.000000)">
								<g id="_Grupo_39" transform="translate(12.000000, 37.000000)">
									<path id="Shape_22_" class="st18" d="M28.1,33.9C19,32.4-6.8,7.4,3,2.2S31.8,5,31.8,5l7.3,20l-7.3,7.2L28.1,33.9z"/>
								</g>
								<g id="_Grupo_40" transform="translate(0.000000, 4.000000)">
									<path id="Shape_23_" class="st19" d="M3.3,48.9C18.6,33,29.4,29.3,35.9,14.5S53-3.7,57.7,5.7s6.4,18.5-3.4,36.4
										S23.9,73.6,12.2,75.5S-2.5,54.9,3.3,48.9z"/>
								</g>
								<g id="_Grupo_41" transform="translate(14.000000, 0.000000)">
									<path id="Shape_24_" class="st15" d="M35,0.3c-8,2.4-11,14.4-16.8,21.4S3.5,36.5,1.1,39.2s16.4-6,24.8,5.3
										s5.1,17.9,0.3,23.7c-0.5,0.6-1.9,2-1.7,2.3c1.1,2.1,14.5-0.1,17.5-4.6c3.4-5.1,10.6-13.1,13.4-20.2
										c2.8-7.2-3.5-39.7-9.1-42.6C42.8,1.3,38.9,0.3,35,0.3z"/>
								</g>
								<g id="_Grupo_42" transform="translate(40.000000, 9.000000)">
									<path id="Shape_25_" class="st20" d="M3.5,6.7C2.9,10.9,6.3,11.3,6.2,7c4.9,0.2,4.1-3.1,0-2.8c0.6-5.4-4-5.5-3,0
										C-2.3,3.9,0.8,7.7,3.5,6.7z"/>
								</g>
								<g id="_Grupo_43" transform="translate(14.000000, 26.000000)">
									<path id="Shape_26_" class="st21" d="M21.8,7.9c-3.8-1.4-6.9-4-7.5-7.8C8.9,5.7,2.9,11,1,13.2c-2.4,2.7,16.4-6,24.8,5.3
										s5.1,17.9,0.3,23.7c-0.5,0.6-1.9,2-1.7,2.4c0.2,0.3,0.5,0.5,0.8,0.5c1-0.6,2-1.3,3-2c1-1.4,2-2.8,2.8-4.4
										c3-5.8,4-12.5,3.7-18.9c0-0.9,1.5-1.1,1.6-0.2c0.5,2.8,0.9,5.5,1.2,8.3c0.4-2.1,0.6-4.2,0.6-6.3c0.2-3.8-0.7-7.6-2.4-11
										C30.9,9.8,26.2,9.6,21.8,7.9z"/>
								</g>
							</g>
							<g id="_Grupo_44" transform="translate(48.000000, 64.000000)">
								<g id="_Grupo_45" transform="translate(0.000000, 18.000000)">
									<path id="Shape_27_" class="st21" d="M1,24.3c-3.5,12.5,12.1,48.7,15.9,60s1.7,21.1-2.8,36.4c-1,3.6,5.9,15.2,5.9,15.2
										s16.2,25.4,23.7,4.3c29,15,39.5,25.3,39.5,25.3s31.1,1.4,37.8-13.7c6.6-15.2,5.3-78.8,0.6-99.2s-18.3-50.9-28-50.4
										s-38.9-3-50.9,0S2.2,19.9,1,24.3z"/>
								</g>
								<g id="_Grupo_46" transform="translate(13.000000, 119.000000)">
									<path id="Shape_28_" class="st15" d="M92.1,20.1C82.8,19,71.9,19,63,16.5c-15-4.2-18.1-2.6-33.3-5.5
										C25.2,10.2,10.6,1.8,5.6,0.1C5,5.8,3.3,12.1,1.1,19.7c-1,3.6,5.9,15.2,5.9,15.2s16.2,25.4,23.7,4.3
										c29,15,39.5,25.3,39.5,25.3s31.1,1.5,37.8-13.7c2.6-5.9,4-19,4.4-34.1C107.1,21.1,98.5,20.9,92.1,20.1z"/>
								</g>
								<g id="_Grupo_47" transform="translate(64.000000, 26.000000)">
									<path id="Shape_29_" class="st9" d="M5,3.1C0.4,0.3-1.7,4.4,3.7,5.9C1,10.6,5.8,9.4,6.1,6.6C9.6,8.9,11.4,6,7.5,4.3
										C9.8-0.1,6.4-0.7,5,3.1z"/>
								</g>
								<g id="_Grupo_48" transform="translate(19.000000, 29.000000)">
									<path id="Shape_30_" class="st9" d="M4.2,7.3C3.6,11.4,7,11.8,6.9,7.6c4.9,0.2,4.1-3.1,0-2.8c0.6-5.4-4-5.5-3,0
										C-1.6,4.4,1.5,8.3,4.2,7.3z"/>
								</g>
								<g id="_Grupo_49" transform="translate(82.000000, 20.000000)">
									<path id="Shape_31_" class="st15" d="M12.2,0.2C4.1,9.6,0.2,23.5,1,35.3C2.1,50.9,9.4,66,18.5,78.5
										c6,8.3,14.6,18.2,24.8,18.5c0.1-17.6-1.4-36-3.7-46.4C35,30.7,21.9,1.2,12.2,0.2z"/>
								</g>
								<g id="_Grupo_50" transform="translate(3.000000, 19.000000)">
									<g id="_Grupo_51" transform="translate(50.000000, 65.000000)">
										<path id="Shape_32_" class="st9" d="M4.7,2.8C0.1-0.1-2,4.1,3.3,5.5c-2.7,4.7,2.1,3.6,2.4,0.7C9.2,8.6,11,5.6,7.2,3.9
											C9.4-0.4,6.1-1.1,4.7,2.8z"/>
									</g>
									<g id="_Grupo_52" transform="translate(52.000000, 94.000000)">
										<path id="Shape_33_" class="st9" d="M5.6,6.2C9.1,8.5,10.9,5.6,7,3.9c2.3-4.3-1.1-5-2.5-1.1c-4.6-2.9-6.7,1.3-1.3,2.7
											C0.5,10.3,5.3,9.1,5.6,6.2z"/>
									</g>
									<g id="_Grupo_53" transform="translate(57.000000, 113.000000)">
										<path id="Shape_34_" class="st20" d="M5.8,6.6c3.5,2.3,5.3-0.6,1.4-2.3c2.3-4.3-1.1-5-2.5-1.1C0.2,0.2-1.9,4.4,3.5,5.8
											C0.8,10.6,5.6,9.4,5.8,6.6z"/>
									</g>
									<g id="_Grupo_54" transform="translate(70.000000, 100.000000)">
										<path id="Shape_35_" class="st9" d="M6.2,6.5c3.5,2.3,5.3-0.6,1.4-2.3c2.3-4.3-1.1-5-2.5-1.1C0.6,0.2-1.5,4.3,3.8,5.8
											C1.2,10.5,6,9.4,6.2,6.5z"/>
									</g>
									<g id="_Grupo_55" transform="translate(61.000000, 50.000000)">
										<path id="Shape_36_" class="st9" d="M6.4,7.3c4.9,0.2,4.1-3.1,0-2.8c0.6-5.4-4-5.5-3,0C-2,4.2,1.1,8,3.8,7
											C3.1,11.1,6.5,11.5,6.4,7.3z"/>
									</g>
									<g id="_Grupo_56" transform="translate(57.000000, 25.000000)">
										<path id="Shape_37_" class="st9" d="M3.8,7c-0.6,4.1,2.8,4.5,2.7,0.3c4.9,0.2,4.1-3.1,0-2.8c0.6-5.4-4-5.5-3,0
											C-2,4.2,1.1,8,3.8,7z"/>
									</g>
									<g id="_Grupo_57" transform="translate(69.000000, 75.000000)">
										<path id="Shape_38_" class="st9" d="M4.3,6.7C3.7,10.9,7.1,11.3,7,7.1c4.9,0.2,4.1-3.1,0-2.8c0.6-5.4-4-5.5-3,0
											C-1.5,3.9,1.6,7.7,4.3,6.7z"/>
									</g>
									<g id="_Grupo_58" transform="translate(0.000000, 19.000000)">
										<path id="Shape_39_" class="st9" d="M6.7,7.4c4.9,0.2,4.1-3.1,0-2.8c0.6-5.4-4-5.5-3,0c-5.4-0.4-2.3,3.5,0.4,2.5
											C3.3,11.3,6.8,11.7,6.7,7.4z"/>
									</g>
									<g id="_Grupo_59" transform="translate(78.000000, 59.000000)">
										<path id="Shape_40_" class="st9" d="M5.6,6c3.5,2.3,5.3-0.6,1.4-2.3c2.3-4.3-1.1-5-2.5-1.1c-4.6-2.9-6.7,1.3-1.3,2.7
											C0.6,10,5.4,8.9,5.6,6z"/>
									</g>
									<g id="_Grupo_60" transform="translate(111.000000, 86.000000)">
										<path id="Shape_41_" class="st20" d="M6.8,4.3c0.6-5.4-4-5.5-3,0c-5.4-0.4-2.3,3.5,0.4,2.5C3.5,10.9,7,11.3,6.9,7.1
											C11.7,7.2,10.9,3.9,6.8,4.3z"/>
									</g>
									<g id="_Grupo_61" transform="translate(15.000000, 103.000000)">
										<path id="Shape_42_" class="st20" d="M6.3,6.4c3.5,2.3,5.3-0.6,1.4-2.3c2.3-4.3-1.1-5-2.5-1.1C0.6,0.1-1.5,4.2,3.9,5.7
											C1.2,10.4,6,9.2,6.3,6.4z"/>
									</g>
									<g id="_Grupo_62" transform="translate(110.000000, 70.000000)">
										<path id="Shape_43_" class="st20" d="M4.7,3.5C0,0.7-2,4.8,3.3,6.3C0.6,11,5.5,9.8,5.7,7C9.2,9.3,11,6.4,7.2,4.7
											C9.4,0.3,6.1-0.3,4.7,3.5z"/>
									</g>
									<g id="_Grupo_63" transform="translate(93.000000, 68.000000)">
										<path id="Shape_44_" class="st20" d="M6.4,7c4.9,0.2,4.1-3.1,0-2.8c0.6-5.4-4-5.5-3,0C-2.1,3.9,1,7.7,3.7,6.7
											C3,10.8,6.5,11.2,6.4,7z"/>
									</g>
									<g id="_Grupo_64" transform="translate(85.000000, 115.000000)">
										<path id="Shape_45_" class="st20" d="M6.4,7.4c4.9,0.2,4.1-3.1,0-2.8c0.6-5.4-4-5.5-3,0C-2,4.3,1.1,8.2,3.8,7.2
											C3.1,11.3,6.5,11.7,6.4,7.4z"/>
									</g>
									<g id="_Grupo_65" transform="translate(99.000000, 55.000000)">
										<path id="Shape_46_" class="st20" d="M6.9,4.2c0.6-5.4-4-5.5-3,0c-5.4-0.4-2.3,3.5,0.4,2.5C3.7,10.8,7.1,11.2,7,7
											C11.9,7.2,11.1,3.9,6.9,4.2z"/>
									</g>
									<g id="_Grupo_66" transform="translate(36.000000, 108.000000)">
										<path id="Shape_47_" class="st20" d="M6.8,7.4c4.9,0.2,4.1-3.1,0-2.8c0.6-5.4-4-5.5-3,0c-5.4-0.4-2.3,3.5,0.4,2.5
											C3.5,11.2,7,11.6,6.8,7.4z"/>
									</g>
									<g id="_Grupo_67" transform="translate(84.000000, 82.000000)">
										<path id="Shape_48_" class="st9" d="M7.9,3.8c2.3-4.3-1.1-5-2.5-1.1C0.8-0.2-1.3,4,4,5.4C1.4,10.2,6.2,9,6.4,6.1
											C9.9,8.5,11.7,5.5,7.9,3.8z"/>
									</g>
									<g id="_Grupo_68" transform="translate(31.000000, 31.000000)">
										<path id="Shape_49_" class="st9" d="M6.6,4.2c0.6-5.4-4-5.5-3,0C-1.8,3.9,1.3,7.7,4,6.7C3.4,10.8,6.8,11.2,6.7,7
											C11.5,7.2,10.7,3.9,6.6,4.2z"/>
									</g>
									<g id="_Grupo_69" transform="translate(34.000000, 57.000000)">
										<path id="Shape_50_" class="st9" d="M4.3,6.7C3.7,10.8,7.1,11.2,7,7c4.9,0.2,4.1-3.1,0-2.8c0.6-5.4-4-5.5-3,0
											C-1.5,3.8,1.6,7.6,4.3,6.7z"/>
									</g>
									<g id="_Grupo_70" transform="translate(20.000000, 45.000000)">
										<path id="Shape_51_" class="st9" d="M7.2,4c2.3-4.3-1.1-5-2.5-1.1C0.1,0-1.9,4.1,3.4,5.6c-2.7,4.8,2.1,3.6,2.4,0.7
											C9.3,8.6,11.1,5.7,7.2,4z"/>
									</g>
									<g id="_Grupo_71" transform="translate(5.000000, 38.000000)">
										<path id="Shape_52_" class="st9" d="M6.4,7.2c4.9,0.2,4.1-3.1,0-2.8c0.6-5.4-4-5.5-3,0C-2,4.1,1.1,7.9,3.8,6.9
											C3.1,11,6.5,11.4,6.4,7.2z"/>
									</g>
									<g id="_Grupo_72" transform="translate(40.000000, 79.000000)">
										<path id="Shape_53_" class="st9" d="M6.4,4.6c0.6-5.4-4-5.5-3,0C-2.1,4.2,1,8.1,3.8,7.1c-0.6,4.1,2.8,4.5,2.7,0.3
											C11.3,7.5,10.5,4.2,6.4,4.6z"/>
									</g>
									<g id="_Grupo_73" transform="translate(103.000000, 126.000000)">
										<path id="Shape_54_" class="st20" d="M7.5,4.2c2.3-4.3-1.1-5-2.5-1.1C0.4,0.2-1.7,4.4,3.7,5.8C1,10.6,5.8,9.4,6.1,6.5
											C9.5,8.8,11.4,5.9,7.5,4.2z"/>
									</g>
									<g id="_Grupo_74" transform="translate(108.000000, 109.000000)">
										<path id="Shape_55_" class="st9" d="M7.7,4C10-0.3,6.7-1,5.2,2.9C0.6,0-1.5,4.1,3.9,5.6C1.2,10.4,6,9.2,6.3,6.3
											C9.7,8.7,11.6,5.7,7.7,4z"/>
									</g>
									<g id="_Grupo_75" transform="translate(93.000000, 97.000000)">
										<path id="Shape_56_" class="st9" d="M7.4,4.1c2.3-4.3-1.1-5-2.5-1.1C0.3,0.1-1.8,4.2,3.6,5.7C0.9,10.4,5.7,9.3,6,6.4
											C9.4,8.7,11.3,5.8,7.4,4.1z"/>
									</g>
									<g id="_Grupo_76" transform="translate(8.000000, 60.000000)">
										<path id="Shape_57_" class="st9" d="M5.9,7.9c4.8,0.5,4.3-2.8,0.2-2.7c1-5.3-3.6-5.8-3-0.3c-5.4-0.8-2.6,3.3,0.2,2.5
											C2.3,11.5,5.7,12.1,5.9,7.9z"/>
									</g>
									<g id="_Grupo_77" transform="translate(15.000000, 25.000000)">
										<path id="Shape_58_" class="st9" d="M3.8,5.8C1.1,10.5,6,9.4,6.2,6.5c3.5,2.3,5.3-0.6,1.4-2.3c2.3-4.3-1.1-5-2.5-1.1
											C0.5,0.2-1.5,4.3,3.8,5.8z"/>
									</g>
									<g id="_Grupo_78" transform="translate(70.000000, 0.000000)">
										<path id="Shape_59_" class="st9" d="M3.5,1.7C2.9,5.8,6.4,6.2,6.2,2c2.1,0.1,3.1-0.5,3.3-1.1L0.2,0.4
											C0.8,1.6,2.3,2.2,3.5,1.7z"/>
									</g>
									<g id="_Grupo_79" transform="translate(32.000000, 92.000000)">
										<path id="Shape_60_" class="st9" d="M6.2,6.7C9.7,9,11.6,6,7.7,4.3c2.3-4.3-1.1-5-2.5-1.1C0.6,0.3-1.5,4.5,3.9,5.9
											C1.2,10.7,6,9.5,6.2,6.7z"/>
									</g>
									<g id="_Grupo_80" transform="translate(15.000000, 86.000000)">
										<path id="Shape_61_" class="st9" d="M5.9,7.3c4.8,0.9,4.5-2.5,0.3-2.7c1.4-5.3-3.2-6-3-0.5c-0.8-0.2-1.7-0.2-2.5,0
											c0.1,0.7,0.2,1.3,0.2,2c0.7,0.5,1.5,0.7,2.4,0.6C2.1,10.7,5.4,11.5,5.9,7.3z"/>
									</g>
									<g id="_Grupo_81" transform="translate(25.000000, 69.000000)">
										<path id="Shape_62_" class="st9" d="M6,6.5c3.5,2.3,5.3-0.6,1.4-2.3c2.3-4.3-1.1-5-2.5-1.1C0.3,0.2-1.7,4.3,3.6,5.8
											C0.9,10.5,5.7,9.4,6,6.5z"/>
									</g>
									<g id="_Grupo_82" transform="translate(46.000000, 43.000000)">
										<path id="Shape_63_" class="st9" d="M7.2,4c2.3-4.3-1.1-5-2.5-1.1C0.1,0-2,4.1,3.4,5.6c-2.7,4.8,2.1,3.6,2.4,0.7
											C9.3,8.6,11.1,5.7,7.2,4z"/>
									</g>
								</g>
								<g id="_Grupo_83" transform="translate(21.000000, 0.000000)">
									<path id="Shape_64_" class="st22" d="M0.9,8.2c3.7,10.2,5.3,17,5.2,22.7C6,36.3,17.2,47.6,25,48.1
										c8.5,0.6,22.9-15.7,20.8-25.2C44.2,15.3,43.1,7.7,42.4,0L3.8,1.9L0.9,8.2z"/>
								</g>
								<g id="_Grupo_84" transform="translate(26.000000, 20.000000)">
									<g id="_Grupo_85">
										<path id="Shape_65_" class="st15" d="M40.3,0.7c-2.6,8.2-8.6,15.9-15.8,18.4C8.6,24.7,3.2,13.3,0.4,3.7
											c0.5,2.3,0.7,4.7,0.7,7.1C1,16.3,12.2,27.6,20,28.1c8.5,0.6,22.9-15.7,20.8-25.2C40.6,2.2,40.4,1.4,40.3,0.7z"/>
									</g>
									<g id="_Grupo_86" transform="translate(22.000000, 21.000000)">
										<path id="Shape_66_" class="st18" d="M1.9,0.9C1.3,1,0.8,1.5,0.8,2.2s0.5,1.2,1.1,1.2c0.6-0.1,1.1-0.6,1.1-1.2
											S2.6,1,1.9,0.9z"/>
									</g>
								</g>
								<g id="_Grupo_87" transform="translate(76.000000, 60.000000)">
									<path id="Shape_67_" class="st18" d="M20.8,15h-0.2c-0.7-0.2-17-4.1-20.3-13.1C0.1,1.5,0.3,1,0.7,0.9s0.8,0.1,1,0.4
										c3.1,8.3,19.1,12.2,19.3,12.2c0.4,0.1,0.7,0.4,0.6,0.8C21.5,14.8,21.2,15.1,20.8,15L20.8,15z"/>
								</g>
								<g id="_Grupo_88" transform="translate(42.000000, 39.000000)">
									<path id="Shape_68_" class="st18" d="M1.2,111.5c-0.3,0-0.5-0.1-0.6-0.4s-0.1-0.5,0-0.7c0.2-0.4,18.2-37.1,11.8-53.9
										S3.8,13.7,5.2,9C3.8,6.7,2.6,4.3,2.9,1.3c0-0.3,0.2-0.5,0.4-0.6s0.5-0.1,0.7,0.1c0.2,0.2,0.3,0.4,0.3,0.7
										C4.2,4.1,5.3,6.2,6.7,8.6c0.1,0.2,0.1,0.5,0,0.8C5.3,11.7,7,38.5,13.7,56S2.7,109.6,1.9,111.1
										C1.8,111.4,1.5,111.5,1.2,111.5z"/>
								</g>
							</g>
							<g id="_Grupo_89" transform="translate(129.000000, 83.000000)">
								<path id="Shape_69_" class="st21" d="M0.6,29.1C0.9,42.5,12,53.6,32.5,50.6s26-9.3,26.7-13.5c0.7-4.2,1.4-27-8-33.6
									c-8.4-5.9-22.3-0.4-38.6-2.4C4.5,0.2,0.4,23.4,0.6,29.1z"/>
							</g>
							<g id="_Grupo_90" transform="translate(125.000000, 82.000000)">
								<g id="_Grupo_91" transform="translate(0.000000, 2.000000)">
									<g id="_Grupo_92" transform="translate(3.000000, 11.000000)">
										<path id="Shape_70_" class="st9" d="M3.6,7.1C3,11.2,6.4,11.6,6.3,7.4c4.9,0.2,4.1-3.1,0-2.8c0.6-5.4-4-5.5-3,0
											C-2.2,4.2,0.9,8.1,3.6,7.1z"/>
									</g>
									<g id="_Grupo_93" transform="translate(0.000000, 30.000000)">
										<path id="Shape_71_" class="st9" d="M3.2,5.4C0.5,10.2,5.3,9,5.6,6.1C9.1,8.4,10.9,5.5,7,3.8c2.3-4.3-1.1-5-2.5-1.1
											C-0.1-0.2-2.2,4,3.2,5.4z"/>
									</g>
									<g id="_Grupo_94" transform="translate(13.000000, 27.000000)">
										<path id="Shape_72_" class="st9" d="M4.8,3.1C0.2,0.2-1.9,4.3,3.4,5.8c-2.7,4.7,2.2,3.6,2.4,0.7c3.5,2.3,5.3-0.6,1.4-2.3
											C9.5-0.1,6.2-0.8,4.8,3.1z"/>
									</g>
									<g id="_Grupo_95" transform="translate(26.000000, 0.000000)">
										<path id="Shape_73_" class="st9" d="M2.4,1.7c-2.7,4.8,2.1,3.6,2.4,0.7C8.2,4.7,10,2,6.6,0.3C4.5,0.4,2.3,0.6,0,0.6
											C0.7,1.1,1.5,1.5,2.4,1.7z"/>
									</g>
									<g id="_Grupo_96" transform="translate(11.000000, 0.000000)">
										<path id="Shape_74_" class="st9" d="M5.2,3.5C0.6,0.6-1.5,4.7,3.9,6.2C1.2,11,6,9.8,6.3,6.9c3.5,2.3,5.3-0.6,1.4-2.3
											C10,0.3,6.7-0.4,5.2,3.5z"/>
									</g>
									<g id="_Grupo_97" transform="translate(22.000000, 12.000000)">
										<path id="Shape_75_" class="st9" d="M3.6,6.8C3,10.9,6.4,11.3,6.3,7.1c4.9,0.2,4.1-3.1,0-2.8c0.6-5.4-4-5.5-3,0
											C-2.2,3.9,0.9,7.8,3.6,6.8z"/>
									</g>
									<g id="_Grupo_98" transform="translate(25.000000, 38.000000)">
										<path id="Shape_76_" class="st9" d="M4.6,2.6C0-0.3-2,3.9,3.3,5.3C0.6,10.1,5.5,8.9,5.7,6C9.2,8.3,11,5.4,7.2,3.7
											C9.4-0.6,6.1-1.3,4.6,2.6z"/>
									</g>
								</g>
								<g id="_Grupo_99" transform="translate(23.000000, 0.000000)">
									<path id="Shape_77_" class="st21" d="M34.9,8C31.8,3.3,19.7-2.6,11.6,1.7s-14,18-9,31.1c5.8,15,12,20.4,25.7,17.1
										C41.7,46.6,38.7,27,38.7,27L34.9,8z"/>
								</g>
								<g id="_Grupo_100" transform="translate(30.000000, 6.000000)">
									<g id="_Grupo_101">
										<path id="Shape_78_" class="st23" d="M8.7,2.6c-12.1,2.3-9.9,28.8,3.7,33.6c15.5,5.5,48.9-1.3,55.1-6.3s-8.2-20.6-23.6-26
											S19,0.6,8.7,2.6z"/>
									</g>
									<g id="_Grupo_102" transform="translate(27.000000, 0.000000)">
										<path id="Shape_79_" class="st22" d="M2.2,11.4c2.5,5.4,7.5,9.3,13.3,10.5c6.3,1.4,11.6-1.1,16-5.5
											c0.7-0.8,1.4-1.5,2.1-2.4C28.7,9.6,23,6.2,16.8,4c-5-1.9-10.3-3-15.7-3.3C0.1,4.6,0.3,7.1,2.2,11.4z"/>
									</g>
									<g id="_Grupo_103" transform="translate(0.000000, 2.000000)">
										<path id="Shape_80_" class="st19" d="M29.7,34.6c-7.4-0.9-15.9-2.3-21-8.3C4,20.9,3.6,14.2,5.6,7.8
											c0.9-2.9,1.2-4.4,4.7-7.5L8.6,0.6c-12.1,2.3-9.9,28.8,3.8,33.6c7.3,2.6,18.6,2.5,29.1,1.1C37.6,35.3,33.6,35.1,29.7,34.6z
											"/>
									</g>
								</g>
								<g id="_Grupo_104" transform="translate(22.000000, 19.000000)">
									<path id="Shape_81_" class="st18" d="M20.5,32.3L20.5,32.3c-7.8-1-12.5-6.5-15.2-10.9c-4.5-7.5-5.6-16.5-4-20.5
										c0.1-0.4,0.6-0.6,1-0.4s0.6,0.6,0.4,1C1.3,5.2,2.5,13.8,6.6,20.7c2.5,4.1,6.9,9.3,14,10.2c0.4,0,0.7,0.4,0.7,0.8
										C21.3,32,20.9,32.4,20.5,32.3L20.5,32.3z"/>
								</g>
							</g>
							<g id="_Grupo_105" transform="translate(154.000000, 0.000000)">
								<g id="_Grupo_106" transform="translate(22.000000, 36.000000)">
									<path id="Shape_82_" class="st23" d="M0.3,10.6c5.3,9.8,9.9,28.1,10.9,46.9s11.6,29.6,26.3,28.3S48,74.1,47.9,70.5
										S12.5,1,12.5,1S3.5-2.6,0.3,10.6z"/>
								</g>
								<g id="_Grupo_107">
									<g id="_Grupo_108">
										<path id="Shape_83_" class="st23" d="M22.3,46.6c-3.7-3.5-11.1-8-11.4-13.1s-13.9-6.2-7.1-11.4c-3.3,0.4-5.4-3,0.4-7.4
											c-4.7,1.2-6.1-2.7,2-8.9C1.4,4.7,2-1,13.1,0.2c5.1,0.5,13.7,10,15.6,12s6.4,26,6.4,26l-1.4,8.4L22.3,46.6z"/>
									</g>
									<g id="_Grupo_109" transform="translate(6.000000, 3.000000)">
										<path id="Shape_84_" class="st24" d="M11.8,5.4c-0.2,0-0.4-0.1-0.5-0.2c-2.9-2.9-5-3.3-9.8-2C1.1,3.3,0.8,3.2,0.7,3
											C0.5,2.8,0.4,2.5,0.5,2.3S0.7,1.8,1,1.7c5.3-1.5,8-0.9,11.3,2.3c0.2,0.2,0.3,0.5,0.2,0.8C12.3,5.2,12.1,5.4,11.8,5.4
											L11.8,5.4z"/>
									</g>
									<g id="_Grupo_110" transform="translate(3.000000, 11.000000)">
										<path id="Shape_85_" class="st24" d="M1.2,4.5C0.9,4.5,0.6,4.3,0.5,4s0.1-0.7,0.3-0.9c5-3,8.9-3.1,10.7-0.2
											c0.2,0.4,0.1,0.8-0.2,1c-0.4,0.2-0.8,0.1-1-0.2C9,1.7,5.7,1.9,1.6,4.4C1.5,4.5,1.3,4.5,1.2,4.5z"/>
									</g>
									<g id="_Grupo_111" transform="translate(3.000000, 19.000000)">
										<path id="Shape_86_" class="st24" d="M1.5,3.5c-0.4,0-0.7-0.2-0.8-0.6S0.9,2.1,1.2,2c4-1.7,7.5-1.2,8.8,0.2
											c0.2,0.2,0.3,0.5,0.2,0.8S9.9,3.4,9.7,3.5C9.4,3.5,9.1,3.4,8.9,3.2C8.1,2.3,5.2,1.9,1.8,3.4C1.7,3.4,1.6,3.4,1.5,3.5z"/>
									</g>
								</g>
							</g>
						</g>
						<g id="_Grupo_112" transform="translate(37.000000, 0.000000)">
							<g id="_Grupo_113" transform="translate(14.000000, 19.000000)">
								<path id="Shape_87_" class="st23" d="M22,2.9C-6.4,12.5-1.2,37.1,7.2,54.5S29,87,54.6,77.7s6.5-44,2-49.8s-1.4-21.3-11-25.5
									S22,2.9,22,2.9z"/>
							</g>
							<g id="_Grupo_114" transform="translate(17.000000, 56.000000)">
								<path id="Shape_88_" class="st25" d="M58.9,0.2v0.4c0.2,2.6,0.8,8.3-2.6,9.3c-0.1,0-0.2,0-0.3,0c-0.6,0.4-1.3,0.6-2,0.4
									c-0.7-0.1-1.3-0.5-1.7-1.1c-2.6-4.3-14-0.9-16.6,1.3c-3.7,3-6.8,7.5-11.8,8.6c-4.2,0.9-7.1-2.2-9.8-5
									c-1.9-1.9-3.8-4.1-6.2-5.4C6.2,7.7,2.4,6.5,0,7.4c1.1,3.4,2.5,6.8,4.1,10C12.5,34.8,26,50,51.6,40.7
									C70.6,33.8,65,12.9,58.9,0.2z"/>
							</g>
							<g id="_Grupo_115" transform="translate(0.000000, 14.000000)">
								<path id="Shape_89_" class="st25" d="M21.7,49.5C18.4,47,13.5,13.7,44.9,15c4.3,0.1,5.2-10.9,11.6-7.6s7.6,3.9,11.1,16.1
									C67.4,13.7,66.3-5.2,42,2.3S-0.7,17.5,0.4,32s24,32.5,27.2,37.5S21.7,49.5,21.7,49.5z"/>
							</g>
							<g id="_Grupo_116" transform="translate(0.000000, 35.000000)">
								<path id="Shape_90_" class="st11" d="M17.2,31.3c-3.1-5.7-5.9-11.8-8.5-17.7C6.8,9.2,5.2,4.8,3.9,0.2
									C1.4,3.2,0.1,7.1,0.4,11c1.1,14.5,24,32.5,27.2,37.5c1.3,2.1,0.5-1.2-1-5.6C22.4,40.5,19.3,35.3,17.2,31.3z"/>
							</g>
							<g id="_Grupo_117" transform="translate(8.000000, 66.000000)">
								<path id="Shape_91_" class="st23" d="M13.1,3.1C6.9-3.1-0.7,2.6,0.8,6.9S8.7,18.4,16.8,15S13.1,3.1,13.1,3.1z"/>
							</g>
							<g id="_Grupo_118" transform="translate(25.000000, 66.000000)">
								<path id="Shape_92_" class="st25" d="M54.9,0.7c2.4,6.8,3.4,11.6,2.6,11.1c-0.9-0.5,2.2,4.8,0.3,5.5
									c-2,0.8,0.7,10.1-2.9,9.3c-3.5-0.8,2.5,7-2,7.4s1.1,5.2-3.2,5.7c-4.3,0.4-2.8,8.6-7.2,5.3s-5.2-1.9-7.2,0
									c-2,1.9-6.5-4.6-8.9-2.8c-2.3,1.8-2.9-6.7-5.8-5.1s-6.9-9-8.2-4.6s-5.6-10.9-7-9.4s-4.7-8.1-4.7-8.1l17.7,0.7l28-7.8
									L54.9,0.7z"/>
							</g>
							<g id="_Grupo_119" transform="translate(25.000000, 78.000000)">
								<path id="Shape_93_" class="st11" d="M57.4,0.2c0,0.7-0.5,1.3-1.2,1.5c-2.4,0.8-1.2,4.6-0.7,6.1c0.3,1.1-0.7,1.9-1.8,1.7
									c-2.7-0.4-5.4,0.3-4.5,3.9c0.1,0.6-0.1,1.2-0.5,1.5c-0.5,0.4-1.1,0.4-1.6,0.1c-6.2-3-3.4,3.7-3,4.6c0.7,1.6-1.8,2.8-2.8,1.6
									c-3.3-3.6-5.9-1-7,2.3c-0.2,0.7-0.8,1.2-1.6,1.3c-0.7,0.1-1.5-0.3-1.9-0.9c-1.6-2.1-5.7-10.6-7.3-4.7c-0.5,1.9-3.6,2.1-4,0
									c-0.3-1.6-0.7-3.1-1.2-4.6c-0.7-2.1-1.1-4.3-2.6-1.7c-0.4,0.7-1.1,1.1-1.9,1.2c-0.8,0.1-1.6-0.2-2.1-0.7
									C8.1,10.4,4.3,7.4,2,3.2L0.6,3.2c0,0,3.3,9.7,4.7,8.1s5.7,13.7,7,9.4s5.3,6.2,8.2,4.6s3.4,6.8,5.8,5.1s6.8,4.8,8.9,2.8
									s2.8-3.2,7.2,0s2.9-4.9,7.2-5.3c4.3-0.4-1.3-5.2,3.2-5.6s-1.5-8.2,2-7.4s0.9-8.6,2.9-9.3C59.3,4.7,57.7,1.4,57.4,0.2z"/>
							</g>
							<g id="_Grupo_120" transform="translate(2.000000, 0.000000)">
								<path id="Shape_94_" class="st25" d="M60.4,25.1c4.7-3.7-2.5-29-28.4-24.6C-1.5,6.3-5,27.4,5.4,37.6s9.7-5.6,9.7-5.6
									l25-11.2l10.3-2l8.2,3.1L60.4,25.1z"/>
							</g>
							<g id="_Grupo_121" transform="translate(54.000000, 51.000000)">
								<path id="Shape_95_" class="st23" d="M1.4,1c1.1,1.8,8.3,5.8,8.3,5.8c2.6,1.7,1.4,3.6-1.1,5.5s-5.7,1-6.4,1.8"/>
								<path id="Shape_96_" class="st24" d="M2.2,14.8c-0.3,0-0.6-0.2-0.7-0.5s-0.1-0.6,0.1-0.8C2.1,13,2.9,13,4,12.9
									c1.5,0,2.9-0.4,4.2-1.2c1.5-1.1,2.3-2,2.3-2.8c0-0.5-0.4-1-1.1-1.4C8.6,7,1.9,3.3,0.8,1.4c-0.1-0.2-0.1-0.5,0-0.8
									s0.4-0.4,0.7-0.4s0.5,0.1,0.7,0.4c0.7,1.2,5.3,4.1,8,5.6c1,0.5,1.8,1.5,1.9,2.7c0,1.3-0.9,2.6-3,4c-1.5,0.9-3.2,1.4-4.9,1.5
									c-0.5,0-0.9,0.1-1.3,0.2C2.6,14.7,2.4,14.8,2.2,14.8z"/>
							</g>
							<g id="_Grupo_122" transform="translate(56.000000, 67.000000)">
								<path id="Shape_97_" class="st26" d="M1.7,6.8C1.3,6.8,0.9,6.4,0.9,6s0.3-0.8,0.7-0.8C7,4.9,8.5,4.4,10,1.3
									c0.1-0.2,0.4-0.4,0.6-0.4c0.3,0,0.5,0.1,0.7,0.3s0.2,0.5,0.1,0.7C9.5,5.8,7.1,6.4,1.7,6.8L1.7,6.8z"/>
							</g>
							<g id="_Grupo_123" transform="translate(59.000000, 44.000000)">
								
									<ellipse id="Oval" transform="matrix(0.9241 -0.3822 0.3822 0.9241 -0.9766 1.1619)" class="st27" cx="2.4" cy="3" rx="1.4" ry="1.8"/>
							</g>
							<g id="_Grupo_124" transform="translate(42.000000, 51.000000)">
								
									<ellipse id="Oval_1_" transform="matrix(0.9241 -0.3822 0.3822 0.9241 -0.9281 1.1)" class="st28" cx="2.3" cy="2.9" rx="1.5" ry="2"/>
							</g>
							<g id="_Grupo_125" transform="translate(32.000000, 42.000000)">
								<path id="Shape_98_" class="st29" d="M2,9.9c-0.2,0-0.5-0.1-0.6-0.3C0.7,8.4,0.6,7,1.2,5.7c1.2-2.4,3.4-4.2,5.9-5
									c2.2-0.6,4.5-0.1,6.2,1.3c0.2,0.2,0.3,0.4,0.3,0.7s-0.2,0.5-0.5,0.6s-0.5,0.1-0.7-0.1c-1.4-1.1-3.2-1.5-4.9-1
									c-2.1,0.6-3.9,2.1-4.9,4C2.3,7,2.3,7.9,2.7,8.7c0.2,0.2,0.2,0.5,0,0.8S2.3,9.9,2,9.9L2,9.9z"/>
							</g>
							<g id="_Grupo_126" transform="translate(55.000000, 36.000000)">
								<path id="Shape_99_" class="st29" d="M1.5,7.3c-0.4,0-0.8-0.3-0.8-0.8c0-3.9,2-5.1,2.9-5.4c1.4-0.6,3-0.3,4.1,0.8
									C8,2,8.1,2.3,8,2.6C7.9,2.9,7.7,3.1,7.4,3.2c-0.3,0-0.6-0.1-0.8-0.3C6,2.3,5,2.1,4.2,2.4C3,2.9,2.3,4.4,2.3,6.4
									c0,0.2-0.1,0.4-0.2,0.6S1.7,7.3,1.5,7.3z"/>
							</g>
							<g id="_Grupo_127" transform="translate(11.000000, 70.000000)">
								<path id="Shape_100_" class="st24" d="M9.3,8.6c-0.4,0-0.7,0-1.1-0.1c-0.3,0-0.5-0.2-0.6-0.5C7.5,7.9,7.6,7.6,7.7,7.4
									C7.9,7.2,8.1,7,8.4,7.1c1,0.1,2.4,0,2.6-0.4c0.1-0.2,0-0.6-0.3-1.1c-1.2-2-4.9-3.3-7.2-3C2.8,2.6,2.3,2.9,2.3,3.2
									C2.2,3.6,1.7,3.8,1.3,3.7S0.7,3.2,0.8,2.8C1,2.2,1.5,1.3,3.3,1.1c2.5-0.3,7,0.9,8.7,3.7c0.6,0.8,0.7,1.9,0.3,2.8
									C11.7,8.5,10.3,8.6,9.3,8.6z"/>
							</g>
							<g id="_Grupo_128" transform="translate(16.000000, 73.000000)">
								<path id="Shape_101_" class="st24" d="M1.1,3.7c-0.4,0-0.7-0.2-0.8-0.6C0.3,2.7,0.4,2.2,0.7,1.9c1-1.3,4.1-1.5,4.7-1.5
									c0.4,0,0.8,0.3,0.8,0.7S5.9,1.8,5.5,1.8c-1.2,0.1-3.2,0.4-3.6,1c0.1,0.4-0.2,0.8-0.7,0.9L1.1,3.7z"/>
							</g>
							<g id="_Grupo_129" transform="translate(11.000000, 36.000000)">
								<path id="Shape_102_" class="st25" d="M14.7,30.7c-5.7-7.1-3.2-13.8-2.2-17.3S9.8,6.3,11.8,1.6S0.5,5.7,0.5,5.7v12.3
									l5.6,9.5L14.7,30.7z"/>
							</g>
							<g id="_Grupo_130" transform="translate(6.000000, 9.000000)">
								<path id="Shape_103_" class="st11" d="M6.5,29.3H6.3c-2.5-0.7-4.7-3.7-5.7-7.7c-1.2-4.7-0.8-11.4,4.1-16.1
									c4.6-4.4,14.6-8.3,36.2-1.7c10.5,3.7,12.9,2.4,12.9,2.3c0.3-0.2,0.7-0.2,1,0.1C55,6.6,55,7,54.7,7.3
									c-0.4,0.3-2.9,1.9-14.3-2.1C19.5-1.1,10,2.5,5.7,6.6S0.9,16.9,2,21.2c0.9,3.4,2.8,6.1,4.7,6.6c0.4,0.1,0.6,0.4,0.6,0.8
									C7.2,29,6.9,29.3,6.5,29.3L6.5,29.3z"/>
							</g>
							<g id="_Grupo_131" transform="translate(14.000000, 15.000000)">
								<path id="Shape_104_" class="st11" d="M5.3,22.9c-0.3,0-0.5-0.1-0.6-0.4c-4.4-7.1-5.5-13-3-17.1s8.5-5.9,17.2-5.2
									c22.6,1.8,27.4,2.9,27.5,3c0.3,0.1,0.5,0.3,0.5,0.5c0.1,0.3,0,0.5-0.2,0.7c-0.2,0.2-0.5,0.3-0.7,0.2c0,0-5-1.2-27.3-2.9
									C10.6,1,5.2,2.6,3,6.2s-1.1,9,3,15.5c0.1,0.2,0.2,0.5,0,0.8C5.8,22.7,5.6,22.9,5.3,22.9L5.3,22.9z"/>
							</g>
							<g id="_Grupo_132" transform="translate(19.000000, 19.000000)">
								<path id="Shape_105_" class="st11" d="M2.5,14.5c-0.3,0-0.5-0.2-0.7-0.4c-1.3-2.5-1-5.5,0.8-7.7C5.4,2.6,13-0.6,25.5,1.9
									c0.4,0.1,0.7,0.5,0.6,0.9c-0.1,0.4-0.5,0.7-0.9,0.6C13.3,1,6.4,3.8,3.8,7.2C2.3,9,2.1,11.4,3.1,13.4c0.1,0.2,0.1,0.5,0,0.7
									C3,14.3,2.7,14.5,2.5,14.5L2.5,14.5z"/>
							</g>
						</g>
					</g>
				</g>
				<g id="_Grupo_133" transform="translate(0.000000, 184.000000)">
					<g id="_Grupo_134">
						<g id="_Grupo_135">
							<path id="Shape_106_" class="st2" d="M27.8,2C17.3,22,412.2,66.9,412.2,79.7c0,9.9-21.1,72.8-76.4,73.1
								c-7.7,0-298.7,4.4-305.3-0.9C-47.7,88.6,36.7-14.9,27.8,2z"/>
						</g>
					</g>
				</g>
				<g id="_Grupo_136" transform="translate(72.000000, 190.000000)">
					<g id="_Grupo_137" transform="translate(0.000000, 41.000000)">
						<path id="Shape_107_" class="st0" d="M18,1.7C9.1,2.7-3.5,18.5,1.6,25.2c3.5,4.5,11.4,8.7,25.2,3.4c9-3.4,20.9-15.9,17.2-19.2
							c-3.8-3.3-6.2-9.7-13.4-9.1S18,1.7,18,1.7z"/>
					</g>
					<g id="_Grupo_138" transform="translate(21.000000, 0.000000)">
						<g id="_Grupo_139">
							<path id="Shape_108_" class="st23" d="M73,14.8c-0.4-1.8-1-3.5-2-5C67.4,3.7,57.1-1.9,48.8,1c-5.8,2-10.5,6.3-14.5,10.2
								c-9.2,8.9-15.8,19.6-25.7,28c-1.9,1.6-5.2,4.5-8.3,3.6c-0.2,0.1,1.9,4.8,1.8,4.9C1.2,48.1,0.6,49,0.5,50
								c-0.2,0.3-0.1,0.6,0.1,0.8c0.3,1.1,1.1,2,2.2,2.4s2.3,0.3,3.2-0.4c7-4.1,14.9-4.5,22.2-7.6c10.6-4.5,21.7-8.5,31.8-14
								C67.4,27,73,23.9,73,14.8z"/>
						</g>
						<g id="_Grupo_140" transform="translate(22.000000, 11.000000)">
							<path id="Shape_109_" class="st19" d="M49.9,0.3c-0.9,4-3.1,7.6-6.4,10.1c-6.3,5.2-14.7,9.5-22.1,12.9c-4.3,1.9-9,3.4-13,6
								c-2.8,2-5.5,4.3-7.8,6.9c1.9-0.5,3.7-1.2,5.5-1.9c10.6-4.5,21.7-8.5,31.8-14C45.4,16.1,51,13,51,3.8
								C50.8,2.6,50.4,1.4,49.9,0.3z"/>
						</g>
					</g>
					<g id="_Grupo_141" transform="translate(1.000000, 35.000000)">
						<g id="_Grupo_142">
							<path id="Shape_110_" class="st23" d="M25.9,1.6c-0.8,0.2-1.5,0.5-2.2,0.8C15,2.8,7.4,8,3.8,15.9c-2.2,2.3-3.7,5.7-3,8
								c1,3.6,5.1,3.1,8.1,3c2.2,0.1,4.3,0,6.5-0.1c2,0.4,4,0.6,5.6-0.1c2.6-1.2,4.1-4.6,5.6-6.8c2.5-3.5,5.1-4.5,8.1-4.2
								c-2.3,2.8-4.4,5.8-6.2,9c-0.3,0.6-0.3,1.2-0.1,1.8c0.2,0.6,0.7,1,1.3,1.2c2.6,1,5.1-1.3,6.8-3c2.3-2.3,4.5-4.8,6.7-7.3
								c0.5-0.2,0.9-0.6,1.1-1.1c0.8-0.4,1.4-1.1,1.6-2C49,2.6,33-2.3,25.9,1.6z"/>
						</g>
						<g id="_Grupo_143" transform="translate(14.000000, 8.000000)">
							<path id="Shape_111_" class="st24" d="M1.3,16.9H1.2c-0.2,0-0.4-0.1-0.5-0.3s-0.2-0.4-0.1-0.6C1.9,6.2,6.1,1.7,9.3,0.8
								c0.4-0.1,0.8,0.1,0.9,0.5s-0.1,0.8-0.5,0.9c-2.2,0.6-6.3,4.2-7.6,14C2,16.6,1.7,16.9,1.3,16.9z"/>
						</g>
						<g id="_Grupo_144" transform="translate(8.000000, 9.000000)">
							<path id="Shape_112_" class="st24" d="M1,15.9c-0.2,0-0.4-0.1-0.5-0.2c-0.1-0.1-0.2-0.3-0.2-0.5C0.6,7.9,3.4,1.6,5.8,0.3
								c0.4-0.2,0.8-0.1,1,0.3c0.2,0.4,0.1,0.8-0.3,1c-1.8,1-4.4,6.6-4.8,13.5C1.8,15.6,1.4,15.9,1,15.9z"/>
						</g>
						<g id="_Grupo_145" transform="translate(3.000000, 14.000000)">
							<path id="Shape_113_" class="st24" d="M1.2,10.9c-0.4,0-0.7-0.3-0.8-0.7c-0.3-4,2.6-9,2.8-9.2c0.2-0.4,0.7-0.5,1-0.2
								s0.5,0.7,0.2,1c0,0-2.9,4.7-2.6,8.3c0,0.2,0,0.4-0.2,0.6S1.4,10.9,1.2,10.9L1.2,10.9z"/>
						</g>
					</g>
				</g>
				<g id="_Grupo_146" transform="translate(161.000000, 287.000000)">
					<g id="_Grupo_147">
						<path id="Shape_114_" class="st30" d="M10.4,7.9C17.9,5.3,120.3,0,127.6,0.9s24.1,18.8,24.5,24.6
							C152.5,31.3,2.6,40.4,0.4,36.2C-1.8,32,10.4,7.9,10.4,7.9z"/>
					</g>
					<g id="_Grupo_148">
						<path id="Shape_115_" class="st30" d="M92.2,25.8c16-1.3,31.9-2.8,47.8-4.6c3.2-0.4,6.4-0.8,9.6-1.2
							c-5-7.6-16.3-18.3-21.9-19.1C120.3,0,17.9,5.3,10.4,7.9c0,0-7.1,13.9-9.5,22.4C31.4,29.4,61.8,28.2,92.2,25.8z"/>
					</g>
					<g id="_Grupo_149" transform="translate(0.000000, 23.000000)">
						<path id="Shape_116_" class="st31" d="M140.9,1.9C125,3.6,109.1,5.1,93.1,6.3c-30.8,2.4-61.9,4-92.8,3.3C0,10.8,0,12,0.3,13.1
							C2.6,17.3,152.4,8.3,152,2.5c-0.1-0.6-0.2-1.2-0.4-1.7C148.1,1.2,144.5,1.5,140.9,1.9z"/>
					</g>
					<g id="_Grupo_150" transform="translate(13.000000, 3.000000)">
						<path id="Shape_117_" class="st31" d="M1.2,8.8c-0.4,0-0.7-0.3-0.8-0.6C0.3,7.9,0.6,7.5,0.9,7.4c7.9-2.9,110.4-9,114.3-6.8
							c0.2,0.1,0.4,0.4,0.4,0.6c0,0.3-0.1,0.5-0.4,0.6c-0.2,0.1-0.5,0.1-0.8,0C110.1-0.1,8.7,6.1,1.4,8.8C1.4,8.8,1.3,8.8,1.2,8.8z"
							/>
					</g>
					<g id="_Grupo_151" transform="translate(10.000000, 7.000000)">
						<path id="Shape_118_" class="st31" d="M1.7,10C1.3,10,1,9.7,0.9,9.4s0.1-0.7,0.5-0.8C9,5.7,118.8-0.8,122.5,1.3
							c0.4,0.2,0.5,0.7,0.3,1c-0.2,0.4-0.7,0.5-1,0.3C117.5,0.7,8.8,7.4,1.9,10C1.9,10,1.8,10,1.7,10z"/>
					</g>
					<g id="_Grupo_152" transform="translate(8.000000, 13.000000)">
						<path id="Shape_119_" class="st31" d="M1.4,10.4c-0.4,0-0.7-0.3-0.8-0.6C0.6,9.4,0.8,9,1.2,8.9C9.3,5.9,126-1.5,130,0.8
							c0.4,0.2,0.5,0.7,0.3,1s-0.7,0.5-1,0.3C124.6,0.1,9,7.6,1.7,10.3C1.6,10.3,1.5,10.3,1.4,10.4z"/>
					</g>
					<g id="_Grupo_153" transform="translate(7.000000, 19.000000)">
						<path id="Shape_120_" class="st31" d="M0.8,10.3c-0.4,0-0.8-0.3-0.8-0.8s0.3-0.8,0.8-0.8c8.9-0.5,132.5-8.5,133.2-8.6
							c0.4,0,0.8,0.3,0.8,0.7s-0.3,0.8-0.7,0.8C133.4,1.8,9.8,9.8,0.8,10.3L0.8,10.3z"/>
					</g>
					<g id="_Grupo_154" transform="translate(16.000000, 7.000000)">
						<path id="Shape_121_" class="st31" d="M1.2,21.6H1c-0.2-0.1-0.4-0.2-0.5-0.4c-0.1-0.2-0.1-0.4-0.1-0.6c0.2-0.6,4.4-16,8-19.5
							C8.6,1,9,0.9,9.3,1C9.5,1,9.8,1.3,9.8,1.6c0,0.3-0.1,0.6-0.3,0.8C6.2,5.5,2,21,1.9,21.1C1.8,21.4,1.5,21.6,1.2,21.6z"/>
					</g>
					<g id="_Grupo_155" transform="translate(118.000000, 2.000000)">
						<path id="Shape_122_" class="st31" d="M12.4,19.5c-0.3,0-0.5-0.1-0.7-0.4C8.8,13.9,2.8,3.6,1,1.8C0.7,1.5,0.7,1.1,1,0.8
							s0.8-0.3,1.1,0c2.4,2.4,10.6,17,11,17.6c0.2,0.4,0.1,0.8-0.3,1C12.7,19.4,12.5,19.5,12.4,19.5z"/>
					</g>
					<g id="_Grupo_156" transform="translate(70.000000, 10.000000)">
						<path id="Shape_123_" class="st31" d="M1,15.3c-0.2,0-0.4-0.1-0.5-0.2s-0.2-0.3-0.2-0.5c0-0.1,0.2-6.3,0-13.6
							c0-0.2,0.1-0.4,0.2-0.5S0.8,0.1,1,0.1c0.4,0,0.7,0.3,0.8,0.7c0.1,7.3,0,13.6,0,13.7C1.7,15,1.4,15.3,1,15.3z"/>
					</g>
					<g id="_Grupo_157" transform="translate(96.000000, 8.000000)">
						<path id="Shape_124_" class="st31" d="M4.1,15.4c-0.4,0-0.7-0.3-0.8-0.7c0-0.1-0.9-9.1-2.4-13c-0.1-0.4,0-0.8,0.4-1
							s0.8,0,1,0.4c1.6,4.1,2.5,13,2.5,13.4c0,0.2,0,0.4-0.2,0.6C4.6,15.2,4.4,15.3,4.1,15.4L4.1,15.4z"/>
					</g>
					<g id="_Grupo_158" transform="translate(103.000000, 3.000000)">
						<path id="Shape_125_" class="st31" d="M7.2,19.8c-0.3,0-0.6-0.2-0.7-0.5c0-0.1-3.8-13-6-17.7c-0.2-0.4,0-0.8,0.4-1
							s0.8,0,1,0.4c2.2,4.8,5.9,17.4,6.1,17.9c0.1,0.2,0,0.5-0.1,0.7C7.6,19.7,7.4,19.8,7.2,19.8L7.2,19.8z"/>
					</g>
					<g id="_Grupo_159" transform="translate(112.000000, 3.000000)">
						<path id="Shape_126_" class="st31" d="M6.8,18.7c0,0-4.4-12.7-5.9-17.2c-0.1-0.4,0.1-0.8,0.5-1s0.8,0.1,1,0.5
							c1.6,4.5,6,17.2,6,17.2L6.8,18.7z"/>
					</g>
					<g id="_Grupo_160" transform="translate(88.000000, 9.000000)">
						<path id="Shape_127_" class="st31" d="M2.8,13.7c0,0-1.6-8.3-2.5-12.7C0.2,0.6,0.4,0.2,0.8,0.1s0.8,0.2,0.9,0.6
							c0.9,4.4,2.5,12.8,2.5,12.8L2.8,13.7z"/>
					</g>
					<g id="_Grupo_161" transform="translate(78.000000, 9.000000)">
						<path id="Shape_128_" class="st31" d="M3.1,14.4c-0.4,0-0.7-0.3-0.7-0.6C1.6,9.6,1.1,5.5,0.9,1.4C0.9,1.2,1,1,1.1,0.8
							s0.3-0.2,0.5-0.2c0.4,0,0.7,0.3,0.8,0.7c0.2,4.1,0.7,8.1,1.4,12.1c0,0.2,0,0.4-0.1,0.6c-0.1,0.2-0.3,0.3-0.5,0.3L3.1,14.4z"/>
					</g>
					<g id="_Grupo_162" transform="translate(59.000000, 10.000000)">
						<path id="Shape_129_" class="st31" d="M1.6,15.3H1.5c-0.2,0-0.4-0.1-0.5-0.3c-0.1-0.2-0.2-0.4-0.1-0.6c0-0.1,1.4-8.3,1.7-13.3
							c0-0.4,0.4-0.7,0.8-0.7c0.2,0,0.4,0.1,0.5,0.2s0.2,0.3,0.2,0.5C3.9,6.3,2.5,14.3,2.4,14.7C2.3,15,2,15.3,1.6,15.3z"/>
					</g>
					<g id="_Grupo_163" transform="translate(26.000000, 8.000000)">
						<path id="Shape_130_" class="st31" d="M0.9,19.4c-0.2,0-0.5-0.1-0.6-0.3c-0.1-0.2-0.2-0.5-0.1-0.7C0.3,17.8,4,5.6,6.2,1.4
							C6.4,1,6.9,0.8,7.2,1s0.5,0.7,0.3,1C5.4,6.1,1.6,18.6,1.6,18.8C1.5,19.1,1.2,19.3,0.9,19.4z"/>
					</g>
					<g id="_Grupo_164" transform="translate(39.000000, 7.000000)">
						<path id="Shape_131_" class="st31" d="M1.6,6.6C1.3,6.6,1.1,6.5,1,6.3C0.8,6.1,0.8,5.8,0.9,5.6c1-3.2,1.5-4.3,1.5-4.4
							c0.2-0.4,0.6-0.6,1-0.4s0.6,0.6,0.4,1c0,0-0.5,1.1-1.5,4.2C2.2,6.3,1.9,6.6,1.6,6.6z"/>
					</g>
					<g id="_Grupo_165" transform="translate(36.000000, 17.000000)">
						<path id="Shape_132_" class="st31" d="M1.3,9.8H1.2C1,9.8,0.8,9.6,0.7,9.5S0.5,9.1,0.5,8.9c0.1-1,0.2-1.7,0.3-2.3
							C1,4.7,1.4,2.9,2,1.1c0.1-0.3,0.3-0.5,0.6-0.5s0.5,0,0.7,0.2C3.5,1,3.5,1.3,3.5,1.6C2.9,3.2,2.5,5,2.3,6.8
							C2.2,7.4,2.2,8.2,2,9.1C2,9.5,1.6,9.8,1.3,9.8z"/>
					</g>
					<g id="_Grupo_166" transform="translate(47.000000, 6.000000)">
						<path id="Shape_133_" class="st31" d="M1.5,19.6H1.4c-0.2,0-0.4-0.2-0.5-0.3c-0.1-0.2-0.2-0.4-0.1-0.6
							c0-0.1,2.8-13.7,3.5-17.4c0.1-0.3,0.2-0.5,0.5-0.6s0.5,0,0.7,0.1c0.2,0.2,0.3,0.4,0.2,0.7C5.1,5.4,2.3,18.9,2.3,19.1
							C2.2,19.4,1.9,19.6,1.5,19.6z"/>
					</g>
					<g id="_Grupo_167" transform="translate(7.000000, 10.000000)">
						<path id="Shape_134_" class="st31" d="M0.8,19.2c-0.2,0-0.5-0.1-0.6-0.3c-0.1-0.2-0.2-0.5-0.1-0.7c0.8-2.6,4.8-15.7,6-17.1
							C6.3,0.8,6.8,0.7,7.1,1S7.5,1.7,7.2,2c-0.6,0.8-3.4,9.1-5.7,16.6C1.5,19,1.2,19.2,0.8,19.2z"/>
					</g>
					<g id="_Grupo_168" transform="translate(127.000000, 3.000000)">
						<path id="Shape_135_" class="st31" d="M14.1,17.8c-0.2,0-0.5-0.1-0.6-0.3C13.4,17.3,4,4.6,0.4,1.8C0.2,1.7,0.1,1.4,0.1,1.1
							s0.2-0.5,0.5-0.6s0.5-0.1,0.7,0.1c3.8,2.9,13,15.4,13.4,15.9c0.2,0.2,0.2,0.5,0.1,0.8C14.6,17.6,14.4,17.8,14.1,17.8z"/>
					</g>
				</g>
				<g id="_Grupo_169" transform="translate(141.000000, 229.000000)">
					<g id="_Grupo_170" transform="translate(0.000000, 2.000000)">
						<path id="Shape_136_" class="st31" d="M0.9,28.3c0,0,66.2,29,68.8,26.9c4.2-3.6,26.4-28.2,26.4-31.4c0-0.4,0.6-1.8,0-2.1
							C82.9,14,27.8,0.3,27.8,0.3L0.9,28.3z"/>
					</g>
					<g id="_Grupo_171">
						<path id="Shape_137_" class="st30" d="M0.9,28.2c0,0,66.2,29,68.8,26.9c4.2-3.7,26.4-28.2,26.4-31.4S27.8,0.4,27.8,0.4
							L0.9,28.2z"/>
					</g>
					<g id="_Grupo_172" transform="translate(12.000000, 5.000000)">
						<path id="Shape_138_" class="st31" d="M0.2,21.3c0,0,54.5,22.4,56.5,20.7c3.2-2.8,20-21.3,20-23.8S18.7,0.5,18.7,0.5L0.2,21.3
							z"/>
					</g>
				</g>
				<g id="_Grupo_173" transform="translate(302.000000, 231.000000)">
					<g id="_Grupo_174" transform="translate(30.000000, 10.000000)">
						<g id="_Grupo_175">
							<path id="Shape_139_" class="st32" d="M3.4,29.9c-0.6,0-1.1-0.1-1.7-0.2l0.9-4.8c0.9,0.2,2,0,2.7-0.6
								c1.7-1.3,2.8-4.5,2.9-8.4C8.4,11.8,7,7.6,5,6.1c-0.8-0.7-2-0.9-3-0.5L0.7,0.8C3.3,0,6,0.5,8.1,2.2c4,3.1,5.2,9.4,5.1,13.9
								c-0.2,5.4-1.9,9.8-4.7,12.1C7,29.3,5.2,29.9,3.4,29.9z"/>
						</g>
					</g>
					<g id="_Grupo_176" transform="translate(30.000000, 10.000000)">
						<g id="_Grupo_177">
							<path id="Shape_140_" class="st23" d="M5,6c2,1.6,3.3,5.7,3.2,9.9c0,2.2-0.5,4.3-1.4,6.3c2.6-2.6,4.6-5.8,5.8-9.3
								c0.1-0.3,0.2-0.6,0.3-0.9c-0.5-3.7-2-7.6-4.8-9.8C6,0.5,3.3-0.1,0.8,0.7L2,5.5C3.1,5.1,4.2,5.3,5,6z"/>
						</g>
					</g>
					<g id="_Grupo_178">
						<path id="Shape_141_" class="st32" d="M2,4.2c-3.8,1.3,0,34.5,0,37.7c0,3.2,3.3,9.3,16.6,9.3s15.3-6.6,15.6-9.3
							c0.3-2.7-0.2-36.4-2-37.7c-1.8-1.4-11.5-2.9-16.7-3.3S2,4.2,2,4.2z"/>
					</g>
					<g id="_Grupo_179">
						<path id="Shape_142_" class="st22" d="M10.4,11.1c4.5,0.4,10,0.8,14.3-0.7c3-1,6.1-2.1,7.9-5.5c0-0.3-0.2-0.6-0.4-0.8
							c-1.8-1.4-11.5-2.9-16.7-3.3S2,4.2,2,4.2c-0.5,0.2-0.9,1-1.2,2.3C3.2,9.3,6.7,11,10.4,11.1z"/>
					</g>
					<g id="_Grupo_180" transform="translate(1.000000, 6.000000)">
						<path id="Shape_143_" class="st0" d="M17.2,6.3c-0.3,0-0.7,0-1-0.1c-0.7-0.1-1.6-0.2-2.6-0.2C9.1,5.6,2.9,5.1,0.2,2
							C0,1.8,0,1.5,0,1.3s0.3-0.4,0.6-0.5c0.3-0.1,0.5,0,0.7,0.2c2.3,2.7,8.4,3.2,12.4,3.5c1,0.1,1.9,0.2,2.6,0.3
							c3.6,0.5,11.2-2.5,12.9-4c0.2-0.2,0.5-0.2,0.7-0.2c0.3,0.1,0.4,0.3,0.5,0.6c0.1,0.3,0,0.5-0.2,0.7C28.5,3.5,21.5,6.3,17.2,6.3
							z"/>
					</g>
				</g>
				<g id="_Grupo_181" transform="translate(249.000000, 240.000000)">
					<g id="_Grupo_182">
						<path id="Shape_144_" class="st20" d="M1.1,5.8C-1,1.1,4-2,6.5,2.2s10.8,19.9,12.4,23.9c1.6,4,1.4,10,1.4,10s-2,0.4-5.4-2.9
							S2.6,8.9,1.1,5.8z"/>
					</g>
					<g id="_Grupo_183" transform="translate(12.000000, 24.000000)">
						<path id="Shape_145_" class="st14" d="M0.9,7.3C0.5,7.3,0.2,7,0.2,6.6c0-3,1-5,2.8-5.5c1.4-0.4,3,0.5,3.9,2.2
							C7.1,3.6,7,4,6.6,4.2C6.2,4.4,5.8,4.3,5.6,4C5,2.9,4.1,2.3,3.4,2.5s-1.7,1.4-1.7,4c0,0.2-0.1,0.4-0.2,0.5
							C1.3,7.2,1.2,7.3,0.9,7.3L0.9,7.3z"/>
					</g>
					<g id="_Grupo_184" transform="translate(5.000000, 10.000000)">
						<path id="Shape_146_" class="st14" d="M3.9,6.9c-0.3,0-0.5-0.2-0.7-0.4c0,0-1.2-2.3-2.4-5.3C0.7,1,0.7,0.7,0.9,0.5
							s0.4-0.3,0.7-0.3s0.5,0.2,0.6,0.5c1.2,2.9,2.4,5.2,2.4,5.2c0.1,0.2,0.1,0.5,0,0.7C4.4,6.8,4.1,6.9,3.9,6.9L3.9,6.9z"/>
					</g>
					<g id="_Grupo_185" transform="translate(8.000000, 16.000000)">
						<path id="Shape_147_" class="st14" d="M3.7,6.9C3.4,6.9,3.1,6.7,3,6.5c0,0-1.2-2.3-2.4-5.3C0.5,0.9,0.5,0.6,0.7,0.4
							s0.4-0.3,0.7-0.3S1.8,0.3,2,0.6c1.2,2.9,2.4,5.2,2.4,5.2c0.1,0.2,0.1,0.5,0,0.7C4.2,6.7,3.9,6.9,3.7,6.9L3.7,6.9z"/>
					</g>
					<g id="_Grupo_186" transform="translate(17.000000, 33.000000)">
						<path id="Shape_148_" class="st14" d="M1.2,3.5C0.9,3.5,0.7,3.3,0.6,3C0.3,2.6,0.3,2,0.6,1.6C1.2,1,2,0.7,2.8,0.8
							C3,0.8,3.2,0.9,3.3,1s0.2,0.3,0.2,0.5c0,0.2-0.1,0.4-0.2,0.5C3.1,2.3,2.9,2.3,2.7,2.3c-0.3,0-0.5,0-0.8,0.1
							C2,2.6,2,2.9,1.9,3.1S1.5,3.5,1.2,3.5L1.2,3.5z"/>
					</g>
				</g>
				<g id="_Grupo_187" transform="translate(11.000000, 123.000000)">
					<g id="_Grupo_188" transform="translate(8.000000, 126.000000)">
						<path id="Shape_149_" class="st32" d="M1.7,0.9C1.3,1.1,1.1,1.7,1,2.6c-0.4,3.7,0.9,12.1,0.7,16c-0.2,4.8,15.8,8.6,15.8,8.6
							V4.7L1.7,0.9z"/>
					</g>
					<g id="_Grupo_189" transform="translate(28.000000, 133.000000)">
						<path id="Shape_150_" class="st32" d="M1.7,0.4C1.3,0.6,1.1,1.3,1,2.1c-0.4,3.7,0.9,12.1,0.7,16c-0.2,4.8,15.8,8.6,15.8,8.6
							V4.2L1.7,0.4z"/>
					</g>
					<g id="_Grupo_190" transform="translate(8.000000, 126.000000)">
						<path id="Shape_151_" class="st23" d="M9.8,8.9l7.6,2.7v-7L1.7,0.9C1.3,1.1,1.1,1.7,1,2.6C0.9,3.8,0.9,5,1,6.3
							C3.9,7.2,7,7.9,9.8,8.9z"/>
					</g>
					<g id="_Grupo_191" transform="translate(28.000000, 133.000000)">
						<path id="Shape_152_" class="st23" d="M9.9,9.1c2.5,0.9,5,1.8,7.5,2.6V4.2L1.7,0.4C1.3,0.6,1.1,1.3,1,2.1
							C0.9,3.4,0.9,4.7,1,5.9L9.9,9.1z"/>
					</g>
					<g id="_Grupo_192" transform="translate(51.000000, 129.000000)">
						<g id="_Grupo_193">
							<path id="Shape_153_" class="st33" d="M21.7,0.3c5,11.2,7.9,36.5,6.5,42.8c-1.5,6.2-21,16.9-27,19.5s40,16.7,42,14.2
								s17.5-16.5,17.5-22S56.1,0.3,56.1,0.3H21.7z"/>
						</g>
						<g id="_Grupo_194" transform="translate(21.000000, 0.000000)">
							<path id="Shape_154_" class="st7" d="M7.4,41.1c8.1,4.1,16.5,7.7,25,10.8c2.4,0.9,4.8,1.8,7.2,2.6
								c-0.2-6.8-4.5-54.2-4.5-54.2H0.7C5.2,10.6,8.1,32.6,7.4,41.1z"/>
						</g>
					</g>
					<g id="_Grupo_195">
						<path id="Shape_155_" class="st33" d="M5.4,0.5c18.1,2.3,164.1,26.9,175.1,27.8c8.2,0.7,4.6,139.2-3.7,145.6
							c-8.3,6.4-166.3-41.7-170-46.7C3.1,122.4-4.3-0.7,5.4,0.5z"/>
					</g>
					<g id="_Grupo_196" transform="translate(7.000000, 14.000000)">
						<path id="Shape_156_" class="st34" d="M4.2,106c-0.4,0-0.7-0.3-0.8-0.7C1,86.6-1.4,5.8,3.6,0.7c0.3-0.3,0.8-0.3,1.1,0
							C5,1,5,1.5,4.7,1.8c-3.9,4-2.6,81.7,0.2,103.4c0,0.2,0,0.4-0.2,0.6C4.6,105.9,4.5,106,4.2,106L4.2,106z"/>
					</g>
					<g id="_Grupo_197" transform="translate(13.000000, 13.000000)">
						<path id="Shape_157_" class="st34" d="M151.2,26.9c-0.1,0-0.3,0-0.4-0.1c-1.7-0.8-36.2-7.3-74-13.9C24,3.8,3.3,1.3,1.5,2
							c-0.4,0.2-0.8,0.1-1-0.3c-0.2-0.4-0.1-0.8,0.3-1c2.7-1.6,43,4.9,76.3,10.7s73,13.2,74.5,14.1c0.3,0.2,0.4,0.5,0.3,0.9
							C151.9,26.7,151.6,26.9,151.2,26.9L151.2,26.9z"/>
					</g>
					<g id="_Grupo_198" transform="translate(162.000000, 38.000000)">
						<path id="Shape_158_" class="st34" d="M1.6,127.6c-0.1,0-0.2,0-0.3-0.1c-0.2-0.1-0.3-0.2-0.4-0.4c-0.1-0.2-0.1-0.4,0-0.6
							c0.5-1.6,1.8-29.6,2.4-61c0.7-37.5,0-60.8-1.8-64c-0.2-0.4-0.1-0.8,0.3-1s0.8-0.1,1,0.3c2.6,4.8,2.3,42.9,1.9,65.1
							C4.3,94.5,3,125.4,2.3,127.1C2.2,127.4,1.9,127.6,1.6,127.6z"/>
					</g>
					<g id="_Grupo_199" transform="translate(23.000000, 84.000000)">
						<path id="Shape_159_" class="st7" d="M2.4,31.1c-0.4,0-0.7-0.3-0.8-0.7C-0.1,8.7,1.6,1.1,1.7,0.8c0.1-0.3,0.3-0.5,0.5-0.6
							s0.5,0,0.7,0.2s0.3,0.5,0.2,0.7c0,0.1-1.7,7.8,0,29.2c0,0.2,0,0.4-0.2,0.5S2.6,31,2.4,31.1L2.4,31.1z"/>
					</g>
					<g id="_Grupo_200" transform="translate(28.000000, 85.000000)">
						<path id="Shape_160_" class="st7" d="M1.7,31.3c-0.4,0-0.7-0.3-0.7-0.7C-0.8,8.9,0.9,1.3,0.9,1C1,0.6,1.4,0.3,1.8,0.4
							s0.7,0.5,0.6,0.9c0,0.1-1.7,7.8,0,29.2c0,0.2,0,0.4-0.2,0.5S1.9,31.3,1.7,31.3L1.7,31.3z"/>
					</g>
					<g id="_Grupo_201" transform="translate(32.000000, 86.000000)">
						<path id="Shape_161_" class="st7" d="M1.9,31.5c-0.4,0-0.7-0.3-0.8-0.7C-0.6,9.1,1.1,1.5,1.2,1.2c0.1-0.4,0.5-0.7,0.9-0.6
							s0.7,0.5,0.6,0.9c0,0.1-1.7,7.8,0,29.2c0,0.2,0,0.4-0.2,0.5S2.1,31.5,1.9,31.5L1.9,31.5z"/>
					</g>
					<g id="_Grupo_202" transform="translate(36.000000, 87.000000)">
						<path id="Shape_162_" class="st7" d="M2.2,31.7c-0.4,0-0.7-0.3-0.8-0.7C-0.3,9.3,1.4,1.7,1.4,1.4C1.5,1,1.9,0.7,2.3,0.8
							S3,1.3,2.9,1.7c0,0.1-1.7,7.8,0,29.2c0,0.2,0,0.4-0.2,0.5S2.4,31.7,2.2,31.7L2.2,31.7z"/>
					</g>
					<g id="_Grupo_203" transform="translate(40.000000, 89.000000)">
						<path id="Shape_163_" class="st7" d="M2.4,30.9c-0.4,0-0.7-0.3-0.8-0.7C-0.1,8.5,1.6,0.9,1.7,0.6C1.7,0.3,1.9,0.1,2.2,0
							s0.5,0,0.7,0.2s0.3,0.5,0.2,0.7c0,0.1-1.7,7.8,0,29.2c0,0.2,0,0.4-0.2,0.5S2.6,30.9,2.4,30.9L2.4,30.9z"/>
					</g>
					<g id="_Grupo_204" transform="translate(45.000000, 90.000000)">
						<path id="Shape_164_" class="st7" d="M1.7,31.1c-0.4,0-0.7-0.3-0.7-0.7C-0.8,8.7,0.9,1.1,0.9,0.8C1,0.4,1.4,0.2,1.8,0.2
							s0.7,0.5,0.6,0.9c0,0.1-1.7,7.8,0,29.2c0,0.2,0,0.4-0.2,0.5S1.9,31.1,1.7,31.1L1.7,31.1z"/>
					</g>
					<g id="_Grupo_205" transform="translate(49.000000, 91.000000)">
						<path id="Shape_165_" class="st7" d="M1.9,31.3c-0.4,0-0.7-0.3-0.8-0.7C-0.6,8.9,1.1,1.3,1.2,1c0.1-0.4,0.5-0.7,0.9-0.6
							S2.7,1,2.6,1.4c0,0.1-1.7,7.8,0,29.2c0,0.2,0,0.4-0.2,0.5S2.1,31.3,1.9,31.3L1.9,31.3z"/>
					</g>
					<g id="_Grupo_206" transform="translate(53.000000, 92.000000)">
						<path id="Shape_166_" class="st7" d="M2.2,31.5c-0.4,0-0.7-0.3-0.8-0.7C-0.3,9.2,1.4,1.5,1.4,1.2c0.1-0.4,0.5-0.7,0.9-0.6
							S3,1.2,2.9,1.6c0,0.1-1.7,7.8,0,29.2c0,0.2,0,0.4-0.2,0.5S2.4,31.5,2.2,31.5L2.2,31.5z"/>
					</g>
					<g id="_Grupo_207" transform="translate(57.000000, 93.000000)">
						<path id="Shape_167_" class="st7" d="M2.4,31.8c-0.4,0-0.7-0.3-0.8-0.7C-0.1,9.4,1.6,1.8,1.7,1.4C1.8,1,2.2,0.8,2.6,0.9
							s0.7,0.5,0.6,0.9c0,0.1-1.7,7.8,0,29.2c0,0.2,0,0.4-0.2,0.5S2.6,31.7,2.4,31.8L2.4,31.8z"/>
					</g>
					<g id="_Grupo_208" transform="translate(62.000000, 95.000000)">
						<path id="Shape_168_" class="st7" d="M1.7,31c-0.4,0-0.7-0.3-0.7-0.7C-0.8,8.6,0.9,1,0.9,0.7C1,0.3,1.4,0,1.8,0.1
							S2.5,0.6,2.4,1c0,0.1-1.7,7.8,0,29.2c0,0.2,0,0.4-0.2,0.5S1.9,31,1.7,31L1.7,31z"/>
					</g>
					<g id="_Grupo_209" transform="translate(66.000000, 96.000000)">
						<path id="Shape_169_" class="st7" d="M1.9,31.2c-0.4,0-0.7-0.3-0.8-0.7C-0.6,8.8,1.1,1.2,1.2,0.9c0.1-0.3,0.3-0.5,0.5-0.6
							s0.5,0,0.7,0.2s0.3,0.5,0.2,0.7c0,0.1-1.7,7.8,0,29.2c0,0.2,0,0.4-0.2,0.5S2.1,31.2,1.9,31.2L1.9,31.2z"/>
					</g>
					<g id="_Grupo_210" transform="translate(70.000000, 97.000000)">
						<path id="Shape_170_" class="st7" d="M2.2,31.4c-0.4,0-0.7-0.3-0.8-0.7C-0.3,9,1.4,1.4,1.4,1.1c0.1-0.3,0.3-0.5,0.5-0.6
							c0.3-0.1,0.5,0,0.7,0.2S3,1.1,2.9,1.4c0,0.1-1.7,7.8,0,29.2c0,0.2,0,0.4-0.2,0.5S2.4,31.4,2.2,31.4L2.2,31.4z"/>
					</g>
					<g id="_Grupo_211" transform="translate(74.000000, 98.000000)">
						<path id="Shape_171_" class="st7" d="M2.4,31.6c-0.4,0-0.7-0.3-0.8-0.7C-0.1,9.2,1.6,1.6,1.7,1.3c0.1-0.4,0.5-0.7,0.9-0.6
							s0.7,0.5,0.6,0.9c0,0.1-1.7,7.8,0,29.2c0,0.2,0,0.4-0.2,0.5S2.6,31.6,2.4,31.6L2.4,31.6z"/>
					</g>
					<g id="_Grupo_212" transform="translate(79.000000, 99.000000)">
						<path id="Shape_172_" class="st7" d="M1.7,31.8c-0.4,0-0.7-0.3-0.7-0.7C-0.8,9.4,0.9,1.8,0.9,1.5C1,1.1,1.4,0.8,1.8,0.9
							s0.7,0.5,0.6,0.9c0,0.1-1.7,7.8,0,29.2c0,0.2,0,0.4-0.2,0.5S1.9,31.8,1.7,31.8L1.7,31.8z"/>
					</g>
					<g id="_Grupo_213" transform="translate(83.000000, 101.000000)">
						<path id="Shape_173_" class="st7" d="M1.9,31c-0.4,0-0.7-0.3-0.8-0.7C-0.6,8.6,1.1,1,1.2,0.7C1.3,0.3,1.7,0,2.1,0.1
							S2.7,0.6,2.6,1c0,0.1-1.7,7.8,0,29.2C2.7,30.6,2.4,30.9,1.9,31L1.9,31z"/>
					</g>
					<g id="_Grupo_214" transform="translate(87.000000, 102.000000)">
						<path id="Shape_174_" class="st7" d="M2.2,31.2c-0.4,0-0.7-0.3-0.8-0.7C-0.3,8.8,1.4,1.2,1.4,0.9c0.1-0.4,0.5-0.7,0.9-0.6
							S3,0.9,2.9,1.3c0,0.1-1.7,7.8,0,29.2c0,0.2,0,0.4-0.2,0.5S2.4,31.2,2.2,31.2L2.2,31.2z"/>
					</g>
					<g id="_Grupo_215" transform="translate(91.000000, 103.000000)">
						<path id="Shape_175_" class="st7" d="M2.4,31.4c-0.4,0-0.7-0.3-0.8-0.7C-0.1,9.1,1.6,1.4,1.7,1.1c0.1-0.4,0.5-0.7,0.9-0.6
							s0.7,0.5,0.6,0.9c0,0.1-1.7,7.8,0,29.2c0,0.2,0,0.4-0.2,0.5S2.6,31.4,2.4,31.4L2.4,31.4z"/>
					</g>
					<g id="_Grupo_216" transform="translate(96.000000, 104.000000)">
						<path id="Shape_176_" class="st7" d="M1.7,31.8c-0.4,0-0.7-0.3-0.7-0.7C-0.8,9.4,0.9,1.8,0.9,1.5C1,1.1,1.4,0.8,1.8,0.9
							s0.7,0.5,0.6,0.9c0,0.1-1.7,7.8,0,29.2c0,0.2,0,0.4-0.2,0.5S1.9,31.8,1.7,31.8L1.7,31.8z"/>
					</g>
					<g id="_Grupo_217" transform="translate(100.000000, 106.000000)">
						<path id="Shape_177_" class="st7" d="M1.9,31c-0.4,0-0.7-0.3-0.8-0.7C-0.6,8.6,1.1,1,1.2,0.7C1.3,0.3,1.7,0,2.1,0.1
							S2.7,0.6,2.6,1c0,0.1-1.7,7.8,0,29.2c0,0.2,0,0.4-0.2,0.5S2.1,31,1.9,31L1.9,31z"/>
					</g>
					<g id="_Grupo_218" transform="translate(104.000000, 107.000000)">
						<path id="Shape_178_" class="st7" d="M2.2,31.1c-0.4,0-0.7-0.3-0.8-0.7C-0.3,8.7,1.4,1.1,1.4,0.8c0.1-0.3,0.3-0.5,0.5-0.6
							s0.5,0,0.7,0.2S3,0.8,2.9,1.1c0,0.1-1.7,7.8,0,29.2c0,0.2,0,0.4-0.2,0.5C2.6,31,2.4,31.1,2.2,31.1L2.2,31.1z"/>
					</g>
					<g id="_Grupo_219" transform="translate(108.000000, 108.000000)">
						<path id="Shape_179_" class="st7" d="M2.4,31.3c-0.4,0-0.7-0.3-0.8-0.7C-0.1,8.9,1.6,1.3,1.7,1c0.1-0.4,0.5-0.7,0.9-0.6
							s0.7,0.5,0.6,0.9c0,0.1-1.7,7.8,0,29.2c0,0.2,0,0.4-0.2,0.5S2.6,31.3,2.4,31.3L2.4,31.3z"/>
					</g>
					<g id="_Grupo_220" transform="translate(113.000000, 109.000000)">
						<path id="Shape_180_" class="st7" d="M1.7,31.5c-0.4,0-0.7-0.3-0.7-0.7C-0.8,9.1,0.9,1.5,0.9,1.2C1,0.8,1.4,0.5,1.8,0.6
							s0.7,0.5,0.6,0.9c0,0.1-1.7,7.8,0,29.2c0,0.2,0,0.4-0.2,0.5S1.9,31.5,1.7,31.5L1.7,31.5z"/>
					</g>
					<g id="_Grupo_221" transform="translate(117.000000, 110.000000)">
						<path id="Shape_181_" class="st7" d="M1.9,31.7c-0.4,0-0.7-0.3-0.8-0.7C-0.6,9.3,1.1,1.7,1.2,1.4C1.3,1,1.7,0.7,2.1,0.8
							s0.7,0.5,0.6,0.9c0,0.1-1.7,7.8,0,29.2c0,0.2,0,0.4-0.2,0.5S2.1,31.7,1.9,31.7L1.9,31.7z"/>
					</g>
					<g id="_Grupo_222" transform="translate(121.000000, 112.000000)">
						<path id="Shape_182_" class="st7" d="M2.2,31.5c-0.4,0-0.7-0.3-0.8-0.7C-0.3,9.1,1.4,1.5,1.4,1.2c0.1-0.4,0.5-0.7,0.9-0.6
							S3,1.1,2.9,1.5c0,0.1-1.7,7.8,0,29.2c0,0.2,0,0.4-0.2,0.5S2.4,31.4,2.2,31.5L2.2,31.5z"/>
					</g>
					<g id="_Grupo_223" transform="translate(125.000000, 113.000000)">
						<path id="Shape_183_" class="st7" d="M2.4,31.3c-0.4,0-0.7-0.3-0.8-0.7C-0.1,8.9,1.6,1.3,1.7,1c0.1-0.4,0.5-0.7,0.9-0.6
							s0.7,0.5,0.6,0.9c0,0.1-1.7,7.8,0,29.2c0,0.2,0,0.4-0.2,0.5S2.6,31.3,2.4,31.3L2.4,31.3z"/>
					</g>
					<g id="_Grupo_224" transform="translate(130.000000, 114.000000)">
						<path id="Shape_184_" class="st7" d="M1.7,31.3c-0.4,0-0.7-0.3-0.7-0.7C-0.8,8.9,0.9,1.3,0.9,1C1,0.6,1.4,0.4,1.8,0.5
							S2.5,1,2.4,1.4c0,0.1-1.7,7.8,0,29.2c0,0.2,0,0.4-0.2,0.5S1.9,31.3,1.7,31.3L1.7,31.3z"/>
					</g>
					<g id="_Grupo_225" transform="translate(134.000000, 115.000000)">
						<path id="Shape_185_" class="st7" d="M1.9,31.6c-0.4,0-0.7-0.3-0.8-0.7C-0.6,9.2,1.1,1.6,1.2,1.2C1.2,1,1.4,0.8,1.7,0.7
							s0.5,0,0.7,0.2s0.3,0.5,0.2,0.7c0,0.1-1.7,7.8,0,29.2c0,0.2,0,0.4-0.2,0.5S2.1,31.5,1.9,31.6L1.9,31.6z"/>
					</g>
				</g>
			</g>
		</g>
	</g>
</g>
</svg>
