<?xml version="1.0"?>
<svg xmlns="http://www.w3.org/2000/svg" xmlns:xlink="http://www.w3.org/1999/xlink" version="1.1" id="Layer_1" x="0px" y="0px" viewBox="0 0 512 512" style="enable-background:new 0 0 512 512;" xml:space="preserve" width="512px" height="512px" class=""><g><rect x="88.149" y="282.396" style="fill:#304AB3" width="227.004" height="42.311" data-original="#29414F" class="" data-old_color="#304ab3"/><path style="fill:#BDC3C3" d="M279.922,169.749h-25.376V78.303c0-29.232-23.696-52.927-52.927-52.927s-52.927,23.696-52.927,52.927  v91.439h-25.384V78.303C123.309,35.055,158.372,0,201.619,0s78.311,35.055,78.311,78.303v91.447H279.922z" data-original="#AAC1CE" class="active-path" data-old_color="#BCC1C1"/><g style="opacity:0.25;">
	<rect x="123.309" y="142.974" style="fill:#304AB3" width="25.376" height="10.152" data-original="#29414F" class="" data-old_color="#304ab3"/>
</g><g style="opacity:0.25;">
	<rect x="254.547" y="142.974" style="fill:#304AB3" width="25.376" height="10.152" data-original="#29414F" class="" data-old_color="#304ab3"/>
</g><rect x="99.829" y="153.118" style="fill:#304AB3" width="203.573" height="129.278" data-original="#415E72" class="" data-old_color="#304ab3"/><g>
	<circle style="fill:#FFFFFF;" cx="201.587" cy="220.637" r="25.4" data-original="#FFFFFF" class=""/>
	<rect x="190.788" y="234.316" style="fill:#FFFFFF;" width="21.664" height="46.415" data-original="#FFFFFF" class=""/>
</g><polyline style="fill:#FFD07D;" points="300.338,311.619 223.483,477.609 232.987,503.504 251.315,512 289.49,497.496   281.29,473.713 304.186,465.753 294.538,440.881 320.034,431.529 351.505,363.546 " data-original="#FFD07D" class=""/><rect x="190.946" y="423.01" transform="matrix(0.4197 -0.9077 0.9077 0.4197 -224.9713 502.1432)" style="fill:#FCC35E" width="178.539" height="8" data-original="#FCC35E" class=""/><circle style="fill:#FFD07D;" cx="346.705" cy="293.531" r="74.647" data-original="#FFD07D" class=""/><path style="fill:#FCC35E" d="M377.025,227.996c36.175,16.752,51.927,59.655,35.175,95.83  c-16.752,36.175-59.655,51.927-95.831,35.175c-36.167-16.744-51.919-59.631-35.191-95.806  C297.962,227.044,340.841,211.301,377.025,227.996 M379.097,223.533c-38.655-17.88-84.479-1.032-102.358,37.615  c-17.88,38.655-1.032,84.479,37.615,102.358c38.639,17.872,84.447,1.048,102.334-37.575c17.904-38.639,1.088-84.479-37.559-102.382  C379.129,223.541,379.113,223.533,379.097,223.533z" data-original="#FCC35E" class=""/><circle style="fill:#FFFFFF;" cx="359.145" cy="266.636" r="18.384" data-original="#FFFFFF" class=""/><path style="fill:#FFD07D;" d="M350.369,285.604c-10.448-4.84-14.992-17.232-10.16-27.68c4.84-10.448,17.232-14.992,27.68-10.16  c10.448,4.84,14.992,17.232,10.16,27.672C373.201,285.876,360.817,290.427,350.369,285.604z M365.817,252.236  c-7.976-3.696-17.44-0.216-21.136,7.76c-3.696,7.976-0.216,17.44,7.76,21.136c7.976,3.696,17.44,0.216,21.136-7.76  c3.704-7.984,0.24-17.456-7.744-21.168L365.817,252.236z" data-original="#FFD07D" class=""/></g> </svg>
