<?xml version="1.0" encoding="iso-8859-1"?>
<!-- Generator: Adobe Illustrator 19.0.0, SVG Export Plug-In . SVG Version: 6.00 Build 0)  -->
<svg version="1.1" id="Capa_1" xmlns="http://www.w3.org/2000/svg" xmlns:xlink="http://www.w3.org/1999/xlink" x="0px" y="0px"
	 viewBox="0 0 512 512" style="enable-background:new 0 0 512 512;" xml:space="preserve">
<g>
	<path style="fill:#2488FF;" d="M126.4,448.8c0-8.284-6.716-15-15-15H99.412l8.476-8.476c5.858-5.858,5.858-15.355,0-21.213
		c-5.857-5.859-15.355-5.857-21.213,0l-8.476,8.476v-11.986c0-8.284-6.716-15-15-15s-15,6.716-15,15v11.986l-8.476-8.476
		c-5.857-5.857-15.355-5.857-21.213,0s-5.858,15.355,0,21.213l8.476,8.476H15c-8.284,0-15,6.716-15,15s6.716,15,15,15h11.988
		l-8.478,8.478c-5.858,5.858-5.858,15.355,0,21.213c2.929,2.93,6.768,4.394,10.607,4.394s7.678-1.465,10.606-4.394l8.476-8.476V497
		c0,8.284,6.716,15,15,15s15-6.716,15-15v-11.987l8.476,8.476c2.929,2.929,6.768,4.393,10.607,4.393
		c3.839,0,7.678-1.465,10.606-4.393c5.858-5.857,5.858-15.355,0-21.213l-8.476-8.476H111.4C119.685,463.8,126.4,457.084,126.4,448.8
		z"/>
	<path style="fill:#2488FF;" d="M319.199,448.8c0-8.284-6.716-15-15-15h-11.986l8.476-8.476c5.858-5.858,5.858-15.355,0-21.213
		c-5.857-5.859-15.355-5.857-21.213,0L271,412.587v-11.986c0-8.284-6.716-15-15-15s-15,6.716-15,15v11.986l-8.476-8.476
		c-5.857-5.857-15.355-5.857-21.213,0s-5.858,15.355,0,21.213l8.476,8.476h-11.988c-8.284,0-15,6.716-15,15s6.716,15,15,15h11.99
		l-8.478,8.478c-5.858,5.858-5.858,15.355,0,21.213c2.929,2.93,6.768,4.394,10.607,4.394c3.839,0,7.678-1.465,10.606-4.394
		l8.476-8.476V497c0,8.284,6.716,15,15,15s15-6.716,15-15v-11.987l8.476,8.476c2.929,2.929,6.768,4.393,10.606,4.393
		c3.839,0,7.678-1.465,10.607-4.393c5.858-5.857,5.858-15.355,0-21.213l-8.476-8.476h11.986
		C312.483,463.8,319.199,457.084,319.199,448.8z"/>
</g>
<path style="fill:#006DF0;" d="M512,448.8c0-8.284-6.716-15-15-15h-11.988l8.476-8.476c5.858-5.858,5.858-15.355,0-21.213
	c-5.857-5.859-15.355-5.857-21.213,0l-8.476,8.476v-11.986c0-8.284-6.716-15-15-15s-15,6.716-15,15v11.986l-8.476-8.476
	c-5.857-5.857-15.355-5.857-21.213,0s-5.858,15.355,0,21.213l8.475,8.476H400.6c-8.284,0-15,6.716-15,15s6.716,15,15,15h11.988
	l-8.477,8.478c-5.858,5.858-5.858,15.355,0,21.213c2.929,2.93,6.767,4.394,10.606,4.394s7.678-1.465,10.606-4.394l8.476-8.476V497
	c0,8.284,6.716,15,15,15s15-6.716,15-15v-11.987l8.476,8.476c2.929,2.929,6.768,4.393,10.606,4.393
	c3.839,0,7.678-1.465,10.606-4.393c5.858-5.857,5.858-15.355,0-21.213l-8.476-8.476H497C505.284,463.8,512,457.084,512,448.8z"/>
<path style="fill:#F2F2F2;" d="M304.199,126.399h-96.4c-8.284,0-15-6.716-15-15V63.2C192.799,28.352,221.15,0,256,0
	c34.849,0,63.199,28.352,63.199,63.2v48.199C319.199,119.684,312.483,126.399,304.199,126.399z M222.799,96.399h66.4V63.2
	c0-18.307-14.893-33.2-33.199-33.2c-18.308,0-33.201,14.894-33.201,33.2V96.399z"/>
<path style="fill:#D9D9D9;" d="M256,0h-0.001v30H256c18.306,0,33.199,14.894,33.199,33.2v33.199h-33.2v30h48.2
	c8.284,0,15-6.716,15-15V63.2C319.199,28.352,290.849,0,256,0z"/>
<path style="fill:#FED42D;" d="M352.398,96.399H159.6c-8.284,0-15,6.716-15,15V304.2c0,8.284,6.716,15,15,15h192.799
	c8.284,0,15-6.716,15-15V111.399C367.398,103.115,360.683,96.399,352.398,96.399z"/>
<path style="fill:#006DF0;" d="M256,512c8.284,0,15-6.716,15-15v-11.987l8.476,8.476c2.929,2.929,6.768,4.393,10.606,4.393
	c3.839,0,7.678-1.465,10.607-4.393c5.858-5.857,5.858-15.355,0-21.213l-8.476-8.476h11.986c8.284,0,15-6.716,15-15s-6.716-15-15-15
	h-11.986l8.476-8.476c5.858-5.858,5.858-15.355,0-21.213c-5.857-5.859-15.355-5.857-21.213,0L271,412.587v-11.986
	c0-8.284-6.716-15-15-15h-0.001V512H256z"/>
<path style="fill:#FCBF29;" d="M352.398,96.399h-96.399V319.2h96.399c8.284,0,15-6.716,15-15V111.399
	C367.398,103.115,360.683,96.399,352.398,96.399z"/>
<g>
</g>
<g>
</g>
<g>
</g>
<g>
</g>
<g>
</g>
<g>
</g>
<g>
</g>
<g>
</g>
<g>
</g>
<g>
</g>
<g>
</g>
<g>
</g>
<g>
</g>
<g>
</g>
<g>
</g>
</svg>
