<?xml version="1.0" encoding="utf-8"?>
<!-- Generator: Adobe Illustrator 22.1.0, SVG Export Plug-In . SVG Version: 6.00 Build 0)  -->
<svg version="1.1" xmlns="http://www.w3.org/2000/svg" xmlns:xlink="http://www.w3.org/1999/xlink" x="0px" y="0px"
	 viewBox="0 0 500 500" style="enable-background:new 0 0 500 500;" xml:space="preserve">
<style type="text/css">
	.st0{display:none;}
	.st1{opacity:0.1;}
	.st2{fill:none;stroke:#443936;stroke-width:2.9215;stroke-miterlimit:10;}
	.st3{fill:#6D605C;}
	.st4{fill:#5B504D;}
	.st5{fill:#ADADAD;}
	.st6{fill:#FFBFA1;}
	.st7{fill:#D69F8A;}
	.st8{fill:#506C70;}
	.st9{fill:#405759;}
	.st10{fill:#16333C;}
	.st11{fill:#213D44;}
	.st12{fill:#664032;}
	.st13{fill:#222228;}
	.st14{fill:#FFFFFF;}
	.st15{fill:#BBDDF8;}
	.st16{fill:#544947;}
	.st17{fill:none;stroke:#544947;stroke-width:1.0446;stroke-linecap:round;stroke-miterlimit:10;}
	.st18{fill:#D8CAC7;}
	.st19{fill:#EDE1DD;}
	.st20{fill:#B76363;}
	.st21{clip-path:url(#SVGID_2_);}
	.st22{fill:#844646;}
</style>
<g id="designed_by_freepik" class="st0">
</g>
<g id="objects">
	<ellipse class="st1" cx="254.8" cy="452.4" rx="102.2" ry="9.2"/>
	<g>
		<path class="st2" d="M304,296.3c0,0-1.8-5.9,7.7-8.8c9.6-2.9,15,1.3,16.7,8.5"/>
		<path class="st3" d="M276.6,299.5l74-10.4l11.9,52.8c0,0-26.7,13.7-79.8,11.3L276.6,299.5z"/>
		<path class="st4" d="M293.3,326.5c0,0,41.7-3.2,63.6-9.9l-0.6-2.8c0,0-19.3,7.2-63.4,10.4L293.3,326.5z"/>
		<polygon class="st5" points="319.9,318.9 320.8,324.4 339.4,321 338.7,316.3 		"/>
		<path class="st6" d="M322.5,289.2c0-0.1,0-0.1,0.1-0.2c1.7-7.7-2.7-9.8-2.7-9.8l-5.7-49.8l-13.9,10.4l1.9-0.7l5.8,39.1
			c0,0-7.1,3.9-3.1,11.2l3.7-2.3c0,0,1.6,1.5,0.4,3.1c0,0-1.3-0.4-2,1.5c0,0,1.8,2.8,4.7,0.5c0,0,0,0,0,0c0,0,2.3,2.1,4.5,0
			c0,0,3.8,1.6,6.1-2.4c0,0,0,0,0,0c0,0,0,0,0,0c0,0,0,0,0,0C322.3,289.7,322.4,289.5,322.5,289.2
			C322.5,289.2,322.5,289.2,322.5,289.2z"/>
		<path class="st4" d="M287.5,297.9l-10.9,1.5l6.2,53.6c5.6,0.3,10.9,0.3,16,0.3L287.5,297.9z"/>
		<path class="st6" d="M176.6,202l-15.4-43.7c0,0-5.9,0.8-10-0.7c0,0-4.2-2.9-1.8-4.4c0,0-3.5-1.1-1.9-4.3c0,0-3.5-3.1-0.9-5.4
			c0,0-2.9-2.8,2-4.5c4.9-1.7,12-0.6,12-0.6s-3.5-7.9-0.8-11.6c2.2-3,5.9,11.7,5.9,11.7l25,66.7L176.6,202z"/>
		<path class="st7" d="M302.9,243.5c4-2.2,8.1-4.3,12.2-6.3l-0.9-7.7l-13.9,10.4l1.9-0.7L302.9,243.5z"/>
		<path class="st7" d="M181.2,179.7c-3.1,2.9-6.2,5.8-9.5,8.6l4.8,13.7l14.2,3.2L181.2,179.7z"/>
		<polygon class="st8" points="224.9,414 228.2,436.1 237,436.3 234.6,412.3 		"/>
		<polygon class="st8" points="277.5,423 281.3,445 290.1,445 287.1,421.1 		"/>
		<path class="st9" d="M236,426.5l-1.5-14.2l-9.6,1.8l1.9,12.3C229.5,426.5,232.9,426.6,236,426.5z"/>
		<path class="st9" d="M288.3,430.8l-1.2-9.7l-9.6,1.9l1.6,9.3C282.1,431.8,285.3,431.4,288.3,430.8z"/>
		<path class="st10" d="M292.1,425.8l-18.7-180.7l-1,0.1c-7.5-15.4-36.3-1.4-47.5,4.9l-4.2-0.6c-0.6,3.4-14,84.8,2,173.3
			c0,0,9.2,3,17-2.6c-6.4-38.7-6-103.6-1.5-135c6.5,1.1,9.2,0.2,16.6-0.3c0,0,15.7,126.7,18.9,142.8
			C283.5,431.7,292.1,425.8,292.1,425.8z"/>
		<polygon class="st11" points="242.4,262.6 242,280.9 247.4,281.2 247.3,285.5 248.3,285.4 249.5,263.5 		"/>
		<polygon class="st7" points="246.2,128.9 245.7,161.4 267.5,153.4 268.2,119.9 		"/>
		<path class="st6" d="M286.6,86.2c-4.4-1.2-7.4,1.9-9.2,4.9c-0.7-10.9-1.3-20.8-1.3-20.8s-4-11.7-23.6-9.9
			C234.6,62,234.6,62,234.6,62s-7.8,53.7-4,59.8c3.2,5,11.9,12,21.3,11.2c9.5-0.8,26.6-6,26.6-15.5c0-2.1-0.1-5.7-0.3-10
			C290.8,109.6,294.7,88.4,286.6,86.2z"/>
		<path class="st7" d="M285.6,89.7c-4.7-1.4-6.7,5.6-7,6.7c3.2,1.5,4.1,5.6,2.4,7.9C288.4,104.9,290.6,91.1,285.6,89.7z"/>
		<path class="st12" d="M278.6,90.3l-1.3,6.4h-3.7v-22c0,0-7.9-4.4-7.3-12.3c0,0-7.9,3.6-15.7,4.8c-6,0.9-29,4-28.6-17.3
			c0,0,3.8,7.1,8.9,7.7c0,0-12.3-6.5-3.5-18.7c0,0-1.1,6.3,3.5,5.8c4.6-0.6,19.5-14.3,32.8-9.7c13.3,4.6,13.6,12.7,13.6,12.7
			s13.5-0.2,14.4,6.9c0.9,7.1-8.3,31.4-8.3,31.4S278.6,87,278.6,90.3z"/>
		<g>
			<path class="st12" d="M253.5,78.5c0,0,10.4-2.2,13.3,2.4c0,0,3-4.5-1.3-6.3c-4.3-1.8-9.2-1.2-11.4-0.5
				C252,74.8,251,78,253.5,78.5z"/>
			<path class="st12" d="M244.1,78.6c0,0-9.1-2.8-11.9,1.6c0,0-1.8-4.9,2.4-5.9c4.2-1,8.4-0.7,10.3,0
				C246.7,75.1,246.3,78.5,244.1,78.6z"/>
			<ellipse class="st13" cx="262.5" cy="86.6" rx="2.5" ry="4.2"/>
			<ellipse class="st13" cx="242" cy="86.6" rx="2.5" ry="4.2"/>
		</g>
		<polygon class="st7" points="248.7,82.4 240.5,104 251.5,106.3 		"/>
		<path class="st14" d="M242.3,111.5l22.7-3c0,0-2.4,8.5-11.4,9.9C244.7,119.8,242.3,111.5,242.3,111.5z"/>
		<path class="st15" d="M215.2,157.2c0,0,2.4,65.5,5,95.1c0,0,10.9,4.9,33.4,4.8c15.9-0.1,20.6-3.4,20.6-3.4L304,151.4
			c0,0-14.5-3.6-38.7-4.5l-11.6,10.2c0,0-2.7-8.3-8.7-10.2c-9.1,0.3-19.1,1-29.8,2.4V157.2z"/>
		<g>
			<polygon class="st15" points="301.5,238.2 287.1,154.6 304,151.4 315.8,231.8 			"/>
		</g>
		<g>
			<path class="st15" d="M215.2,149.3l-25.7,42.9l-3.1-5.6c-4.1,4.3-8,8.6-12.2,12.8c4.4,12.2,9.1,22.4,12.3,21.4
				c7.5-2.6,32.4-40.3,32.4-40.3L215.2,149.3z"/>
		</g>
		<g>
			<path class="st3" d="M227.8,256c-4.6-1-7.3-2-7.3-2c-1.3-0.4-1.8,0.7-2,2c-0.2,1.7-0.4,2.5,0.8,2.8c0.2,0.1,2.9,1.2,7.4,2.3
				C227,259.3,227.4,257.7,227.8,256z"/>
			<path class="st3" d="M260.6,257.9c-5.1,0.4-10.7,0.4-16.8,0.1c-4.7-0.2-8.8-0.7-12.4-1.3c0.1,1.8-0.2,3.5-0.6,5.3
				c3.6,0.7,7.8,1.2,12.7,1.4c2,0.1,3.9,0.1,5.8,0.1c4.2,0,8.1-0.2,11.8-0.5C260.9,261.4,260.7,259.7,260.6,257.9z"/>
			<path class="st3" d="M275.6,257.8c-0.2-1.3-0.4-2.5-1.7-2c-3,0.9-6.3,1.5-9.9,1.9c0.1,1.7,0.3,3.4,0.5,5
				c3.7-0.5,7.2-1.2,10.4-2.3C275.9,260.1,275.9,259.1,275.6,257.8z"/>
		</g>
		<path class="st5" d="M240.4,257.2v6.4l11.9,0.8v-6.9L240.4,257.2z M250.3,263.1l-7.8-0.5v-4.2l7.8,0.2V263.1z"/>
		<g>
			<path class="st3" d="M224.4,431.5c0,0-5,6.3-12.6,8.6c-7.6,2.2-17.8,6.7-17.3,11.1c0,0,14.7,3.8,33-2.2v1.9l12.1-0.5v-15.6
				l-10,0.7l0.7-1.5L224.4,431.5z"/>
			<path class="st16" d="M217.1,450c-13.8,3.5-21.5,0.4-22.4,0c-0.1,0.4-0.1,0.8-0.1,1.2c0,0,14.7,3.8,33-2.2v1.9l12.1-0.5v-3.1
				C235.3,447.5,228,447.3,217.1,450z"/>
			<path class="st17" d="M220.6,435.3c0,0,2.9,1,5.5,4.8"/>
			<path class="st17" d="M217.8,436.5c0,0,2.9,1,5.5,4.8"/>
			<path class="st17" d="M215.1,437.7c0,0,2.9,1,5.5,4.8"/>
		</g>
		<g>
			<path class="st3" d="M292.7,434.6c0,0,5,6.3,12.6,8.6c7.6,2.2,17.8,6.7,17.3,11.1c0,0-14.7,3.8-33-2.2v1.9l-12.1-0.5v-15.6
				l10,0.7l-0.7-1.5L292.7,434.6z"/>
			<path class="st16" d="M300.1,453.1c13.8,3.5,21.5,0.4,22.4,0c0.1,0.4,0.1,0.8,0.1,1.2c0,0-14.7,3.8-33-2.2v1.9l-12.1-0.5v-3.1
				C281.8,450.6,289.2,450.3,300.1,453.1z"/>
			<path class="st17" d="M296.6,438.4c0,0-2.9,1-5.5,4.8"/>
			<path class="st17" d="M299.3,439.6c0,0-2.9,1-5.5,4.8"/>
			<path class="st17" d="M302.1,440.8c0,0-2.9,1-5.5,4.8"/>
		</g>
		<polygon class="st18" points="253.7,157.1 257,146.9 263.3,150.1 		"/>
		<polygon class="st18" points="253.2,147.6 253.7,157.1 248.6,150.2 		"/>
		<polygon class="st19" points="238.7,146.5 246.2,157.6 253.2,147.6 243,140.1 		"/>
		<polygon class="st19" points="272.6,146.3 262.1,157.6 257,146.9 268.8,139.7 		"/>
		<path class="st20" d="M258.7,150.6c0,0-3.3,0.7-7.6,0l-2.1,2.9l2.1,6l-14.3,72.4l7.7,9.8l10.2-8.1l1.8-73.3l3.5-7.2L258.7,150.6z"
			/>
		<path class="st19" d="M261.9,180.8l26.7,2c0,0-1.2,24-16,22.3C254.5,203.1,261.9,180.8,261.9,180.8z"/>
		<path class="st20" d="M282,182.3c0,0,0.7-11.1,2.6-11.3c1.8-0.2,0.7,19.7-1.3,20.1c0,0-0.4-2.9,0.5-8.6L282,182.3z"/>
		<g>
			<defs>
				<path id="SVGID_1_" d="M258.7,150.6c0,0-3.3,0.7-7.6,0l-2.1,2.9l2.1,6l-14.3,72.4l7.7,9.8l10.2-8.1l1.8-73.3l3.5-7.2
					L258.7,150.6z"/>
			</defs>
			<clipPath id="SVGID_2_">
				<use xlink:href="#SVGID_1_"  style="overflow:visible;"/>
			</clipPath>
			<g class="st21">
				<g>
					<polygon class="st22" points="233.3,165.6 231.7,161.7 268.5,149 270.1,152.9 					"/>
				</g>
				<g>
					<polygon class="st22" points="233.3,176 231.7,172.1 268.5,159.4 270.1,163.3 					"/>
				</g>
				<g>
					<polygon class="st22" points="233.3,186.4 231.7,182.5 268.5,169.7 270.1,173.7 					"/>
				</g>
				<g>
					<polygon class="st22" points="233.3,196.8 231.7,192.9 268.5,180.1 270.1,184.1 					"/>
				</g>
				<g>
					<polygon class="st22" points="233.3,207.2 231.7,203.2 268.5,190.5 270.1,194.5 					"/>
				</g>
				<g>
					<polygon class="st22" points="233.3,217.6 231.7,213.6 268.5,200.9 270.1,204.8 					"/>
				</g>
				<g>
					<polygon class="st22" points="233.3,228 231.7,224 268.5,211.3 270.1,215.2 					"/>
				</g>
				<g>
					<polygon class="st22" points="233.3,238.3 231.7,234.4 268.5,221.7 270.1,225.6 					"/>
				</g>
			</g>
		</g>
		<polygon class="st19" points="296.5,228.4 316.9,222.6 318.5,233.2 299.5,240 		"/>
		<path class="st19" d="M184.2,182.8l5.2,8.1c0,0-7.7,16.5-13.6,20.2l-6-14.2L184.2,182.8z"/>
	</g>
</g>
</svg>
