<?xml version="1.0"?>
<svg xmlns="http://www.w3.org/2000/svg" xmlns:xlink="http://www.w3.org/1999/xlink" version="1.1" id="Capa_1" x="0px" y="0px" viewBox="0 0 512.374 512.374" style="enable-background:new 0 0 512.374 512.374;" xml:space="preserve" width="512px" height="512px" class=""><g><g><path style="fill:#455A64" d="M415.857,277.26c-41.237,0-74.667,33.429-74.667,74.667v21.333c0,5.891,4.776,10.667,10.667,10.667  c5.891,0,10.667-4.776,10.667-10.667v-21.333c0-29.455,23.878-53.333,53.333-53.333s53.333,23.878,53.333,53.333v21.333  c0,5.891,4.776,10.667,10.667,10.667c5.891,0,10.667-4.776,10.667-10.667v-21.333C490.523,310.689,457.094,277.26,415.857,277.26z" data-original="#455A64" class="" data-old_color="#5400FF"/><path style="fill:#FFC107;" d="M330.523,362.593H501.19c5.891,0,10.667,4.776,10.667,10.667v128c0,5.891-4.776,10.667-10.667,10.667  H330.523c-5.891,0-10.667-4.776-10.667-10.667v-128C319.857,367.369,324.632,362.593,330.523,362.593z" data-original="#FFC107" class=""/><path style="fill:#FAFAFA" d="M437.19,426.593c0-11.782-9.551-21.333-21.333-21.333c-11.782,0-21.333,9.551-21.333,21.333  c0.095,7.484,4.156,14.355,10.667,18.048v13.952c0,5.891,4.776,10.667,10.667,10.667c5.891,0,10.667-4.776,10.667-10.667v-13.952  C433.034,440.948,437.095,434.077,437.19,426.593z" data-original="#FAFAFA" class=""/><path style="fill:#5A75E6" d="M298.523,501.26v-128c0.071-13.857,9.053-26.093,22.251-30.315  c2.986-30.912,20.722-58.477,47.616-74.005c1.892-4.38,3.524-8.867,4.885-13.44c12.903-3.147,22.521-13.936,24.171-27.115  l5.333-42.667c1.827-14.644-6.598-28.639-20.395-33.877l1.963-40.192l7.979-7.979c17.557-18.518,18.057-47.381,1.152-66.496  c-18.541-25.697-49.276-39.69-80.832-36.8c-28.497-1.245-56.7,6.194-80.875,21.333c-90.901,1.963-103.253,44.16-103.253,85.333  c0,9.579,2.325,31.147,3.861,44.139c-14.745,4.661-24.047,19.198-22.101,34.539l5.333,42.667  c1.705,13.722,12.031,24.796,25.6,27.456c4.671,29.877,18.377,57.609,39.275,79.467l-7.424,29.739l-81.728,20.416  C37.955,398.751,0.496,446.699,0.518,501.708c0,5.891,4.776,10.667,10.667,10.667l0,0l289.323-0.299  C299.22,508.614,298.548,504.953,298.523,501.26z" data-original="#5A75E6" class="" data-old_color="#W400FF"/></g></g> </svg>
