<?xml version="1.0" encoding="utf-8"?>
<!-- Generator: Adobe Illustrator 22.1.0, SVG Export Plug-In . SVG Version: 6.00 Build 0)  -->
<svg version="1.1" id="OBJECTS" xmlns="http://www.w3.org/2000/svg" xmlns:xlink="http://www.w3.org/1999/xlink" x="0px" y="0px"
	 viewBox="0 0 608 582" style="enable-background:new 0 0 608 582;" xml:space="preserve">
<style type="text/css">
	.st0{opacity:0.32;}
	.st1{fill:url(#SVGID_1_);}
	.st2{fill:#586DB2;}
	.st3{opacity:0.53;}
	.st4{fill:#1AE5C7;}
	.st5{fill:#5895B2;}
	.st6{opacity:0.37;}
	.st7{fill:#8ED2FF;}
	.st8{opacity:0.47;}
	.st9{fill:#7974F5;}
	.st10{fill:#5A75E6;}
	.st11{fill:#294698;}
	.st12{fill:#BBD9F3;}
	.st13{fill:#F9FBFC;}
	.st14{fill:#FFFFFF;}
	.st15{fill:#CFE3FF;}
	.st16{fill:url(#SVGID_2_);}
	.st17{fill:#2F51A0;}
	.st18{fill:url(#SVGID_3_);}
	.st19{opacity:0.32;fill:url(#SVGID_4_);}
	.st20{fill:#FF9D6F;}
	.st21{fill:#113C7A;}
	.st22{fill:url(#SVGID_5_);}
	.st23{fill:url(#SVGID_6_);}
	.st24{fill:#FF7C40;}
	.st25{fill:#843837;}
	.st26{opacity:0.32;fill:url(#SVGID_7_);}
	.st27{fill:#F5B697;}
	.st28{fill:#5167B0;}
	.st29{fill:url(#SVGID_8_);}
	.st30{fill:url(#SVGID_9_);}
	.st31{opacity:0.43;fill:url(#SVGID_10_);}
	.st32{fill:url(#SVGID_11_);}
	.st33{opacity:0.57;}
	.st34{fill:#2E4D9C;}
	.st35{fill:#A0A9B0;}
</style>
<g>
	<g>
		<g class="st0">
			
				<linearGradient id="SVGID_1_" gradientUnits="userSpaceOnUse" x1="-369.5928" y1="484.0287" x2="-187.9421" y2="484.0287" gradientTransform="matrix(-1 0 0 1 82.8249 0)">
				<stop  offset="0" style="stop-color:#5155D4"/>
				<stop  offset="1" style="stop-color:#45F7FF"/>
			</linearGradient>
			<path class="st1" d="M273.7,450.9c-3.9,2.2-4,5.6,0,7.8l130.9,72.1c3.9,2.2,10.3,2.2,14.2,0l30.7-13.6c3.9-2.2,4-5.6,0-7.8
				l-130.9-72.1c-3.9-2.2-10.3-2.2-14.2,0L273.7,450.9z"/>
		</g>
		<g>
			<g>
				<path class="st2" d="M237.7,149.5l0,3.1c0,1.8,2.1,3,3.8,2l15.4-8.5c0.8-0.4,1.2-1.2,1.2-2.1l0-3.1c0-1.8-2.1-3-3.8-2l-15.4,8.5
					C238.2,147.8,237.7,148.6,237.7,149.5z"/>
			</g>
			<g>
				<path class="st2" d="M189,191.6l0,3.1c0,1.8,2.1,3,3.8,2l64.2-35.2c0.8-0.4,1.3-1.2,1.3-2.1l0-3.1c0-1.8-2.1-3-3.8-2l-64.2,35.2
					C189.4,189.9,188.9,190.7,189,191.6z"/>
			</g>
			<g class="st3">
				<path class="st4" d="M215.5,207.9l0,3.1c0,1.8,2.1,3,3.8,2l37.7-20.7c0.8-0.4,1.3-1.2,1.3-2.1l0-3.1c0-1.8-2.1-3-3.8-2
					l-37.7,20.7C216,206.3,215.5,207.1,215.5,207.9z"/>
			</g>
			<g>
				<path class="st5" d="M199,201.5l0,3.1c0,1.8,2.1,3,3.8,2L257,177c0.8-0.4,1.3-1.2,1.3-2.1l0-3.1c0-1.8-2.1-3-3.8-2l-54.2,29.7
					C199.4,199.9,198.9,200.7,199,201.5z"/>
			</g>
		</g>
		<g>
			<g class="st6">
				<g>
					<path class="st7" d="M534.7,196.4c0.7,0.4,1.3,1.3,1.3,2.1l-0.1,21.1c0,0.8-0.6,1.1-1.3,0.7l-28.2-15.4
						c-0.7-0.4-1.3-1.3-1.3-2.1l0.1-21.1c0-0.8,0.6-1.1,1.3-0.7L534.7,196.4z"/>
				</g>
			</g>
			<g class="st8">
				<g>
					<path class="st2" d="M545,233.9c0.7,0.4,1.3,1.3,1.3,2.1l-0.1,21.1c0,0.8-0.6,1.1-1.3,0.7l-28.2-15.4c-0.7-0.4-1.3-1.3-1.3-2.1
						l0.1-21.1c0-0.8,0.6-1.1,1.3-0.7L545,233.9z"/>
				</g>
			</g>
		</g>
		<g>
			<g class="st6">
				<g>
					<path class="st7" d="M258.5,253.8c0.5,0.2,0.8,0.9,0.8,1.4l0,13.6c0,0.5-0.4,0.7-0.8,0.4l-18.2-10c-0.5-0.3-0.8-0.9-0.8-1.4
						l0-13.6c0-0.5,0.4-0.7,0.8-0.4L258.5,253.8z"/>
				</g>
			</g>
			<g class="st8">
				<g>
					<path class="st9" d="M265.2,278.1c0.5,0.2,0.8,0.9,0.8,1.4l0,13.6c0,0.5-0.4,0.7-0.8,0.4l-18.2-10c-0.5-0.3-0.8-0.9-0.8-1.4
						l0-13.6c0-0.5,0.4-0.7,0.8-0.4L265.2,278.1z"/>
				</g>
			</g>
		</g>
		<g>
			<g>
				<path class="st2" d="M451,138c0.1,0.1,0.2,0.2,0.3,0.2c0.9,0.7,1.7,1.4,2.6,2.1c0.1,0.1,0.2,0.2,0.3,0.3
					c0.9,0.8,1.7,1.6,2.5,2.4c0.1,0.1,0.1,0.1,0.2,0.2c0.9,0.9,1.7,1.8,2.5,2.7c0,0,0,0,0,0c0.8,1,1.7,2,2.5,3c0,0,0,0,0,0
					c0.7,0.9,1.4,1.9,2.1,2.9c0.4,0.6,0.8,1.2,1.2,1.8c0.3,0.5,0.7,1,1,1.5c0.2,0.2,0.3,0.5,0.4,0.7c0.5,0.9,1,1.8,1.5,2.7
					c0.1,0.1,0.1,0.2,0.2,0.3c0.6,1.1,1.1,2.2,1.6,3.3c0,0.1,0.1,0.1,0.1,0.2c3.2,7,5.1,14.3,5.1,21.1l13.5-7.4c0-6-1.5-12.4-4-18.7
					l0,0c-0.2-0.5-0.4-0.9-0.6-1.4c-0.1-0.3-0.3-0.7-0.5-1c0-0.1-0.1-0.1-0.1-0.2c0-0.1-0.1-0.1-0.1-0.2c-0.2-0.5-0.4-0.9-0.7-1.4
					c-0.3-0.5-0.5-1-0.8-1.5c0-0.1-0.1-0.2-0.1-0.2c-0.1-0.1-0.1-0.2-0.2-0.3c-0.2-0.4-0.4-0.8-0.7-1.2c-0.3-0.5-0.6-1-0.9-1.5
					c-0.1-0.2-0.3-0.5-0.4-0.7c-0.1-0.1-0.1-0.2-0.2-0.3c-0.3-0.4-0.6-0.8-0.8-1.3c-0.4-0.6-0.8-1.2-1.2-1.8
					c-0.1-0.1-0.1-0.2-0.2-0.3c-0.6-0.9-1.3-1.7-1.9-2.6c0,0,0,0,0,0c0,0,0,0,0,0c-0.4-0.6-0.9-1.1-1.3-1.7
					c-0.4-0.4-0.7-0.9-1.1-1.3c0,0,0,0,0,0c0,0,0,0,0,0c-0.4-0.4-0.8-0.9-1.2-1.3c-0.4-0.4-0.8-0.8-1.2-1.2
					c-0.1-0.1-0.1-0.1-0.2-0.2c-0.1-0.1-0.1-0.1-0.2-0.2c-0.3-0.3-0.5-0.6-0.8-0.8c-0.4-0.4-0.8-0.8-1.3-1.2
					c-0.1-0.1-0.3-0.2-0.4-0.4c-0.1-0.1-0.2-0.2-0.3-0.3c-0.2-0.2-0.4-0.4-0.6-0.6c-0.4-0.4-0.9-0.7-1.3-1.1
					c-0.2-0.2-0.4-0.3-0.6-0.5c-0.1-0.1-0.2-0.2-0.3-0.2c-0.1-0.1-0.3-0.2-0.4-0.3c-0.4-0.3-0.9-0.6-1.3-1c-0.3-0.2-0.6-0.4-1-0.7
					c-0.1,0-0.1-0.1-0.2-0.1c-0.1,0-0.1-0.1-0.2-0.1c-0.4-0.3-0.9-0.5-1.3-0.8c-0.4-0.3-0.8-0.5-1.3-0.7c-0.1-0.1-0.2-0.1-0.3-0.2
					L329.7,56.2c-0.3-0.2-0.6-0.3-1-0.5c-0.4-0.2-0.8-0.4-1.2-0.6c-0.3-0.1-0.5-0.2-0.8-0.4c-0.1,0-0.1-0.1-0.2-0.1
					c-0.1,0-0.2-0.1-0.2-0.1c-0.4-0.2-0.8-0.3-1.2-0.5c-0.4-0.2-0.8-0.3-1.2-0.4c-0.1,0-0.1,0-0.2-0.1c-0.1,0-0.1,0-0.2-0.1
					c-0.3-0.1-0.5-0.2-0.8-0.3c-0.4-0.1-0.8-0.2-1.2-0.3c-0.2,0-0.4-0.1-0.6-0.1c-0.1,0-0.2,0-0.3-0.1c-0.1,0-0.3-0.1-0.4-0.1
					c-0.4-0.1-0.9-0.2-1.3-0.2c-0.3,0-0.5-0.1-0.8-0.1c-0.1,0-0.2,0-0.3,0c-0.1,0-0.2,0-0.3,0c-0.5,0-1,0-1.4,0c-0.2,0-0.4,0-0.6,0
					c-0.2,0-0.3,0-0.5,0c-0.2,0-0.3,0-0.5,0c-0.6,0.1-1.2,0.1-1.7,0.2c0,0,0,0,0,0c-0.1,0-0.2,0.1-0.4,0.1c-0.6,0.1-1.2,0.3-1.7,0.4
					c-0.1,0-0.1,0.1-0.2,0.1c-0.1,0-0.2,0.1-0.3,0.1c-0.7,0.3-1.4,0.5-2,0.9l-13.5,7.4c0.6-0.3,1.3-0.6,2-0.9c0.1,0,0.2-0.1,0.3-0.1
					c0.6-0.2,1.2-0.4,1.9-0.5c0.1,0,0.2-0.1,0.4-0.1c0.7-0.1,1.5-0.2,2.3-0.3c0.2,0,0.3,0,0.5,0c0.7,0,1.5,0,2.3,0
					c0.1,0,0.2,0,0.3,0c0.8,0.1,1.6,0.2,2.5,0.4c0.1,0,0.2,0,0.3,0.1c0.9,0.2,1.8,0.4,2.7,0.7c0.1,0,0.1,0,0.2,0.1
					c0.9,0.3,1.9,0.7,2.9,1.1c0.1,0,0.1,0.1,0.2,0.1c1,0.4,2,0.9,3,1.5l128.8,70.5c1,0.6,2,1.2,3,1.8c0.1,0,0.1,0.1,0.2,0.1
					C449.2,136.7,450.1,137.3,451,138z"/>
				<path class="st2" d="M488.6,174.8c0-0.5,0-0.9-0.1-1.4c0-0.5-0.1-0.9-0.1-1.4c0-0.5-0.1-0.9-0.2-1.4c-0.1-0.5-0.1-1-0.2-1.4
					c-0.1-0.5-0.2-1-0.3-1.4c-0.1-0.5-0.2-1-0.3-1.5c-0.1-0.5-0.2-1-0.4-1.5c-0.1-0.5-0.3-1-0.4-1.5c-0.1-0.5-0.3-1-0.5-1.5
					c-0.2-0.5-0.3-1-0.5-1.5c-0.2-0.5-0.4-1-0.5-1.5c-0.2-0.5-0.4-0.9-0.6-1.4l-13.5,7.4c0.2,0.5,0.4,0.9,0.6,1.4
					c0.2,0.5,0.4,1,0.5,1.5c0.2,0.5,0.3,1,0.5,1.5c0.2,0.5,0.3,1,0.5,1.5c0.1,0.5,0.3,1,0.4,1.5c0.1,0.5,0.3,1,0.4,1.5
					c0.1,0.5,0.2,1,0.3,1.5c0.1,0.5,0.2,1,0.3,1.4c0.1,0.5,0.2,1,0.2,1.4c0.1,0.5,0.1,0.9,0.2,1.4c0,0.5,0.1,0.9,0.1,1.4
					c0,0.5,0.1,0.9,0.1,1.4c0,0.4,0,0.9,0,1.3l-0.9,293.2c0,1.1-0.1,2.1-0.2,3.1c0,0.1,0,0.2,0,0.3c-0.1,0.9-0.2,1.8-0.4,2.7
					c0,0.1,0,0.2-0.1,0.3c-0.2,0.8-0.4,1.6-0.6,2.4c0,0.1-0.1,0.3-0.1,0.4c-0.3,0.7-0.5,1.4-0.8,2c0,0.1-0.1,0.1-0.1,0.2
					c-0.4,0.7-0.8,1.4-1.2,2.1c-0.1,0.1-0.1,0.2-0.2,0.3c-0.4,0.5-0.8,1-1.2,1.5c-0.2,0.2-0.3,0.3-0.5,0.5c-0.4,0.4-0.7,0.7-1.1,1
					c-0.2,0.1-0.3,0.3-0.5,0.4c-0.6,0.4-1.1,0.8-1.7,1.2l13.5-7.4c0.6-0.3,1.2-0.7,1.7-1.2c0.2-0.1,0.3-0.3,0.5-0.4
					c0.4-0.3,0.8-0.7,1.1-1c0.2-0.2,0.3-0.3,0.5-0.5c0.4-0.5,0.8-0.9,1.2-1.5c0.1-0.1,0.1-0.2,0.2-0.3c0,0,0,0,0-0.1
					c0.4-0.6,0.8-1.3,1.1-2c0,0,0,0,0-0.1c0-0.1,0.1-0.1,0.1-0.2c0.2-0.4,0.4-0.9,0.6-1.3c0.1-0.2,0.2-0.5,0.2-0.7
					c0-0.1,0.1-0.3,0.1-0.4c0-0.1,0.1-0.2,0.1-0.4c0.1-0.5,0.3-1,0.4-1.5c0-0.2,0.1-0.4,0.1-0.5c0-0.1,0-0.2,0.1-0.3
					c0-0.2,0.1-0.3,0.1-0.5c0.1-0.4,0.2-0.9,0.2-1.4c0-0.3,0.1-0.5,0.1-0.8c0-0.1,0-0.2,0-0.3c0-0.1,0-0.2,0-0.3
					c0-0.4,0.1-0.9,0.1-1.3c0-0.5,0-0.9,0-1.4c0,0,0-0.1,0-0.1l0.9-293.2C488.6,175.7,488.6,175.3,488.6,174.8z"/>
				<g>
					<path class="st10" d="M445.1,134.1c16.7,9.1,30.1,31.2,30.1,49.4l-0.9,293.2c-0.1,18.2-13.6,25.5-30.3,16.4l-128.8-70.5
						c-16.7-9.1-30.1-31.3-30.1-49.4L286,80c0.1-18.2,13.6-25.5,30.3-16.4L445.1,134.1z"/>
				</g>
				<g>
					<g>
						<path class="st11" d="M397.5,136.3c2,1.1,3.6,3.8,3.6,6c0,2.2-1.6,3.1-3.7,2l-33.2-18.2c-2-1.1-3.6-3.8-3.6-6
							c0-2.2,1.6-3.1,3.7-2L397.5,136.3z"/>
					</g>
					<g>
						
							<ellipse transform="matrix(0.8393 -0.5437 0.5437 0.8393 -170.7109 275.1295)" class="st12" cx="380" cy="426.3" rx="7.9" ry="13.4"/>
					</g>
					<g>
						<path class="st13" d="M461.9,197.4c1.7,0.9,3,3.1,3,5l-0.7,245c0,1.8-1.4,2.6-3,1.6l-162.1-88.8c-1.7-0.9-3-3.1-3-5l0.7-245
							c0-1.8,1.4-2.6,3-1.6L461.9,197.4z"/>
					</g>
				</g>
				<path class="st11" d="M482.2,282.4L482.2,282.4c-1.1,0-1.9-0.8-1.9-1.8v-54.5c0-1,0.9-1.8,1.9-1.8l0,0c1.1,0,1.9,0.8,1.9,1.8
					v54.5C484.1,281.5,483.3,282.4,482.2,282.4z"/>
				<path class="st11" d="M482.2,350.1L482.2,350.1c-1.1,0-1.9-0.8-1.9-1.8v-54.5c0-1,0.9-1.8,1.9-1.8l0,0c1.1,0,1.9,0.8,1.9,1.8
					v54.5C484.1,349.3,483.3,350.1,482.2,350.1z"/>
				<path class="st11" d="M482.2,433.4L482.2,433.4c-1.1,0-1.9-0.8-1.9-1.8v-28.2c0-1,0.9-1.8,1.9-1.8l0,0c1.1,0,1.9,0.8,1.9,1.8
					v28.2C484.1,432.6,483.3,433.4,482.2,433.4z"/>
			</g>
			<g>
				<path class="st14" d="M379,214.5c8.3,4.5,15,15.5,15.1,24.6c0,0.1,0,0.1,0,0.2c-0.3,0.1-7,2.6-15.4-1.8
					c-0.1-0.1-0.2-0.1-0.3-0.2c-6.6-3.6-12-10.7-13.9-13.5c-0.5-0.7-0.7-1.1-0.8-1.1C363.8,213.6,370.6,209.9,379,214.5z"/>
			</g>
			<g>
				<path class="st15" d="M447.2,293.5c1.9,1.1,3.5,3.6,3.5,5.7l0,13.8c0,2.1-1.6,2.9-3.5,1.9L313.9,242c-1.9-1.1-3.5-3.6-3.5-5.7
					l0-13.8c0-2.1,1.6-2.9,3.5-1.9L447.2,293.5z"/>
			</g>
			<linearGradient id="SVGID_2_" gradientUnits="userSpaceOnUse" x1="358.092" y1="167.0513" x2="399.4172" y2="251.5381">
				<stop  offset="0" style="stop-color:#9A79FF"/>
				<stop  offset="0.3403" style="stop-color:#BA76E8"/>
				<stop  offset="0.94" style="stop-color:#FB6FB9"/>
			</linearGradient>
			<path class="st16" d="M401.7,211.3c0.8,2.5,1.3,4.9,1.7,7.3c0.2,1.4,0.3,2.9,0.3,4.3c0,0.4,0,0.8,0,1.3c0,0.1,0,0.1,0,0.2
				c0,0.4-0.1,0.8-0.1,1.2c0,0.1,0,0.1,0,0.2c0,0.4-0.1,0.7-0.1,1.1c-0.1,0.5-0.1,0.8-0.2,1.2c-0.1,0.4-0.2,0.8-0.3,1.1
				c0,0.1,0,0.1,0,0.2c-0.1,0.3-0.2,0.6-0.3,1c0,0.1,0,0.1-0.1,0.2c-0.1,0.3-0.2,0.6-0.3,0.9c-0.2,0.4-0.3,0.7-0.4,0.9
				c-0.2,0.4-0.3,0.7-0.5,0.9c0,0.1-0.1,0.1-0.1,0.2c-0.2,0.3-0.3,0.5-0.5,0.8c0,0-0.1,0.1-0.1,0.1c-0.2,0.3-0.4,0.5-0.5,0.7
				c-0.2,0.2-0.4,0.5-0.6,0.7c0,0-0.1,0.1-0.1,0.1c-0.2,0.2-0.4,0.4-0.6,0.6c0,0-0.1,0.1-0.1,0.1c-0.2,0.2-0.4,0.4-0.6,0.5
				c0,0-0.1,0.1-0.1,0.1c-0.2,0.2-0.4,0.3-0.7,0.5c-0.3,0.2-0.5,0.3-0.8,0.5c0,0-0.1,0.1-0.1,0.1c-0.2,0.1-0.5,0.3-0.7,0.4
				c-0.1,0-0.1,0-0.2,0.1c-0.3,0.1-0.5,0.2-0.8,0.3c-0.2,0.1-0.4,0.1-0.5,0.2c-0.1-9.1-6.8-20-15.1-24.6c-8.4-4.6-15.2-0.9-15.2,8.2
				c0,0,0.2,0.4,0.7,1c-0.2-0.3-0.4-0.5-0.6-0.8c-0.4-0.5-0.6-0.9-0.9-1.2c0-0.1-0.1-0.1-0.1-0.2c-0.3-0.4-0.5-0.8-0.8-1.2
				c-0.1-0.1-0.1-0.2-0.2-0.3c-0.3-0.4-0.5-0.8-0.8-1.2c-0.3-0.4-0.5-0.9-0.7-1.3c0-0.1-0.1-0.2-0.1-0.2c-0.2-0.4-0.5-0.8-0.7-1.2
				c0-0.1-0.1-0.2-0.1-0.2c-0.2-0.4-0.4-0.8-0.6-1.2c-0.3-0.5-0.5-1-0.7-1.4c0-0.1-0.1-0.2-0.1-0.3c-0.2-0.4-0.4-0.9-0.6-1.3
				c-0.2-0.6-0.4-1-0.6-1.4c0-0.1-0.1-0.1-0.1-0.2c-0.2-0.4-0.3-0.9-0.5-1.3c0-0.1-0.1-0.2-0.1-0.3c-0.3-0.9-0.6-1.8-0.8-2.6
				c0-0.1,0-0.2-0.1-0.3c-0.1-0.4-0.2-0.9-0.3-1.3c0-0.1,0-0.2-0.1-0.2c-0.1-0.4-0.2-0.8-0.3-1.2c-0.1-0.6-0.2-1-0.3-1.4
				c0-0.1,0-0.2,0-0.3c-0.1-0.4-0.1-0.9-0.2-1.3c-0.1-0.5-0.1-0.9-0.1-1.3c0-0.1,0-0.1,0-0.2c0-0.4-0.1-0.8-0.1-1.2
				c0-0.1,0-0.2,0-0.3c0-0.4,0-0.8,0-1.3c0-1.4,0.1-2.7,0.3-4c0.3-2.1,0.9-3.9,1.7-5.5c0.2-0.3,0.3-0.6,0.5-0.9
				c4-6.9,12.6-8.5,22.5-3.1c8.9,4.9,16.6,14.2,21,24.2c0.3,0.7,0.6,1.3,0.8,2C401.1,209.4,401.4,210.4,401.7,211.3z M379.3,212
				c5.1,2.8,9.3,0.5,9.3-5c0-5.6-4.1-12.3-9.2-15.1c-5.1-2.8-9.3-0.6-9.3,5C370.1,202.5,374.2,209.2,379.3,212"/>
			<path class="st17" d="M401.7,211.3c0.8,2.5,1.3,4.9,1.7,7.3c0.2,1.4,0.3,2.9,0.3,4.3c0,0.4,0,0.8,0,1.3c0,0.1,0,0.1,0,0.2
				c0,0.4-0.1,0.8-0.1,1.2c0,0.1,0,0.1,0,0.2c0,0.4-0.1,0.7-0.1,1.1c-0.1,0.5-0.1,0.8-0.2,1.2c-0.1,0.4-0.2,0.8-0.3,1.1
				c0,0.1,0,0.1,0,0.2c-0.1,0.3-0.2,0.6-0.3,1c0,0.1,0,0.1-0.1,0.2c-0.1,0.3-0.2,0.6-0.3,0.9c-0.2,0.4-0.3,0.7-0.4,0.9
				c-0.2,0.4-0.3,0.7-0.5,0.9c0,0.1-0.1,0.1-0.1,0.2c-0.2,0.3-0.3,0.5-0.5,0.8c0,0-0.1,0.1-0.1,0.1c-0.2,0.3-0.4,0.5-0.5,0.7
				c-0.2,0.2-0.4,0.5-0.6,0.7c0,0-0.1,0.1-0.1,0.1c-0.2,0.2-0.4,0.4-0.6,0.6c0,0-0.1,0.1-0.1,0.1c-0.2,0.2-0.4,0.4-0.6,0.5
				c0,0-0.1,0.1-0.1,0.1c-0.2,0.2-0.4,0.3-0.7,0.5c-0.3,0.2-0.5,0.3-0.8,0.5c0,0-0.1,0.1-0.1,0.1c-0.2,0.1-0.5,0.3-0.7,0.4
				c-0.1,0-0.1,0-0.2,0.1c-0.3,0.1-0.5,0.2-0.8,0.3c-0.2,0.1-0.4,0.1-0.5,0.2c-0.1-9.1-6.8-20-15.1-24.6c-8.4-4.6-15.2-0.9-15.2,8.2
				c0,0,0.2,0.4,0.7,1c-0.2-0.3-0.4-0.5-0.6-0.8c-0.4-0.5-0.6-0.9-0.9-1.2c0-0.1-0.1-0.1-0.1-0.2c-0.3-0.4-0.5-0.8-0.8-1.2
				c-0.1-0.1-0.1-0.2-0.2-0.3c-0.3-0.4-0.5-0.8-0.8-1.2c-0.3-0.4-0.5-0.9-0.7-1.3c0-0.1-0.1-0.2-0.1-0.2c-0.2-0.4-0.5-0.8-0.7-1.2
				c0-0.1-0.1-0.2-0.1-0.2c-0.2-0.4-0.4-0.8-0.6-1.2c-0.3-0.5-0.5-1-0.7-1.4c0-0.1-0.1-0.2-0.1-0.3c-0.2-0.4-0.4-0.9-0.6-1.3
				c-0.2-0.6-0.4-1-0.6-1.4c0-0.1-0.1-0.1-0.1-0.2c-0.2-0.4-0.3-0.9-0.5-1.3c0-0.1-0.1-0.2-0.1-0.3c-0.3-0.9-0.6-1.8-0.8-2.6
				c0-0.1,0-0.2-0.1-0.3c-0.1-0.4-0.2-0.9-0.3-1.3c0-0.1,0-0.2-0.1-0.2c-0.1-0.4-0.2-0.8-0.3-1.2c-0.1-0.6-0.2-1-0.3-1.4
				c0-0.1,0-0.2,0-0.3c-0.1-0.4-0.1-0.9-0.2-1.3c-0.1-0.5-0.1-0.9-0.1-1.3c0-0.1,0-0.1,0-0.2c0-0.4-0.1-0.8-0.1-1.2
				c0-0.1,0-0.2,0-0.3c0-0.4,0-0.8,0-1.3c0-1.4,0.1-2.7,0.3-4c0.3-2.1,0.9-3.9,1.7-5.5c0.2-0.3,0.3-0.6,0.5-0.9
				c4-6.9,12.6-8.5,22.5-3.1c8.9,4.9,16.6,14.2,21,24.2c0.3,0.7,0.6,1.3,0.8,2C401.1,209.4,401.4,210.4,401.7,211.3z M379.3,212
				c5.1,2.8,9.3,0.5,9.3-5c0-5.6-4.1-12.3-9.2-15.1c-5.1-2.8-9.3-0.6-9.3,5C370.1,202.5,374.2,209.2,379.3,212"/>
			<g>
				<path class="st14" d="M379.4,191.9c5.1,2.8,9.2,9.6,9.2,15.1c0,5.6-4.2,7.8-9.3,5c-5.1-2.8-9.2-9.6-9.2-15.1
					C370.1,191.3,374.3,189.1,379.4,191.9z"/>
			</g>
			<g>
				<path class="st15" d="M447.1,323.6c1.9,1.1,3.5,3.6,3.5,5.7l0,13.8c0,2.1-1.6,2.9-3.5,1.9L313.8,272c-1.9-1.1-3.5-3.6-3.5-5.7
					l0-13.8c0-2.1,1.6-2.9,3.5-1.9L447.1,323.6z"/>
			</g>
			<linearGradient id="SVGID_3_" gradientUnits="userSpaceOnUse" x1="373.5367" y1="301.1136" x2="373.5367" y2="388.3385">
				<stop  offset="0" style="stop-color:#5155D4"/>
				<stop  offset="1" style="stop-color:#45F7FF"/>
			</linearGradient>
			<path class="st18" d="M395.1,346c4.5,2.5,8.2,8.5,8.2,13.5l0,3.2c0,5-3.7,6.9-8.3,4.5L352,343.5c-4.5-2.5-8.2-8.5-8.2-13.5l0-3.2
				c0-4.9,3.7-6.9,8.3-4.5L395.1,346z"/>
		</g>
		<linearGradient id="SVGID_4_" gradientUnits="userSpaceOnUse" x1="253.2421" y1="537.7909" x2="351.1567" y2="537.7909">
			<stop  offset="0" style="stop-color:#5155D4"/>
			<stop  offset="1" style="stop-color:#45F7FF"/>
		</linearGradient>
		<ellipse class="st19" cx="302.2" cy="537.8" rx="49" ry="27.6"/>
		<g>
			<path class="st20" d="M351.9,350.3c0,0,2.9-1.8,3.7-2.8c0.7-0.9,1.7-6.2,0.7-6.5c-1-0.2-1.7,3.5-1.7,3.5s-0.2-9.7-1.5-11.1
				c-1.2-1.4-5.1,5.5-5.4,6.7c-0.2,1.2-1.2,6-1.2,6S348,350.3,351.9,350.3z"/>
			<path class="st21" d="M277.4,378.2c0,0-7.6,7.3-2.3,16c5.4,8.8,41.9-12.9,45.8-16.2c3.9-3.2,29.5-25,30.9-27.7
				c1.5-2.8-1.7-5.5-5.6-5.1c-3.9,0.5-19.5,16.2-31.7,23.6C314.6,368.8,285.5,375.1,277.4,378.2z"/>
			<path class="st21" d="M281.9,531.8c0,0-0.6,4.4,0.2,6.2c0.8,1.6,4.2,2.8,6.5,1.2c2.3-1.6,6.3-5.6,6.3-5.6s6.7-3.4,7.3-5.2
				c0.6-1.8-1.7-3.4-3.6-3c-1.9,0.4-7.3,3.6-9.9,3.6C286.3,529.1,282.7,529.7,281.9,531.8z"/>
			<linearGradient id="SVGID_5_" gradientUnits="userSpaceOnUse" x1="288.6035" y1="443.7237" x2="276.799" y2="535.5941">
				<stop  offset="0" style="stop-color:#6851F5"/>
				<stop  offset="1" style="stop-color:#00CFFF"/>
			</linearGradient>
			<path class="st22" d="M275,438.7c0,0,5.9,91.9,6.6,94.5c0.7,2.7,8.3,4.2,9.8,0c0.9-2.7,3.1-87.7,3.1-87.7L275,438.7z"/>
			<path class="st21" d="M301.3,537.3c-0.3,0.3-0.5,0.7-0.5,1.1c0,1.3,0,4.1,0.8,5.2c1,1.4,4.1,3,7.3,1.3c2.7-1.4,11.1-7.3,12.8-8.6
				c1-0.8,1.5-1.8,1.7-2.5c0.2-0.7-0.2-1.4-0.9-1.7c-1.2-0.5-3.2-1.1-5-0.5c-2.8,0.9-6.3,3.7-10,3.6
				C304.6,534.9,302.3,536.5,301.3,537.3z"/>
			<linearGradient id="SVGID_6_" gradientUnits="userSpaceOnUse" x1="282.4837" y1="488.2155" x2="314.257" y2="488.2155">
				<stop  offset="0" style="stop-color:#6851F5"/>
				<stop  offset="1" style="stop-color:#00CFFF"/>
			</linearGradient>
			<path class="st23" d="M314.3,439.7c-0.4-3.8-5.2-5.1-9.7-3.8c-8.5-0.4-21.6-0.1-22,6.1c-0.7,9.2,3.9,15.8,8.3,20.3
				c3.3,3.3,5.4,9.6,6.3,12.7c0.8,24.4,2.5,58.7,3.5,62c1.7,5.3,10.1,5.1,10.5-0.1C312.9,519.6,314.3,439.7,314.3,439.7z"/>
			<path class="st21" d="M314.3,442.6c-1,4.7-15.2,7.1-23.4,5.8c-8.3-1.3-17.2-5.1-16.9-14.2c0,0,1.6-21.8,0.9-25.7
				c-0.6-3.9-2.2-10.7-2.2-17.9c0-7.2,4.7-12.5,4.7-12.5s4.6-5,19.2-2.2c0,0,11.9,2.5,17.3,10.8c0,0,3.8,9.1,2.5,28.2
				C315.2,434.1,314.3,442.6,314.3,442.6z"/>
			<path class="st24" d="M285.3,365.9c0,0,1.3,7,0,10.1c-0.2,1.6,7.1,7,13.6,5.6c3.8-0.8,3.6-2.6,3.6-2.6s-3.1-5-2.7-9.7
				C300.1,364.5,289.7,364.9,285.3,365.9z"/>
			<g>
				<path class="st20" d="M309.8,351.9c0,9.1-7.7,16.4-17.3,16.4c-9.6,0-17.3-7.3-17.3-16.4c0-9.1,7.7-16.4,17.3-16.4
					C302,335.4,309.8,342.8,309.8,351.9z"/>
				<path class="st20" d="M309.8,352.9c0,0,0.2,16.4-3.6,19.8c-3.8,3.3-9.6-3.1-18.8-5.2c-9.3-2.3,7.5-19.3,7.5-19.3L309.8,352.9z"
					/>
			</g>
			<path class="st20" d="M348.2,377.2c0,0-1.6-6.4-1.1-6.9c0.5-0.5,2.7,2.3,2.7,2.3s1.1-6.6,2-7.3c0.9-0.7,4.6,2.8,5.1,4.7
				c0.5,1.9-2.2,9.5-3.3,9.7C352.6,379.8,348.7,380.3,348.2,377.2z"/>
			<path class="st21" d="M308.9,384.9c0,0-7.7,3.5-4.4,12.5c3.3,9,27.8,12.5,30.7,9.7c2.9-2.8,15.7-17,19.4-27.7
				c0,0-1.5-4.2-7.3-2.4c0,0-13.9,16.6-16.1,18.4C329,397,312.5,384.2,308.9,384.9z"/>
			<path class="st25" d="M277.7,339.3c0,0,5.4-6.2,14.7-6.8c9.3-0.6,13.8,2.3,17.4,2c3.6-0.3,6.9,2.6,5.7,6.8
				c-1.2,4.3-3.9,8.5-9.9,8.5c-6,0-7.5-0.9-7.5-0.9s4.8,2,5.4,6c0.6,4,0.6,9.9,0.6,9.9h-1.5c0,0-1.2-6.5-3.6-6.5
				c-2.4,0-2.4,7.1-0.3,8.2c2.1,1.1,2.1,1.1,2.1,1.1s-4,7.1-6.2,7.4c-2.2,0.3-9.4-4.8-9.4-4.8s-12-5.4-13.2-14.2
				C270.8,347.3,277.7,339.3,277.7,339.3z"/>
		</g>
		<g>
			<g>
				<linearGradient id="SVGID_7_" gradientUnits="userSpaceOnUse" x1="98.8932" y1="492.0778" x2="196.8075" y2="492.0778">
					<stop  offset="0" style="stop-color:#5155D4"/>
					<stop  offset="1" style="stop-color:#45F7FF"/>
				</linearGradient>
				<ellipse class="st26" cx="147.9" cy="492.1" rx="49" ry="27.6"/>
				<g>
					<g>
						<path class="st27" d="M123.1,416.6c0,0,3.3,19.8,6,30.7c0,0,0.5,18.2,1.1,24.4c0.5,6.2,2.2,19.8,2.2,19.8s1.9,1.6,4.1,0.5
							c0,0,2.7-38.7,3.3-45c0.5-6.2,2.5-34.3,2.5-34.3S135.9,407.3,123.1,416.6z"/>
						<path class="st27" d="M143.6,408.8c0,0,3.3,19.8,6,30.7c0,0,0.5,18.2,1.1,24.4c0.5,6.2,2.2,19.8,2.2,19.8s1.9,1.6,4.1,0.5
							c0,0,2.7-38.7,3.3-45c0.5-6.2,0.8-34.1,0.8-34.1S156.5,399.5,143.6,408.8z"/>
						<path class="st21" d="M127.2,389.9c0,0-7.8,8.1-3.3,35.4c0.3,3.9,3,14,3,14s10.1,1.6,22.2-2.9c12.1-4.4,12.3-6.8,12.3-6.8
							s0.5-34.2-2.2-43.1C156.5,377.7,127.2,389.9,127.2,389.9z"/>
						<path class="st28" d="M157.2,482.4c0,0-0.3,2,1.9,3.5c2.2,1.6,6.3,4.4,7,6.1c0,1.3-5.2-0.1-7.5-1.3c-2.3-1.2-4.5-3.9-4.5-3.9
							l0.1,1.2c0,0-0.8,0-1.5-0.6c-0.7-0.6,0.1-4.7,0.1-4.7L157.2,482.4z"/>
						<path class="st28" d="M136.6,491.4c0,0-0.3,1.9,1.9,3.5c2.2,1.6,6.3,4.4,7,6.1c0,1.3-5.2-0.1-7.5-1.3s-4.5-3.9-4.5-3.9
							l0.1,1.2c0,0-0.8,0-1.5-0.6c-0.7-0.6,0.1-4.7,0.1-4.7L136.6,491.4z"/>
					</g>
					
						<linearGradient id="SVGID_8_" gradientUnits="userSpaceOnUse" x1="480.7566" y1="405.896" x2="500.3648" y2="301.3194" gradientTransform="matrix(-1 0 0 1 667.2031 0)">
						<stop  offset="0" style="stop-color:#7F5EFF"/>
						<stop  offset="0.2423" style="stop-color:#8665FF"/>
						<stop  offset="0.5952" style="stop-color:#9978FF"/>
						<stop  offset="0.94" style="stop-color:#B391FF"/>
					</linearGradient>
					<path class="st29" d="M156.7,338.3c0,0,7.1,1.1,11.7,15.7c2.8,9.7,6.8,10.6,11.4,11.5c4.6,0.9,24,0,25.6,0
						c1.5,0,3.4,3.2,1.2,5.6c-2.2,2.3-29,4.7-34.2,4.7c-5.2,0-17.3-9.4-22.2-17C145.3,351.1,150.3,337.7,156.7,338.3z"/>
					<path class="st21" d="M153.3,301.7c0,0,7.1,8.6,5.5,18.3c-1.5,9.6-10.5,9.2-12,14.5c-1.5,5.3,4.3,12.9-3.7,17.8
						c-8,5-11.7,3.8-13.9,14.3c-2.2,10.5-9.9,16.1-23.1,17.2c-13.3,1.2-22.5-14-19.1-25.1c3.4-11.1,15.1-7.6,17.6-16.7
						c2.5-9.1,1.5-16.2,9.9-19.7c8.3-3.5,5.2-16.8,13.6-20.9C136.6,297.3,147.2,295,153.3,301.7z"/>
					<g>
						
							<linearGradient id="SVGID_9_" gradientUnits="userSpaceOnUse" x1="512.5865" y1="393.8004" x2="552.149" y2="315.176" gradientTransform="matrix(-1 0 0 1 667.2031 0)">
							<stop  offset="0" style="stop-color:#7F5EFF"/>
							<stop  offset="0.2423" style="stop-color:#8665FF"/>
							<stop  offset="0.5952" style="stop-color:#9978FF"/>
							<stop  offset="0.94" style="stop-color:#B391FF"/>
						</linearGradient>
						<path class="st30" d="M134.9,335.3c0,0-15.2,10.3-16.8,13.8c-1.5,3.4-3.6,14.1,1.3,19.4c8.6,9.1,3.4,24.7,4.5,29.3
							c1.1,4.6,12.8,5.2,20.8,3.7c8.1-1.5,15.5-5.4,15.2-14.3c-0.3-8.9,2.2-21.2,2.7-25.2c0.5-4,0-14.1-2-20.9
							c-0.4-1.4-5.5-2.9-5.5-2.9S149.9,334.7,134.9,335.3z"/>
						<path class="st24" d="M148.1,333.4c0,0,0,0.2,0,0.5c0.2,1.1,0.7,3.8,0.8,4.9c0.1,1.1-1.2,3-4.3,2.9c-3.1-0.1-8.3-1.3-10.1-4.8
							c0.1-0.6-0.1-7.1-0.5-10.3L148.1,333.4z"/>
						<path class="st20" d="M156.7,313.9c-1.7-8.4-8.7-13.1-16.6-11.4c0,0-8.6,0.8-12.4,8c-3.8,7.1,1.8,13.2,5.4,17
							c1.5,1.6,2.7,2.8,3.4,3.5c0.3,0.3,0.5,0.6,0.8,0.8c0,0.1,0.1,0.1,0.1,0.1l0,0c2.4,2.3,5.3,3.6,7.3,4.2c3.5,1,7.5,0.4,9.7-1.8
							C156.6,332.1,158.3,322.3,156.7,313.9z"/>
					</g>
					<path class="st21" d="M158.1,319.6c0,0-6.3,0.6-10-3.5c-3.7-4.1-8.9,0-13.3-3.5c0,0,1.8,4.4,0,8.8c-1.8,4.4-2.5,11.1-2.5,11.1
						l-8-12v-10.5l10.2-9.1l13.6-0.6l6.5,5.8C154.6,306.1,158.7,315.2,158.1,319.6z"/>
					
						<linearGradient id="SVGID_10_" gradientUnits="userSpaceOnUse" x1="507.2805" y1="379.7342" x2="544.7153" y2="379.7342" gradientTransform="matrix(-1 0 0 1 667.2031 0)">
						<stop  offset="0" style="stop-color:#FF4F00"/>
						<stop  offset="1" style="stop-color:#FF3D9D"/>
					</linearGradient>
					<path class="st31" d="M122.9,370.6l19.2,5.7l17.8-4.7c-0.3,0.7-5,14.4-15.2,16.9c-7.4,1.8-16-4.4-20.4-8
						c-0.2-2.5-0.8-5.1-1.9-7.4L122.9,370.6z"/>
					<g>
						
							<linearGradient id="SVGID_11_" gradientUnits="userSpaceOnUse" x1="523.918" y1="319.783" x2="524.9128" y2="383.9507" gradientTransform="matrix(-1 0 0 1 667.2031 0)">
							<stop  offset="0" style="stop-color:#7F5EFF"/>
							<stop  offset="0.2423" style="stop-color:#8665FF"/>
							<stop  offset="0.5952" style="stop-color:#9978FF"/>
							<stop  offset="0.94" style="stop-color:#B391FF"/>
						</linearGradient>
						<path class="st32" d="M123.8,353.5c0,0-10.2-2.3-5.9,10.8c4.3,13.2,18.8,22.8,24,22.2c5.2-0.6,26.5-21.9,26.5-24.6
							c0-2.6-2.5-4.4-4.9-3.8c-2.5,0.6-18.8,17.2-20.3,16.7C141.6,374.2,132.1,359,123.8,353.5z"/>
						<path class="st20" d="M165.6,362.9c0,0-2.9-0.8-2-3.7c0.8-2.9,6.4-5.2,7.3-5.3c0.8-0.2,9.2,1.4,9.5,2.4c0.3,1-1.5,1.4-3.6,1
							c-2-0.5-5.1-0.6-5.1-0.6s2.2,2.3,2,3.2c-0.2,1-1.4,2.9-3.1,3.7c-1.7,0.8-3.7-1-3.7-1L165.6,362.9z"/>
					</g>
					<path class="st20" d="M202.9,365.9c0,0,6.7-5.4,7.1-4.5s-2.3,3.7-2.3,3.7s9-3.3,9.1-2.2c0.1,1.1-4.7,4.6-6,5.4
						c-1.3,0.8-5.9,2-5.9,2S202.3,367.1,202.9,365.9z"/>
				</g>
			</g>
			<g class="st33">
				<path class="st34" d="M172.4,317.4c-2.2,1.2-4,4.2-4,6.6l0.3,89.6c0,5.7,4.3,8,9.5,5.2l56.3-30.8c2.2-1.2,4-4.2,4-6.6l-0.3-89.6
					c0-5.7-4.3-8-9.5-5.2L172.4,317.4z"/>
			</g>
			<g>
				<g>
					<g>
						<path class="st14" d="M181,349.9c-0.7,0.4-1.2,1.2-1.2,2l0,4.8c0,0.7,0.5,1,1.2,0.6l45.9-25.1c0.7-0.4,1.2-1.2,1.2-2l0-4.8
							c0-0.7-0.5-1-1.2-0.6L181,349.9z"/>
					</g>
					<g>
						<path class="st14" d="M181,360.3c-0.7,0.4-1.2,1.2-1.2,2l0,4.8c0,0.7,0.5,1,1.2,0.6l45.9-25.1c0.7-0.4,1.2-1.2,1.2-2l0-4.8
							c0-0.7-0.5-1-1.2-0.6L181,360.3z"/>
					</g>
				</g>
				<path class="st14" d="M198.9,368c-1.6,0.9-2.8,2.9-2.8,4.6l0,1.1c0,1.7,1.3,2.4,2.8,1.5l14.8-8.1c1.6-0.9,2.8-2.9,2.8-4.6l0-1.1
					c0-1.7-1.3-2.4-2.8-1.5L198.9,368z"/>
			</g>
		</g>
	</g>
	<g>
		<g>
			<g>
				<path class="st35" d="M133.2,141.5c1.6-0.9,2.7-1.2,3.4-1.1l-0.5,2.1c-0.5,0-1.5,0.1-2.9,0.9c-2.1,1.2-2.9,3-2.9,4.1
					c0,1.5,0.9,1.8,3,1.5c2.6-0.4,3.9,0.2,3.9,2.6c0,2.6-1.7,5.8-5.3,7.8c-1.5,0.8-3.1,1.3-3.9,1.2l0.5-2.1c0.9,0.1,2.2-0.2,3.5-0.9
					c2-1.2,3.2-3,3.2-4.7c0-1.5-0.8-2-2.9-1.6c-2.5,0.5-4,0-4-2.4C128.2,146.2,130.2,143.2,133.2,141.5z"/>
			</g>
			<g>
				<path class="st35" d="M148.2,137.5c2.6-1.5,4.6-0.2,4.6,3.4c0,4.3-2.4,7.8-4.9,9.3c-1.4,0.8-2.7,0.9-3.4,0.1l0,0l0,6.5l-2,1.1
					l0-12.9c0-1.5-0.1-2.7-0.1-3.8l1.8-1l0.1,2l0.1,0C145.1,140.1,146.4,138.5,148.2,137.5z M147.5,148.6c2.1-1.2,3.3-3.8,3.3-6.5
					c0-2.4-1.2-3.8-3.3-2.5c-1.4,0.8-2.6,2.6-3,4.4c-0.1,0.3-0.1,0.7-0.1,1l0,2c0,0.3,0,0.6,0.1,0.8
					C144.9,149.1,146.1,149.4,147.5,148.6"/>
			</g>
			<g>
				<path class="st35" d="M166.9,132.3c0,0.4,0,0.8-0.1,1.1l-7.7,4.4c0.1,2.9,1.8,3.1,3.8,2c1.4-0.8,2.3-1.6,3-2.4l0.3,1.4
					c-0.7,0.8-1.9,1.8-3.6,2.8c-3.4,1.9-5.4,0.7-5.4-2.9c0-3.6,1.9-7.5,5.1-9.4C165.9,127.2,166.9,130.1,166.9,132.3z M165,132.9
					c0-1.4-0.5-3.2-2.8-1.9c-2,1.2-2.9,3.7-3,5.3L165,132.9"/>
			</g>
			<g>
				<path class="st35" d="M180.9,124.2c0,0.4,0,0.8-0.1,1.1l-7.7,4.4c0.1,2.9,1.8,3.1,3.8,2c1.4-0.8,2.3-1.6,3-2.4l0.3,1.4
					c-0.7,0.7-1.9,1.8-3.6,2.8c-3.4,1.9-5.4,0.7-5.4-2.9c0-3.6,1.9-7.5,5.1-9.4C179.9,119.1,180.9,122,180.9,124.2z M179,124.8
					c0-1.4-0.5-3.2-2.8-1.9c-2,1.2-2.9,3.7-3,5.3L179,124.8"/>
			</g>
			<g>
				<path class="st35" d="M195.5,119.3c0,1.1,0,2.2,0.1,3l-1.8,1l-0.1-2l0,0c-0.6,1.7-1.9,3.5-3.7,4.5c-2.6,1.5-4.7,0.3-4.7-3.4
					c0-4,2.2-7.7,4.9-9.2c1.7-1,2.8-0.8,3.3-0.1l0,0l0-7.1l2-1.1L195.5,119.3z M193.5,118.5l0-2.1c0-0.3,0-0.6-0.1-0.9
					c-0.3-1.2-1.4-1.7-2.9-0.9c-2,1.2-3.3,3.9-3.3,6.5c0,2.4,1.1,3.8,3.2,2.5c1.3-0.8,2.6-2.4,2.9-4.3
					C193.5,119.1,193.5,118.8,193.5,118.5"/>
			</g>
			<g>
				<path class="st35" d="M218.7,92.3l-4.3,19.1l-2.1,1.2l-1.9-7.5c-0.5-1.8-0.8-3.3-1-4.8c-0.3,1.8-0.6,3.6-1.2,6.1l-2.1,9.9
					l-2.1,1.2l-3.9-14.4l2.1-1.2l1.8,7.3c0.5,1.8,0.9,3.6,1.1,5.1c0.3-1.8,0.8-4.1,1.3-6.5l2-9.5l2.1-1.2l1.9,7.3
					c0.4,1.7,0.8,3.5,1.1,5.1c0.4-2,0.8-4.1,1.2-6.5l2-9.5L218.7,92.3z"/>
			</g>
			<g>
				<path class="st35" d="M227.9,91.4c3.1-1.8,5.3-0.5,5.3,3.1c0,4.4-2.8,7.9-5.4,9.5c-3,1.7-5.2,0.7-5.3-3.1
					C222.5,96.9,224.9,93.2,227.9,91.4z M227.9,102.3c1.9-1.1,3.3-3.9,3.3-6.5c0-2-0.9-4-3.3-2.7c-2.3,1.4-3.4,4.3-3.4,6.6
					C224.5,102.2,225.9,103.4,227.9,102.3"/>
			</g>
			<g>
				<path class="st35" d="M243.2,82.6c0.2-0.1,0.4-0.2,0.6-0.3l0,2c-0.2,0.1-0.4,0.2-0.7,0.3c-1.4,0.8-2.4,2.5-2.7,4.3
					c0,0.3-0.1,0.7-0.1,1.1l0,6.3l-2,1.1l0-8.2c0-1.4,0-2.6-0.1-3.7l1.7-1l0.1,2.3l0.1-0.1C240.7,85,241.9,83.4,243.2,82.6z"/>
			</g>
			<g>
				<path class="st35" d="M250.4,73.1l0,11l0,0c0.3-0.6,0.6-1.3,1-1.9l3.2-6l2.4-1.4l-4.2,7.3l4.8,4.2l-2.4,1.4l-3.8-3.5l-1,1.8
					l0,4.5l-2,1.1l0-17.5L250.4,73.1z"/>
			</g>
		</g>
	</g>
</g>
</svg>
