<?xml version="1.0"?>
<svg xmlns="http://www.w3.org/2000/svg" height="512px" viewBox="1 -1 511.9992 511" width="512px" class=""><g><path d="m505.191406 192.035156c-4.25-2.792968-9.613281-3.257812-14.28125-1.242187l-243.34375 105.179687-226.109375-105.015625c-4.675781-2.167969-10.132812-1.804687-14.480469.96875-4.34375 2.769531-6.97265575 7.570313-6.97265575 12.722657v288.800781c0 8.335937 6.75781275 15.09375 15.09374975 15.09375h481.800782c8.339843 0 15.097656-6.757813 15.097656-15.09375v-288.800781c0-5.082032-2.558594-9.824219-6.804688-12.613282zm0 0" fill="#cdf5ff" data-original="#CDF5FF" class="" style="fill:#ACB0F0" data-old_color="#ADB1F2"/><path d="m505.191406 192.035156c-4.25-2.792968-9.613281-3.257812-14.28125-1.242187l-243.34375 105.179687-.121094-.054687v212.625h249.453126c8.339843 0 15.097656-6.757813 15.097656-15.09375v-288.800781c0-5.082032-2.558594-9.824219-6.804688-12.613282zm0 0" fill="#abddff" data-original="#ABDDFF" class="" style="fill:#5A75E6" data-old_color="#5a75e6"/><path d="m66.222656 73.511719c-7.066406-1.402344-14.136718 2.375-16.890625 9.027343l-48.179687 116.332032c-3.097656 7.476562.25 16.0625 7.585937 19.46875l48.179688 22.375c2.027343.941406 4.195312 1.40625 6.359375 1.40625 2.832031 0 5.65625-.796875 8.121094-2.371094 4.34375-2.769531 6.976562-7.570312 6.976562-12.722656v-138.710938c0-7.199218-5.089844-13.398437-12.152344-14.804687zm0 0" fill="#8bc8e8" data-original="#8BC8E8" class="" style="fill:#A0A0D3" data-old_color="#A1A1D4"/><path d="m510.847656 198.871094-48.179687-116.332032c-2.757813-6.652343-9.828125-10.429687-16.894531-9.027343-7.0625 1.40625-12.148438 7.605469-12.148438 14.804687v137.15625c0 5.082032 2.558594 9.824219 6.804688 12.617188 2.5 1.640625 5.386718 2.480468 8.289062 2.480468 2.03125 0 4.070312-.410156 5.988281-1.242187l48.179688-20.824219c7.574219-3.269531 11.117187-12.011718 7.960937-19.632812zm0 0" fill="#6e96dc" data-original="#6E96DC" class=""/><path d="m242.761719 326.226562c2.003906.921876 4.15625 1.382813 6.3125 1.382813 2.054687 0 4.109375-.417969 6.03125-1.257813l208.710937-90.957031v-219.800781c0-8.335938-6.757812-15.09375-15.097656-15.09375h-385.441406c-8.335938 0-15.09375 6.757812-15.09375 15.09375v221.066406zm0 0" fill="#f4f4f4" data-original="#F4F4F4" class=""/><path d="m448.71875.5h-201.273438v327.019531c.542969.058594 1.085938.089844 1.628907.089844 2.054687 0 4.109375-.421875 6.03125-1.257813l208.710937-90.957031v-219.800781c0-8.335938-6.757812-15.09375-15.097656-15.09375zm0 0" fill="#e2e2e2" data-original="#E2E2E2" class=""/><path d="m256 71.25c-51.171875 0-92.804688 41.632812-92.804688 92.804688 0 51.171874 41.632813 92.804687 92.804688 92.804687s92.804688-41.632813 92.804688-92.804687c0-51.171876-41.632813-92.804688-92.804688-92.804688zm0 0" fill="#cdf5ff" data-original="#CDF5FF" class="" style="fill:#ACB0F0" data-old_color="#ADB1F2"/><path d="m245.835938 197.214844c-3.949219 0-7.882813-1.542969-10.832032-4.578125l-22.894531-23.570313c-5.808594-5.980468-5.671875-15.535156.308594-21.34375s15.539062-5.671875 21.347656.308594l13.132813 13.523438 32.484374-27.148438c6.394532-5.34375 15.914063-4.496094 21.261719 1.902344 5.347657 6.398437 4.496094 15.917968-1.902343 21.265625l-43.230469 36.128906c-2.8125 2.351563-6.25 3.511719-9.675781 3.511719zm0 0" fill="#48b1ff" data-original="#48B1FF" class="" style="fill:#BCD9E8" data-old_color="#BDD9E8"/><path d="m256 71.25c-2.882812 0-5.738281.140625-8.554688.398438v184.8125c2.816407.257812 5.671876.398437 8.554688.398437 51.171875 0 92.804688-41.632813 92.804688-92.804687 0-51.171876-41.632813-92.804688-92.804688-92.804688zm0 0" fill="#abddff" data-original="#ABDDFF" class="" style="fill:#5A75E6" data-old_color="#5a75e6"/><path d="m300.644531 136.308594c-5.347656-6.398438-14.867187-7.246094-21.261719-1.902344l-31.9375 26.691406v36.019532c2.878907-.304688 5.695313-1.429688 8.066407-3.414063l43.230469-36.132813c6.398437-5.34375 7.25-14.863281 1.902343-21.261718zm0 0" fill="#2386e8" data-original="#2386E8" class="active-path" style="fill:#90C5EB" data-old_color="#8FC4EA"/></g> </svg>
