<?xml version="1.0" encoding="utf-8"?>
<!-- Generator: Adobe Illustrator 22.1.0, SVG Export Plug-In . SVG Version: 6.00 Build 0)  -->
<svg version="1.1" xmlns="http://www.w3.org/2000/svg" xmlns:xlink="http://www.w3.org/1999/xlink" x="0px" y="0px"
	 viewBox="0 0 5000 5000" style="enable-background:new 0 0 5000 5000;" xml:space="preserve">
<style type="text/css">
	.st0{fill:#FFFFFF;}
	.st1{opacity:0.14;fill:#353535;}
	.st2{fill:#FFD3B9;}
	.st3{fill:#4A4342;}
	.st4{fill:#F5D0B8;}
	.st5{fill:#C73B2A;}
	.st6{fill:#3E2C38;}
	.st7{fill:#3D3736;}
	.st8{fill:#666261;}
	.st9{fill:#FFDDAC;}
	.st10{fill:#5A75E6;}
	.st11{fill:#2F363E;}
	.st12{fill:#5B6375;}
	.st13{fill:#353535;}
	.st14{fill:#2D2D2D;}
	.st15{fill:#212121;}
	.st16{fill:#C1272D;}
	.st17{fill:#515151;}
	.st18{fill:#E5E5E5;}
</style>
<g id="Layer_1">
	<rect class="st0" width="5000" height="5000"/>
</g>
<g id="Layer_2">
	<path class="st1" d="M4366.4,2247.5c0,0-3-62.9-33.3-47.7c0,0-24.7-76.3-70.1-36.6c0,0-27.2-82.1-83.7-22.8c0,0-32.1-54.5-65.1,9.9
		c0,0-7.1,15.2-42.9,43.4c0,0-39.7,34.1-19.9,90.2c0,0-0.4,0.7-1.2,2.5c-3.7-6.5-7-12.3-9.8-17.4c0,0-128,102.7-186.9,129.4
		c-90,40.8-189,72.5-279.8,33.7c-110.8-47.3-110.8-70.8-185.9-128.5c-29.9-32.3-66-58.9-105.7-77.8
		c-59.7-28.3-104.3-42.6-169.8-34.3c-1.6-17.3-0.7-34.6,9.3-48.2c18.7-25.7,58.1,16.9,79.6,28.8c63.7,35.3,136.7,56.7,209.7,58.6
		c51.7,1.8,106.6-6.3,146.7-38.9c54.2-44.1,68.1-120.1,104.5-179.8c8.2-13.4,18.7-26.9,33.9-31.3c29.1-8.5,60.3,20.4,88.8,9.9
		c19.3-7.1,28.4-30.5,26.4-51c-2-20.5-12.5-39.1-21.6-57.5c-44.4-89.4-63.1-191.3-53.4-290.6c4.4-45.1,14.5-89.5,16.9-134.7
		c1.9-35.1-1.3-71.6-14.5-103.9c19.1-4.6,36.7-12.8,51.1-26.6c30.5-29.1,37.6-75.4,33.8-117.3c-7.4-81.7-51-159.6-116.9-208.4
		c-22-16.3-74.6-57.3-113.4-77c-118.1-59.9-202.7-84.1-348.6-93.7c-118.2-7.8-290.3-24.7-446.1,25.1c18.3,9.9,97.1,92.2,76.9,97.5
		c-35.5,9.4-216.8,58.7-312.4,12.5c-7.5,58,29.8,118.8,84.9,138.5c-45.4,7.3-94-8.8-126.1-41.8c-1.4,92.3-0.2,258.1-15.8,212.9
		c-26,108.2,33.7,229.7,2.6,218.6c2.8,112,60.5,216.9,137.3,298.5c76.8,81.5,152.1,143.3,246.2,203.9c-4.1,23.1-11.8,45.4-23.4,65.2
		c-44.4-31.9-109.9-59.8-206.2-74.4l-335.2-96.8c0,0-78.8-27.9-187.8-19.8c-123.1-38.5-263.2-71.3-421.2-92.8l-485.1-64.9
		l250.2,377.5c0,0,73.7,4,191.9,15.5l-84.8,52.2c0,0-8.2,43.7-0.2,97.2c-24.9,0.1-105.2,1.5-129.7,17.5c0,0-46.7,13.2-78.8,46.3
		c-15.1-12.9-39.5-10.8-55.9,5.4l-25.8,25.4l-144.2-146.4c-29.9-30.4-78.3-31.1-108.2-1.8l-152.6,150.3l0-0.1l-17.2,17l0,0.1
		l-18.1,17.8l13.1,14.8l-174.2,171.6c-29.8,29.4-30.2,77.4-0.8,107.2l526.6,534.7c29.4,29.8,77.4,30.2,107.2,0.8l174.3-171.7
		l12.7,11.6l18.1-17.8l0,0l17.2-17l0,0l152.6-150.3c29.8-29.4,29.8-77.8-0.1-108.2l-144.2-146.4l25.8-25.4
		c16.5-16.3,18.9-40.8,6-56.1c2.8-0.8,5.7-1.5,8.7-2.3c0,0,50.2-14.8,55.2-74.1c0,0,8.7-6.4,40.8-40.4c26.6,14,59.3,24.2,99.6,28.6
		l259.5-219c0,0,78.1-53.7,157.4-2.8c0,0,262.1,91,273,118.7c0,0-123.6,263.5-669.4,373.6c0,0,48.4,204.4,71.8,356.3
		c-19.1,43.7-33.6,89.5-43.4,136.4c-22.5,107.9-76.6,264.1-199.9,247.4c0,0-82.5-9.3-246.3-70l1.8-4.3c9.2-21.3-0.7-46.1-22.1-55.2
		l-41.9-18c-21.3-9.2-46.1,0.7-55.2,22.1l-11.7,27.2c-10.2-18.8-20.3-37.6-30.5-56.4c-8.8-16.3-18-33-32.6-44.3
		c-27-20.8-65.7-17.7-97.6-5.8c-36.8,13.7-68.8,37.4-100,61.3c-89.2,68.6-177.5,145.3-224.3,247.7c-5,10.9-9.6,22.6-8.7,34.6
		c1.4,18.9,17,34.7,35,40.4c18,5.7,37.9,2.8,55.6-3.9s33.8-17,50.2-26.4c84.4-48.3,181.4-74.2,278.6-74.6l-18.3,42.7
		c-9.2,21.3,0.7,46.1,22.1,55.2l41.9,18c21.3,9.2,46.1-0.7,55.2-22.1l2.2-5.2c93.4,30.9,349.3,107.7,610.9,117.2
		c0,0,227.6,50.2,351.8-212.2c0,0,14.3-15.7,38.8-61.2c98.7,31.3,418.7,24,418.7,24c260.6-12.3,374,57.7,374,57.7
		c177,73.3,314.3,230.7,343.5,265.8c-8.4,14.5-7.5,33.3,3.6,47.2l28.4,35.6c14.5,18.2,41,21.1,59.1,6.6l13.1-10.5
		c1.1,2.6,2.2,5.3,3.2,7.8c8,20.9,15.9,41.8,23.9,62.7c6.6,17.3,13.5,35.1,26.5,48.2c24,24.1,62.8,26.2,95.9,18.5
		c38.2-8.8,73.2-28.1,107.1-47.7c97.4-56.3,195-120.8,254.8-216.2c6.4-10.2,12.5-21.2,13.1-33.2c1-18.9-12.3-36.6-29.4-44.7
		c-17.1-8.1-37.2-7.7-55.6-3.4c-18.4,4.3-35.7,12.4-53.2,19.6c-64.3,26.3-133.5,40.4-202.9,41.9l9.7-7.7c18.2-14.5,21.1-41,6.6-59.1
		l-28.4-35.6c-12.3-15.4-33.2-19.9-50.3-12c-74.5-97.9-227.4-263.6-227.4-263.6c-205.4-237.8-297.1-263.5-297.1-263.5
		c-55.2-27-121.8-49.7-189.7-68.6c3.5-9.3,6.9-18.5,10.5-27.6c49-126.8,116.4-246.4,199.2-354.2c17.5-22.8,36.6-45.7,60.4-61.3
		c2.5,2.5,5.1,5,7.7,7.7c36.5,37.2,154.7,99.1,207.3,109.1c103.9,19.7,173.2,17.6,277.9,2.8c58.9-8.3,163.4-38.5,217-64.2
		c88.4-42.4,179.7-102.4,238.7-157.8c0,0-6.1-10.3-15.8-26.7c13.3-0.6,26.1-5.6,37.3-16.9c0,0,99.1-43,117.9-72.2
		C4307.5,2371.9,4375.7,2314.7,4366.4,2247.5z M1332.7,2363c7.1-7,16.6-9.8,24.9-8.2c-0.8,2.1-1.6,4.3-2.2,6.6
		c0,0-7.9,20.2-7.7,36.6l-24.9-25.3L1332.7,2363z M1550.9,2584.5l-9.9,9.7l-24.5-24.9c7.8-1.6,17.4-6.3,29-15.7c0,0,2.3-2,8.3-5.1
		C1562.9,2558,1561.6,2574,1550.9,2584.5z"/>
	<path class="st2" d="M3386.3,2195.6c51.7,1.8,106.6-6.3,146.7-38.9c54.2-44.1,68.1-120.1,104.5-179.8c8.2-13.4,18.7-26.9,33.9-31.3
		c29.1-8.5,60.3,20.4,88.8,9.9c19.3-7.1,28.4-30.5,26.4-51c-2-20.5-12.5-39.1-21.6-57.5c-44.4-89.4-63.1-191.3-53.4-290.6
		c4.4-45.1,14.5-89.5,16.9-134.7s-3.5-92.6-28.5-130.4c-23.9-36.2-62.6-59.9-102-78c-68-31.3-141.7-49.4-216.2-57
		c-38.8-3.9-78.8-4.9-115.8,7.1c-37.1,12-71.1,39.1-82.7,76.3c-8.4,27-4.5,56-5.2,84.3c-0.7,28.3-7.9,59.4-31.2,75.4
		c-18.9,13.1-43.7,13-66.7,12.3c-54.4-1.5-108.7-2.9-163.1-4.4c-45.1-1.2-95.4-0.5-128,30.7c-30.7,29.3-35.4,76.9-29.6,118.9
		c8.6,61.9,35.4,119.6,60.4,176.9s48.8,116.8,50.9,179.3c2.1,62.5-21.7,129.3-74.2,163.3c81.3,64.9,169.3,121.4,262.3,168.2
		c8.1,4.1,5.4,9.6,13.3,5.1c8.9-5.2,21.8-40.7,21-51.1c-2-27.6-14.5-65.3,3.9-90.5c18.7-25.7,58.1,16.9,79.6,28.8
		C3240.4,2172.3,3313.3,2193.6,3386.3,2195.6z"/>
	<path class="st3" d="M3028.4,1483.1c-59-28-138.9,7.7-157.4,70.2c-20.8,69.9,27.6,139.9,41,211.6c12.2,65.2-24.9,132.2-44.6,195.6
		c-94.2-60.6-169.5-122.4-246.2-203.9c-76.8-81.5-134.5-186.5-137.3-298.5c31.2,11.1-28.6-110.4-2.6-218.6
		c15.6,45.2,14.4-120.6,15.8-212.9c32.1,33,80.6,49.1,126.1,41.8c-55.1-19.7-92.4-80.4-84.9-138.5c95.7,46.2,276.9-3.1,312.4-12.5
		c20.1-5.3-58.6-87.7-76.9-97.5c155.8-49.8,327.9-32.9,446.1-25.1c145.9,9.6,230.5,33.9,348.6,93.7c38.8,19.7,91.4,60.7,113.4,77
		c65.9,48.9,109.6,126.7,116.9,208.4c3.8,41.9-3.4,88.2-33.8,117.3c-36,34.3-91.9,34.3-141.3,28.9c-64.8-7.2-128.9-20.1-191.3-38.5
		c-57.2-16.9-123.2-37.3-172.5-3.8c-52.1,35.4-54.5,109.1-66.1,171c-6.6,35.1-17.9,69.3-33.4,101.5c-8.6,17.8-28.7,71.9-54.6,66.8
		c-23.3-4.6-14.8-48.9-20.8-67C3075.5,1521.6,3055.8,1496.1,3028.4,1483.1z"/>
	<path class="st0" d="M3540.8,2061.9c-32.9,32.8-86.7,59.8-168.4,25.9c0,0-129.6-44.9-91.4-251.9c1.4-8.2,3.2-16.6,5.2-25.2
		c0,0,76,196.6,296.9,187.6C3583.2,1998.4,3570.1,2032.7,3540.8,2061.9z"/>
	<path class="st4" d="M3334.8,2068.5c-35.6-31-81.6-99-56.8-233.2c1.3-7.9,3.1-16.2,5.3-25.5l2.4-10.1l3.4,8.9
		c0.8,2,77.9,194.5,294.4,185.9l4.2-0.2l-2.1,5.5c-0.5,1.4-13.7,35.6-43.3,65.1l0,0c-31.4,31.3-86.4,61.8-171,26.7
		C3370.8,2091.6,3354.3,2085.5,3334.8,2068.5z M3287.1,1821.3c-1.2,5.4-2.1,10.4-3,15.3c-37.1,200.7,84.4,245.6,89.4,247.4
		c82.4,34.3,135.6,5.1,165.9-25.1l0,0c21.4-21.4,34-45.7,38.9-56.4C3388.3,2008,3305.1,1859,3287.1,1821.3z"/>
	<path class="st5" d="M3540.8,2061.9c-32.9,32.8-86.7,59.8-168.4,25.9c0,0-129.6-44.9-91.4-251.9
		C3310.8,1924.6,3386.2,2082.2,3540.8,2061.9z"/>
	<path class="st6" d="M3548.9,1595.6c-12.1,14.8-19.3,40.2-16.1,63.4c2.3,16.7,9.5,30.9,18.7,40.1c9.1,9.1,19.9,13.4,30.8,14.7
		c12.6,1.5,25.7-1.3,36.8-10.9c11.1-9.6,19.9-26.8,21.6-46.3c1.7-19.7-3.9-39.7-13.1-53c-15.5-22.5-41.7-31.1-62.3-21.2
		C3559.4,1585.2,3553.8,1589.6,3548.9,1595.6z"/>
	<path class="st0" d="M3600.5,1596.4c-4.6-1.4-9.9,0.3-12.9,6c-3.3,6.2-3,15.3-1.6,22.9c2.3,13.4,7.3,25.6,14.1,34.3
		c4.7,6,10.9,10.6,16.8,7.7c5.1-2.5,8.8-10.3,9.7-18.6c0.9-8.3-0.6-16.8-3.3-24C3618.5,1611.6,3610.3,1599.4,3600.5,1596.4z"/>
	<path class="st7" d="M3692.9,1572.1c0,0-8-56.4-71.7-96.6c0,0-133.1-81.6-164.6-32.3l108.6,41c8.2,3.1,16.3,6.9,24.4,11.4
		C3611.6,1508,3656,1535.2,3692.9,1572.1z"/>
	<path class="st8" d="M3740.7,1220.5c0,0,87-383.1-720.1-330.2C3020.6,890.3,3571.5,838.6,3740.7,1220.5z"/>
	<path class="st9" d="M4165.3,2408.9c0,0,99.1-43,117.9-72.2c0,0,68.2-57.2,58.9-124.4c0,0-3-62.9-33.3-47.7
		c0,0-24.7-76.3-70.1-36.6c0,0-27.2-82.1-83.7-22.8c0,0-32.1-54.5-65.1,9.9c0,0-7.1,15.2-42.9,43.4c0,0-39.7,34.1-19.9,90.2
		c0,0-6.9,12.3-27.9,74.8C3993.2,2340.7,4102.8,2471.9,4165.3,2408.9z"/>
	<path class="st10" d="M3549.3,2396.9c-112.6-48.1-110.8-71.5-189.5-131.2c-28,29.1-150.6,155.4-180.5,182.5
		c-59,53.6-28.9,60.9,23.6,114.5c36.5,37.2,154.7,99.1,207.3,109.1c103.9,19.7,173.2,17.6,277.9,2.8c58.9-8.3,163.4-38.5,217-64.2
		c88.4-42.4,179.7-102.4,238.7-157.8c0,0-95.9-161.9-127.7-218.8c0,0-128,102.7-186.9,129.4
		C3739.2,2404,3640.2,2435.7,3549.3,2396.9z"/>
	<path class="st10" d="M3087.7,2156.4c65.6-8.4,110.2,5.9,170,34.3c59.8,28.4,111.1,74.2,145.9,130.5c14.9,24.1,26.7,49.9,42.4,73.5
		c15.7,23.5,36.1,45.2,62.3,55.7c26.9,10.9,36.2,65.7,17.2,87.7c-18.9,22-50.4,28.9-79.5,27.9c-78.3-2.7-158.2-52-230.5-21.9
		c-33.7,14-58.5,43.2-80.8,72.1c-82.9,107.7-150.2,227.4-199.2,354.2c-38.6,99.8-121.5,234.5-138.1,263.9
		c-68.2-12.4-136.4-24.9-204.7-37.3c-21.1-3.8-46.1-11-52.1-31.6c-4.6-15.6,4.3-31.6,12.8-45.4c71.2-115.6,143.1-232.1,236.7-330.3
		c42-44.1,88.3-84.5,123.2-134.4C3010,2517.4,3028.7,2314,3087.7,2156.4z"/>
	<path class="st0" d="M2829.7,2032.1c0,0,143.7,199.9,258,125.7c0,0-10.5,669.5-395.9,950.5l-423.2,5L2829.7,2032.1z"/>
	<path class="st11" d="M1563.4,2554.9l-60.1,59.2l-21.1-21.4l44.4-43.3c10.8-10.6,12-26.8,2.7-36.2l-184.6-187.4
		c-9.3-9.4-25.5-8.4-36.3,2.1l-44.4,43.3l-22.9-23.3l60.1-59.2c17.2-17,43.2-18.5,58-3.4l208.5,211.7
		C1582.5,2512,1580.6,2537.9,1563.4,2554.9z"/>
	<path class="st11" d="M1527.9,2489.7c-13.4,13.2-32.6,15.3-42.9,4.9l-123.9-125.8c-10.3-10.5-7.9-29.7,5.5-42.8l8.1-7.9
		c13.4-13.2,32.6-15.3,42.9-4.9l123.9,125.8c10.3,10.5,7.9,29.7-5.5,42.8L1527.9,2489.7z"/>
	<path class="st12" d="M1535.9,2482.2l-4.1,4l-162.4-164.9l4.1-4c13.5-13.3,32.9-15.5,43.3-5l124.7,126.6
		C1551.9,2449.6,1549.4,2468.9,1535.9,2482.2z"/>
	<path class="st13" d="M1216.9,3266.5c-8.8-16.3-18-33-32.6-44.3c-27-20.8-65.7-17.7-97.6-5.8c-36.8,13.7-68.8,37.4-100,61.3
		c-89.2,68.6-177.5,145.3-224.3,247.7c-5,10.9-9.6,22.6-8.7,34.6c1.4,18.9,17,34.7,35,40.4s37.9,2.8,55.6-3.9
		c17.7-6.7,33.8-17,50.2-26.4c84.5-48.3,181.6-74.3,278.9-74.6c9.2,0,18.9,0.1,27.1-4.3c7.8-4.1,13-11.7,18-18.9
		c12.3-18,24.6-36,36.9-54c7.8-11.4,25.6-27.8,20.6-42.5c-5.8-17.1-18.8-34.4-27.4-50.3C1238.1,3305.9,1227.5,3286.2,1216.9,3266.5z
		"/>
	<path class="st14" d="M2027,2756.2l-123.8,208.6c-38.4,64.7-65.3,135.4-80.6,209c-22.5,107.9-76.6,264.1-199.9,247.4
		c0,0-90.9-10.2-271.5-79.5c0,0-48.4,147.5-111.9,229.7c0,0,319.6,118.1,648.1,130c0,0,227.6,50.2,351.8-212.2
		c0,0,85-93,194.8-484.8L2027,2756.2z"/>
	<path class="st15" d="M1274.1,3589.4l104.1-242.5c9.2-21.3-0.7-46.1-22.1-55.2l-41.9-18c-21.3-9.2-46.1,0.7-55.2,22.1l-104.1,242.5
		c-9.2,21.3,0.7,46.1,22.1,55.2l41.9,18C1240.2,3620.7,1264.9,3610.8,1274.1,3589.4z"/>
	<path class="st13" d="M3545.4,3925.1c6.6,17.3,13.5,35.1,26.5,48.2c24,24.1,62.8,26.2,95.9,18.5c38.2-8.8,73.2-28.1,107.1-47.7
		c97.4-56.3,195-120.8,254.8-216.2c6.4-10.2,12.5-21.2,13.1-33.2c1-18.9-12.3-36.6-29.4-44.7s-37.2-7.7-55.6-3.4
		c-18.4,4.3-35.7,12.4-53.2,19.6c-90.1,36.8-189.8,49.9-286.3,37.4c-9.2-1.2-18.8-2.5-27.4,0.7c-8.2,3.1-14.5,9.8-20.3,16.4
		c-14.5,16.2-29.1,32.4-43.6,48.7c-9.2,10.3-29,24.2-26,39.5c3.5,17.7,14.1,36.6,20.6,53.5
		C3529.5,3883.3,3537.5,3904.2,3545.4,3925.1z"/>
	<path class="st9" d="M1573.1,2219.5c0,0-108-1.5-137.2,17.5c0,0-85.6,24.2-104.8,89.3c0,0-23.1,58.6,10.8,57.2
		c0,0-8.8,79.7,48.9,62.1c0,0-8.9,86,66.9,55.2c0,0,6.9,62.9,63.5,17.7c0,0,12.8-10.9,56.9-21.9c0,0,50.2-14.8,55.2-74.1
		c0,0,11.4-8.4,56.1-56.8C1702,2352.4,1655.9,2187.8,1573.1,2219.5z"/>
	<path class="st13" d="M2544,2923.9c0,0,365,42,570.9,142.6c0,0,91.8,25.7,297.1,263.5c0,0,162.6,176.3,234.1,272.6l-226.2,180
		c0,0-149.4-190-349.3-272.9c0,0-113.4-70-374-57.7c0,0-361.1,8.2-434.4-30.3c-73.3-38.5-394.2-44.6-298.6-425.8L2544,2923.9z"/>
	<path class="st15" d="M3505.2,3865.1l206.2-164.7c18.2-14.5,21.1-41,6.6-59.1l-28.4-35.6c-14.5-18.2-41-21.1-59.1-6.6l-206.2,164.7
		c-18.2,14.5-21.1,41-6.6,59.1l28.4,35.6C3460.6,3876.6,3487.1,3879.6,3505.2,3865.1z"/>
	<path class="st10" d="M2463.5,2307.5c0,0-123.6,263.5-669.4,373.6c0,0,72.7,307.3,83,448.2c0,0,208.4,89.7,275.6,172.4
		c0,0,867.1-704.1,784.6-1109.2c0,0,17.9-193.1-299.4-241.2l-335.2-96.8c0,0-141.7-50.2-308.1,3.6l-428.8,264.2
		c0,0-48.8,259.7,207.8,288.4l259.5-219c0,0,78.1-53.7,157.4-2.8C2190.5,2188.8,2452.6,2279.8,2463.5,2307.5z"/>
	<path class="st16" d="M3003.9,2148.5c0,0-33.4-19.1-37.4,35.2c-3.3,44.7-42.6,79.1-86.9,72.7c-20-2.9-42.6-13.2-67.2-36.2
		c0,0-348.1-373.5-1118.7-478.4l-485.1-64.9l250.2,377.5c0,0,605.5,32.8,1129.7,182.5c42.3,12.1,82.9,29.4,121.3,51
		c41.1,23.1,103.6,51.4,156.4,46.5c12-1.1,24-1.6,36-0.6c42.9,3.8,140.7-8.6,165-75.1C3067.1,2258.8,3107.2,2154.4,3003.9,2148.5z"
		/>
	<path class="st14" d="M1199.8,3179.3l-526.6-534.7c-29.4-29.8-29-77.8,0.8-107.2l350.4-345.1c29.8-29.4,77.8-29,107.2,0.8
		l526.6,534.7c29.4,29.8,29,77.8-0.8,107.2L1307,3180.1C1277.2,3209.4,1229.2,3209.1,1199.8,3179.3z"/>
	<path class="st17" d="M1494.1,3019.9L1147,2702.8L835.1,2351l187.9-185.1c29.8-29.4,78.3-28.6,108.2,1.8l550.6,559
		c29.9,30.4,30,78.8,0.1,108.2L1494.1,3019.9z"/>
	<polygon class="st18" points="870.4,2316.1 853.2,2333.1 1165.1,2684.9 1512.2,3002.1 1529.4,2985.1 1182.3,2668 	"/>
	<path class="st0" d="M1129.6,2749.4l-27.7-28.1c-5.9-6-5.8-15.7,0.2-21.6l91.7-90.3c6-5.9,15.7-5.8,21.6,0.2l27.7,28.1
		c5.9,6,5.8,15.7-0.2,21.6l-91.7,90.3C1145.3,2755.4,1135.5,2755.4,1129.6,2749.4z"/>
	<ellipse class="st1" cx="2433.9" cy="4270.4" rx="1977.6" ry="144"/>
</g>
</svg>
